SplineFontDB: 3.2
FontName: Hibis-Demotic
FullName: Demotic
FamilyName: Hibis-Demotic
Weight: Regular
Copyright: Copyright 2025 Loud Coypu
Version: 4.1
ItalicAngle: 0
UnderlinePosition: -125
UnderlineWidth: 50
Ascent: 800
Descent: 224
InvalidEm: 0
sfntRevision: 0x0004199a
LayerCount: 2
Layer: 0 1 "Back" 1
Layer: 1 1 "Fore" 0
XUID: [1021 422 1772429344 11350]
StyleMap: 0x0040
FSType: 0
OS2Version: 4
OS2_WeightWidthSlopeOnly: 0
OS2_UseTypoMetrics: 1
CreationTime: 1485360726
ModificationTime: 1746607070
PfmFamily: 33
TTFWeight: 400
TTFWidth: 5
LineGap: 0
VLineGap: 0
Panose: 2 11 5 2 4 5 4 2 2 4
OS2TypoAscent: 1324
OS2TypoAOffset: 0
OS2TypoDescent: -326
OS2TypoDOffset: 0
OS2TypoLinegap: 0
OS2WinAscent: 1324
OS2WinAOffset: 0
OS2WinDescent: 326
OS2WinDOffset: 0
HheadAscent: 1324
HheadAOffset: 0
HheadDescent: -326
HheadDOffset: 0
OS2SubXSize: 650
OS2SubYSize: 600
OS2SubXOff: 0
OS2SubYOff: 75
OS2SupXSize: 650
OS2SupYSize: 600
OS2SupXOff: 0
OS2SupYOff: 350
OS2StrikeYSize: 50
OS2StrikeYPos: 322
OS2CapHeight: 900
OS2XHeight: 536
OS2Vendor: 'LOCO'
OS2CodePages: 00000001.00000000
OS2UnicodeRanges: 80000003.02002000.00000000.00000000
Lookup: 4 1 1 "'liga' Demotic Default Ligatures" { "'liga' Demotic Default Ligatures-1"  } ['liga' ('DFLT' <'dflt' > ) ]
Lookup: 4 1 1 "'liga' Demotic Standard Ligatures" { "'liga' Demotic Basic Shapes"  } ['liga' ('DFLT' <'dflt' > ) ]
MarkAttachClasses: 1
DEI: 91125
TtTable: prep
SVTCA[y-axis]
MPPEM
PUSHW_1
 200
GT
IF
PUSHB_2
 1
 1
INSTCTRL
EIF
PUSHB_1
 1
PUSHW_2
 2048
 2048
MUL
WCVTF
PUSHB_2
 0
 7
WS
PUSHB_3
 23
 1
 0
LOOPCALL
PUSHB_2
 0
 7
WS
PUSHB_4
 12
 8
 1
 10
LOOPCALL
PUSHB_2
 0
 7
WS
PUSHB_4
 20
 6
 1
 10
LOOPCALL
PUSHB_2
 0
 8
WS
PUSHW_3
 832
 1
 11
LOOPCALL
PUSHB_2
 0
 9
WS
PUSHW_3
 64
 1
 11
LOOPCALL
PUSHW_2
 3
 0
WCVTP
PUSHB_2
 36
 1
GETINFO
LTEQ
IF
PUSHB_1
 64
GETINFO
IF
PUSHW_2
 3
 100
WCVTP
PUSHB_2
 40
 1
GETINFO
LTEQ
IF
PUSHW_1
 2048
GETINFO
IF
PUSHW_2
 3
 0
WCVTP
EIF
ELSE
PUSHB_2
 39
 1
GETINFO
LTEQ
IF
PUSHW_3
 2176
 1
 1088

StartChar: W1
Encoding: 78767 78767 0
Width: 848
VWidth: -37
Flags: W
LayerCount: 2
Fore
SplineSet
464 231 m 0,0,1
 464 154 464 154 367 95 c 0,2,3
 367 94 367 94 324 68 c 1,4,-1
 769 68 l 2,5,6
 782 68 782 68 790 60 c 128,-1,7
 798 52 798 52 798 39 c 128,-1,8
 798 26 798 26 790 18 c 128,-1,9
 782 10 782 10 769 10 c 2,10,-1
 149 10 l 2,11,12
 136 10 136 10 127 18 c 128,-1,13
 118 26 118 26 118 38 c 128,-1,14
 118 50 118 50 125 58 c 128,-1,15
 132 66 132 66 172 75 c 0,16,17
 280 98 280 98 353 157 c 0,18,19
 405 199 405 199 405 231 c 0,20,21
 405 235 405 235 404 238 c 0,22,23
 396 283 396 283 309 283 c 2,24,25
 309 283 309 283 304 283 c 0,26,27
 243 283 243 283 176 257 c 0,28,29
 157 249 157 249 148 249 c 128,-1,30
 139 249 139 249 130.5 257 c 128,-1,31
 122 265 122 265 122 279 c 0,32,33
 122 296 122 296 167 323 c 0,34,35
 235 365 235 365 261 419 c 0,36,37
 272 442 272 442 272 458 c 0,38,39
 272 498 272 498 229 508 c 0,40,41
 206 513 206 513 170 500.5 c 128,-1,42
 134 488 134 488 114 467.5 c 128,-1,43
 94 447 94 447 80.5 447 c 128,-1,44
 67 447 67 447 58.5 455.5 c 128,-1,45
 50 464 50 464 50 476.5 c 128,-1,46
 50 489 50 489 72 512 c 0,47,48
 128 569 128 569 204 569 c 2,49,50
 204 569 204 569 207 569 c 0,51,52
 275 569 275 569 309 527 c 0,53,54
 332 498 332 498 332 463 c 0,55,56
 332 411 332 411 302 378 c 0,57,58
 291 367 291 367 289 360 c 1,59,-1
 275 339 l 1,60,-1
 301 339 l 1,61,-1
 343 341 l 1,62,63
 389 342 389 342 424 312 c 0,64,65
 464 278 464 278 464 231 c 0,0,1
EndSplineSet
EndChar

StartChar: r
Encoding: 77963 77963 1
Width: 772
VWidth: -41
Flags: W
LayerCount: 2
Fore
SplineSet
558 98 m 2,0,1
 490 117 490 117 455 121 c 128,-1,2
 420 125 420 125 370 125 c 128,-1,3
 320 125 320 125 213 103 c 2,4,-1
 157 91 l 1,5,-1
 215 73 l 1,6,7
 306 47 306 47 391 47 c 0,8,9
 470 47 470 47 558 70 c 1,10,-1
 606 84 l 1,11,-1
 558 98 l 2,0,1
384 -15 m 0,12,13
 223 -15 223 -15 66 68 c 1,14,-1
 65 68 l 1,15,16
 50 75 50 75 50 94 c 0,17,18
 51 114 51 114 113.5 140.5 c 128,-1,19
 176 167 176 167 253 177 c 128,-1,20
 330 187 330 187 370 187 c 0,21,22
 548 187 548 187 666 137 c 0,23,24
 722 113 722 113 722 94 c 128,-1,25
 722 75 722 75 674 49.5 c 128,-1,26
 626 24 626 24 545.5 5 c 128,-1,27
 465 -14 465 -14 384 -15 c 0,12,13
EndSplineSet
EndChar

StartChar: a
Encoding: 77981 77981 2
Width: 471
VWidth: -37
Flags: W
LayerCount: 2
Fore
SplineSet
319 531 m 2,0,1
 349 531 349 531 349 499 c 0,2,3
 349 487 349 487 345.5 483.5 c 128,-1,4
 342 480 342 480 216 356 c 1,5,-1
 391 356 l 2,6,7
 402 356 402 356 410.5 347 c 128,-1,8
 419 338 419 338 420 331.5 c 128,-1,9
 421 325 421 325 421 302 c 0,10,11
 421 280 421 280 405 236 c 0,12,13
 366 130 366 130 242 62 c 0,14,15
 175 26 175 26 100 10 c 0,16,17
 84 7 84 7 75.5 7 c 0,18,19
 68 8 68 8 60 14 c 0,20,21
 50 23 50 23 49.5 35.5 c 128,-1,22
 49 48 49 48 55.5 56 c 128,-1,23
 62 64 62 64 104 73 c 0,24,25
 204 93 204 93 271.5 152.5 c 128,-1,26
 339 212 339 212 355 279 c 1,27,-1
 358 295 l 1,28,-1
 143 295 l 2,29,30
 130 295 130 295 121.5 304.5 c 128,-1,31
 113 314 113 314 113 326 c 128,-1,32
 113 338 113 338 122 347 c 2,33,-1
 134 359 l 2,34,35
 307 531 307 531 318 531 c 2,36,-1
 319 531 l 2,0,1
EndSplineSet
EndChar

StartChar: d
Encoding: 77991 77991 3
Width: 858
VWidth: -40
Flags: W
LayerCount: 2
Fore
SplineSet
275 247 m 2,0,-1
 277 247 l 2,1,2
 290 246 290 246 298 238 c 0,3,4
 306 230 306 230 306 217 c 128,-1,5
 306 204 306 204 299 195 c 1,6,-1
 152 49 l 1,7,-1
 779 49 l 2,8,9
 792 48 792 48 800 40 c 0,10,11
 808 32 808 32 808 19 c 128,-1,12
 808 6 808 6 800 -2 c 0,13,14
 792 -10 792 -10 779 -11 c 2,15,-1
 79 -11 l 2,16,17
 66 -11 66 -11 58 -2.5 c 128,-1,18
 50 6 50 6 50 19.5 c 128,-1,19
 50 33 50 33 53 36 c 2,20,21
 53 36 53 36 159 142 c 0,22,23
 265 248 265 248 275 247 c 2,0,-1
EndSplineSet
EndChar

StartChar: b
Encoding: 78016 78016 4
Width: 633
VWidth: -37
Flags: W
LayerCount: 2
Fore
SplineSet
81 600 m 128,-1,1
 94 600 94 600 102.5 591.5 c 128,-1,2
 111 583 111 583 111 570 c 2,3,-1
 111 122 l 1,4,-1
 135 146 l 1,5,-1
 138 148 l 1,6,7
 189 193 189 193 231.5 193 c 128,-1,8
 274 193 274 193 317 165.5 c 128,-1,9
 360 138 360 138 420 77 c 0,10,11
 421 77 421 77 444 52 c 1,12,-1
 444 71 l 1,13,14
 485 81 485 81 513 114 c 128,-1,15
 541 147 541 147 553.5 147 c 128,-1,16
 566 147 566 147 574.5 138.5 c 128,-1,17
 583 130 583 130 583.5 118 c 128,-1,18
 584 106 584 106 562 82 c 0,19,20
 500 11 500 11 435 11 c 0,21,22
 401 11 401 11 345 66 c 0,23,24
 314 97 314 97 284.5 115 c 128,-1,25
 255 133 255 133 233 133 c 0,26,27
 198 133 198 133 132 56 c 0,28,29
 94 12 94 12 76 12 c 0,30,31
 68 12 68 12 59 20.5 c 128,-1,32
 50 29 50 29 50 41 c 2,33,-1
 50 570 l 2,34,35
 50 583 50 583 59 591.5 c 128,-1,0
 68 600 68 600 81 600 c 128,-1,1
EndSplineSet
EndChar

StartChar: E23
Encoding: 78061 78061 5
Width: 804
VWidth: -35
Flags: W
LayerCount: 2
Fore
SplineSet
725 723 m 2,0,1
 754 723 754 723 754 693 c 0,2,3
 754 684 754 684 717 616 c 0,4,5
 620 436 620 436 586 389 c 0,6,7
 506 277 506 277 447 222 c 0,8,9
 340 121 340 121 210 65 c 0,10,11
 104 19 104 19 79 19 c 0,12,13
 70 20 70 20 62 26 c 0,14,15
 50 36 50 36 50 47.5 c 128,-1,16
 50 59 50 59 56.5 67 c 128,-1,17
 63 75 63 75 116.5 90 c 128,-1,18
 170 105 170 105 241 144.5 c 128,-1,19
 312 184 312 184 350.5 215 c 128,-1,20
 389 246 389 246 418 272 c 0,21,22
 489 336 489 336 578 487 c 0,23,24
 607 535 607 535 656 629 c 128,-1,25
 705 723 705 723 724 723 c 2,26,-1
 725 723 l 2,0,1
EndSplineSet
EndChar

StartChar: m
Encoding: 78163 78163 6
Width: 678
VWidth: -35
Flags: W
LayerCount: 2
Fore
SplineSet
384 351 m 1,0,1
 358 353 358 353 358 382 c 0,2,3
 358 396 358 396 380 415 c 0,4,5
 424 454 424 454 425 509 c 1,6,7
 425 509 425 509 425 521 c 0,8,9
 421 583 421 583 374 622 c 0,10,11
 339 651 339 651 299 651 c 0,12,13
 209 651 209 651 142 535 c 0,14,15
 135 522 135 522 122 522 c 0,16,17
 87 523 87 523 87 550 c 0,18,19
 87 558 87 558 103 585 c 0,20,21
 176 711 176 711 293 711 c 0,22,23
 363 711 363 711 417 665 c 0,24,25
 482 610 482 610 485 524 c 1,26,-1
 485 523 l 1,27,-1
 485 519 l 2,28,29
 485 475 485 475 457 426 c 2,30,-1
 446 407 l 1,31,-1
 467 405 l 2,32,33
 562 395 562 395 602 347 c 0,34,35
 628 316 628 316 628 271.5 c 128,-1,36
 628 227 628 227 596 180 c 0,37,38
 538 94 538 94 408 50 c 0,39,40
 314 18 314 18 245.5 18 c 128,-1,41
 177 18 177 18 120.5 24.5 c 128,-1,42
 64 31 64 31 57 39 c 128,-1,43
 50 47 50 47 50 59 c 2,44,-1
 50 64 l 1,45,46
 52 75 52 75 61 82 c 128,-1,47
 70 89 70 89 81 89 c 1,48,49
 158 78 158 78 204 78 c 0,50,51
 301 79 301 79 401.5 113.5 c 128,-1,52
 502 148 502 148 549 216 c 0,53,54
 569 246 569 246 569 270.5 c 128,-1,55
 569 295 569 295 553.5 313 c 0,56,57
 538 332 538 332 501 342 c 0,58,59
 445 358 445 358 385 351 c 1,60,-1
 384 351 l 1,0,1
EndSplineSet
EndChar

StartChar: f
Encoding: 78225 78225 7
Width: 890
VWidth: -47
Flags: W
LayerCount: 2
Fore
SplineSet
558 294 m 2,0,1
 580 294 580 294 585 276 c 1,2,-1
 691 10 l 1,3,-1
 705 36 l 1,4,5
 780 166 780 166 785 243 c 0,6,7
 788 288 788 288 816 288 c 2,8,-1
 820 288 l 1,9,10
 831 287 831 287 838.5 277.5 c 128,-1,11
 846 268 846 268 845 257 c 1,12,-1
 845 255 l 1,13,14
 828 39 828 39 551 -266 c 0,15,16
 444 -384 444 -384 313 -499.5 c 128,-1,17
 182 -615 182 -615 115 -662.5 c 128,-1,18
 48 -710 48 -710 35 -710 c 128,-1,19
 22 -710 22 -710 15 -700 c 128,-1,20
 8 -690 8 -690 9 -679 c 0,21,22
 10 -665 10 -665 94 -604 c 0,23,24
 432 -357 432 -357 652 -35 c 1,25,-1
 644 -27 l 2,26,27
 637 -20 637 -20 634 -13 c 2,28,-1
 529 252 l 2,29,30
 526 259 526 259 526 266 c 0,31,32
 526 283 526 283 543 291 c 0,33,34
 550 294 550 294 556 294 c 2,35,-1
 558 294 l 2,0,1
EndSplineSet
EndChar

StartChar: D
Encoding: 78227 78227 8
Width: 966
VWidth: -44
Flags: W
LayerCount: 2
Fore
SplineSet
858 326 m 2,0,-1
 859 326 l 2,1,2
 873 326 873 326 881 316 c 128,-1,3
 889 306 889 306 889 292 c 0,4,5
 889 279 889 279 876 272 c 1,6,-1
 723 160 l 1,7,-1
 886 155 l 2,8,9
 898 154 898 154 907 146 c 128,-1,10
 916 138 916 138 916 123 c 0,11,12
 916 109 916 109 903 100 c 2,13,-1
 96 -469 l 2,14,15
 88 -474 88 -474 76 -474 c 128,-1,16
 64 -474 64 -474 57 -464 c 128,-1,17
 50 -454 50 -454 50 -442 c 128,-1,18
 50 -430 50 -430 63 -421 c 2,19,-1
 796 97 l 1,20,-1
 634 102 l 2,21,22
 622 103 622 103 613.5 112 c 0,23,24
 605 122 605 122 605 136 c 128,-1,25
 605 150 605 150 617 157 c 1,26,-1
 840 320 l 2,27,28
 849 326 849 326 858 326 c 2,0,-1
EndSplineSet
EndChar

StartChar: M3
Encoding: 78257 78257 9
Width: 410
VWidth: -40
Flags: W
LayerCount: 2
Fore
SplineSet
131 235 m 2,0,-1
 134 235 l 2,1,2
 148 235 148 235 156 228 c 2,3,-1
 224 159 l 1,4,-1
 312 222 l 2,5,6
 321 228 321 228 333 228 c 0,7,8
 344 228 344 228 352 218 c 0,9,10
 360 208 360 208 360 195 c 0,11,12
 360 182 360 182 346 174 c 1,13,-1
 97 -5 l 2,14,15
 88 -12 88 -12 76 -12 c 0,16,17
 64 -12 64 -12 57 -2 c 0,18,19
 50 8 50 8 50 22 c 0,20,21
 50 35 50 35 56 39 c 0,22,23
 62 43 62 43 174 124 c 1,24,-1
 113 184 l 2,25,26
 104 193 104 193 104 206 c 0,27,28
 104 219 104 219 112 227 c 128,-1,29
 120 235 120 235 131 235 c 2,0,-1
EndSplineSet
EndChar

StartChar: M8
Encoding: 78263 78263 10
Width: 883
VWidth: -36
Flags: W
LayerCount: 2
Fore
SplineSet
775 353 m 1,0,1
 834 312 834 312 833.5 257 c 128,-1,2
 833 202 833 202 792 154 c 0,3,4
 712 59 712 59 529 27 c 0,5,6
 456 15 456 15 381 15 c 0,7,8
 233 15 233 15 108 53 c 0,9,10
 62 67 62 67 54 78 c 0,11,12
 50 82 50 82 50 90 c 0,13,14
 50 107 50 107 60.5 114.5 c 128,-1,15
 71 122 71 122 78.5 122 c 128,-1,16
 86 122 86 122 107 116 c 0,17,18
 245 74 245 74 379 74 c 0,19,20
 542 74 542 74 660 132 c 0,21,22
 719 161 719 161 746 192.5 c 128,-1,23
 773 224 773 224 773 251.5 c 128,-1,24
 773 279 773 279 737.5 306 c 128,-1,25
 702 333 702 333 624 348 c 128,-1,26
 546 363 546 363 487.5 363 c 128,-1,27
 429 363 429 363 400 361 c 1,28,-1
 398 361 l 2,29,30
 385 361 385 361 376.5 369.5 c 128,-1,31
 368 378 368 378 368 390.5 c 128,-1,32
 368 403 368 403 375 409 c 1,33,-1
 455 505 l 1,34,-1
 432 510 l 1,35,36
 389 521 389 521 350 570 c 1,37,-1
 340 583 l 1,38,-1
 328 571 l 1,39,40
 262 501 262 501 200 501 c 2,41,42
 200 501 200 501 198 501 c 0,43,44
 157 501 157 501 116.5 531 c 128,-1,45
 76 561 76 561 60 601 c 0,46,47
 54 617 54 617 54 631.5 c 128,-1,48
 54 646 54 646 71 652 c 0,49,50
 77 655 77 655 84 655 c 0,51,52
 103 655 103 655 118 621 c 0,53,54
 144 562 144 562 201 562 c 2,55,56
 201 562 201 562 203 562 c 0,57,58
 269 562 269 562 316 644 c 0,59,60
 324 659 324 659 342.5 659 c 128,-1,61
 361 659 361 659 379 621 c 0,62,63
 410 559 410 559 456 558 c 1,64,-1
 457 558 l 2,65,66
 511 558 511 558 570 642 c 1,67,-1
 576 651 l 1,68,69
 586 662 586 662 598 661 c 1,70,-1
 599 661 l 2,71,72
 612 661 612 661 620 652.5 c 128,-1,73
 628 644 628 644 628 633 c 0,74,75
 628 617 628 617 618 607 c 1,76,-1
 460 416 l 1,77,-1
 489 416 l 1,78,79
 699 410 699 410 774 353 c 1,80,-1
 775 353 l 1,0,1
EndSplineSet
EndChar

StartChar: xA
Encoding: 78268 78268 11
Width: 580
VWidth: -34
Flags: W
LayerCount: 2
Fore
SplineSet
236 822 m 128,-1,1
 249 822 249 822 257 813.5 c 128,-1,2
 265 805 265 805 265 792 c 2,3,-1
 265 323 l 1,4,-1
 278 322 l 1,5,6
 530 289 530 289 530 173 c 0,7,8
 530 132 530 132 500 100 c 0,9,10
 431 25 431 25 283 25 c 0,11,12
 170 26 170 26 92 67 c 0,13,14
 50 89 50 89 50 110 c 0,15,16
 50 115 50 115 53 121 c 0,17,18
 61 136 61 136 75 136 c 128,-1,19
 89 136 89 136 110 125 c 0,20,21
 187 86 187 86 268.5 86 c 128,-1,22
 350 86 350 86 393.5 103.5 c 128,-1,23
 437 121 437 121 454 139 c 128,-1,24
 471 157 471 157 471 172 c 128,-1,25
 471 187 471 187 452.5 205 c 128,-1,26
 434 223 434 223 377 241.5 c 128,-1,27
 320 260 320 260 270.5 264.5 c 128,-1,28
 221 269 221 269 211 282 c 0,29,30
 207 288 207 288 207 298 c 2,31,-1
 207 792 l 2,32,33
 207 805 207 805 215 813.5 c 128,-1,0
 223 822 223 822 236 822 c 128,-1,1
EndSplineSet
EndChar

StartChar: M17
Encoding: 78283 78283 12
Width: 790
VWidth: -35
Flags: W
LayerCount: 2
Fore
SplineSet
395 741 m 128,-1,1
 408 741 408 741 416 732 c 128,-1,2
 424 723 424 723 424 710 c 2,3,-1
 424 93 l 1,4,-1
 442 97 l 1,5,6
 584 125 584 125 665 234 c 0,7,8
 695 274 695 274 713 274 c 0,9,10
 720 274 720 274 730 266 c 0,11,12
 740 258 740 258 740 247 c 0,13,14
 740 235 740 235 719 207 c 0,15,16
 658 125 658 125 566 72 c 0,17,18
 474 19 474 19 371 19 c 0,19,20
 217 19 217 19 91 119 c 0,21,22
 50 151 50 151 50 167 c 0,23,24
 50 174 50 174 57 184 c 0,25,26
 64 194 64 194 74 194 c 0,27,28
 84 194 84 194 116 171 c 0,29,30
 213 99 213 99 350 88 c 1,31,-1
 366 86 l 1,32,-1
 366 710 l 2,33,34
 366 723 366 723 374 732 c 128,-1,0
 382 741 382 741 395 741 c 128,-1,1
EndSplineSet
EndChar

StartChar: q
Encoding: 78350 78350 13
Width: 744
VWidth: -39
Flags: W
LayerCount: 2
Fore
SplineSet
83 358 m 2,0,1
 94 358 94 358 104 347 c 128,-1,2
 114 336 114 336 122 327 c 0,3,4
 259 188 259 188 260 169 c 0,5,6
 260 164 260 164 252 156 c 2,7,-1
 154 55 l 1,8,-1
 665 56 l 2,9,10
 678 56 678 56 686.5 47.5 c 128,-1,11
 695 39 695 39 695 26 c 128,-1,12
 695 13 695 13 686.5 4.5 c 128,-1,13
 678 -4 678 -4 665 -4 c 2,14,-1
 81 -4 l 2,15,16
 68 -4 68 -4 59.5 4.5 c 0,17,18
 51 12 51 12 51 26 c 0,19,20
 50 40 50 40 54 44 c 128,-1,21
 58 48 58 48 190 176 c 1,22,-1
 59 305 l 2,23,24
 50 314 50 314 50 327 c 128,-1,25
 50 340 50 340 59.5 349 c 128,-1,26
 69 358 69 358 81 358 c 2,27,-1
 83 358 l 2,0,1
EndSplineSet
EndChar

StartChar: n
Encoding: 78358 78358 14
Width: 462
VWidth: -43
Flags: W
LayerCount: 2
Fore
SplineSet
80 35 m 2,0,-1
 382 35 l 2,1,2
 396 35 396 35 404 27 c 0,3,4
 412 19 412 19 412 6 c 128,-1,5
 412 -7 412 -7 403.5 -15.5 c 128,-1,6
 395 -24 395 -24 382 -24 c 2,7,-1
 80 -24 l 2,8,9
 67 -24 67 -24 58.5 -15.5 c 128,-1,10
 50 -7 50 -7 50 6 c 128,-1,11
 50 19 50 19 58 27 c 0,12,13
 66 35 66 35 80 35 c 2,0,-1
EndSplineSet
EndChar

StartChar: S
Encoding: 78361 78361 15
Width: 494
VWidth: -39
Flags: W
LayerCount: 2
Fore
SplineSet
170 374 m 2,0,-1
 171 374 l 2,1,2
 187 374 187 374 194 363 c 1,3,-1
 437 45 l 2,4,5
 444 35 444 35 444 23 c 0,6,7
 444 10 444 10 434 4 c 0,8,9
 424 -2 424 -2 412 -2 c 0,10,11
 400 -2 400 -2 392 9 c 2,12,-1
 280 154 l 1,13,-1
 100 5 l 2,14,15
 91 -3 91 -3 79 -2.5 c 128,-1,16
 67 -2 67 -2 58.5 7 c 128,-1,17
 50 16 50 16 50 28 c 0,18,19
 50 40 50 40 61 50 c 2,20,-1
 243 201 l 1,21,-1
 147 326 l 2,22,23
 140 335 140 335 140 348 c 0,24,25
 140 362 140 362 150 368 c 0,26,27
 160 374 160 374 170 374 c 2,0,-1
EndSplineSet
EndChar

StartChar: O4
Encoding: 78420 78420 16
Width: 746
VWidth: -39
Flags: W
LayerCount: 2
Fore
SplineSet
476 402 m 2,0,-1
 478 402 l 2,1,2
 480 402 480 402 490 400 c 0,3,4
 563 389 563 389 620.5 348 c 128,-1,5
 678 307 678 307 692 246 c 0,6,7
 696 230 696 230 696 215 c 0,8,9
 696 165 696 165 654 117 c 0,10,11
 599 54 599 54 502 15 c 0,12,13
 481 6 481 6 474 6 c 0,14,15
 459 9 459 9 451.5 19 c 128,-1,16
 444 29 444 29 444 38 c 0,17,18
 444 55 444 55 505.5 80.5 c 128,-1,19
 567 106 567 106 607 156 c 0,20,21
 634 190 634 190 636 218 c 0,22,23
 636 227 636 227 635 234 c 0,24,25
 628 264 628 264 588 292 c 0,26,27
 546 321 546 321 485 336 c 1,28,29
 392 232 392 232 331 174 c 0,30,31
 230 78 230 78 121 16 c 0,32,33
 89 -2 89 -2 76 -2 c 128,-1,34
 63 -2 63 -2 56.5 9.5 c 128,-1,35
 50 21 50 21 50 30 c 0,36,37
 50 47 50 47 91 68 c 0,38,39
 189 118 189 118 312 238 c 0,40,41
 358 282 358 282 411 342 c 128,-1,42
 464 402 464 402 476 402 c 2,0,-1
EndSplineSet
EndChar

StartChar: p
Encoding: 78506 78506 17
Width: 1033
VWidth: -39
Flags: W
LayerCount: 2
Fore
SplineSet
506 348 m 1,0,1
 493 191 493 191 345 85 c 0,2,3
 345 84 345 84 309 59 c 1,4,-1
 954 59 l 2,5,6
 967 59 967 59 975 50.5 c 128,-1,7
 983 42 983 42 983 29.5 c 128,-1,8
 983 17 983 17 975 8.5 c 128,-1,9
 967 0 967 0 954 0 c 2,10,-1
 120 0 l 2,11,12
 107 0 107 0 98.5 8.5 c 128,-1,13
 90 17 90 17 90 29 c 128,-1,14
 90 41 90 41 97.5 49.5 c 128,-1,15
 105 58 105 58 145 65 c 0,16,17
 298 90 298 90 386 212 c 2,18,-1
 411 247 l 1,19,-1
 369 233 l 2,20,21
 366 232 366 232 360 228 c 0,22,23
 353 224 353 224 342 224 c 0,24,25
 293 224 293 224 265 259 c 1,26,-1
 261 267 l 1,27,-1
 253 282 l 1,28,-1
 240 272 l 2,29,30
 181 226 181 226 135.5 226 c 128,-1,31
 90 226 90 226 70 253 c 128,-1,32
 50 280 50 280 50 312.5 c 128,-1,33
 50 345 50 345 58.5 372 c 128,-1,34
 67 399 67 399 73.5 402.5 c 128,-1,35
 80 406 80 406 90 406 c 2,36,-1
 92 406 l 2,37,38
 121 406 121 406 121 375 c 0,39,40
 121 370 121 370 115.5 352.5 c 128,-1,41
 110 335 110 335 110 321 c 0,42,43
 110 306 110 306 116 286 c 1,44,-1
 127 286 l 2,45,46
 170 286 170 286 217 326 c 0,47,48
 236 343 236 343 243 357 c 1,49,-1
 247 357 l 1,50,-1
 247 371 l 1,51,-1
 247 372 l 1,52,53
 254 394 254 394 271 394 c 128,-1,54
 288 394 288 394 296.5 385.5 c 128,-1,55
 305 377 305 377 305 365 c 2,56,-1
 305 361 l 1,57,58
 302 355 302 355 301 332 c 0,59,60
 299 285 299 285 344 285 c 2,61,62
 344 285 344 285 347 285 c 1,63,-1
 406 307 l 1,64,65
 437 331 437 331 446 363 c 0,66,67
 450 376 450 376 456 382 c 0,68,69
 463 388 463 388 476.5 388 c 128,-1,70
 490 388 490 388 498 379 c 128,-1,71
 506 370 506 370 506 360 c 2,72,-1
 506 348 l 1,0,1
EndSplineSet
EndChar

StartChar: s
Encoding: 78580 78580 18
Width: 416
VWidth: -35
Flags: W
LayerCount: 2
Fore
SplineSet
121 766 m 1,0,1
 121 766 121 766 113 613 c 1,2,3
 113 562 113 562 130 540 c 0,4,5
 148 520 148 520 191 520 c 128,-1,6
 234 520 234 520 307 534 c 1,7,-1
 307 763 l 2,8,9
 307 776 307 776 315.5 784 c 128,-1,10
 324 792 324 792 336.5 792 c 128,-1,11
 349 792 349 792 357.5 783.5 c 128,-1,12
 366 775 366 775 366 763 c 2,13,-1
 366 53 l 2,14,15
 366 40 366 40 357.5 32 c 128,-1,16
 349 24 349 24 336.5 24 c 128,-1,17
 324 24 324 24 315.5 32 c 128,-1,18
 307 40 307 40 307 53 c 2,19,-1
 307 473 l 1,20,-1
 289 470 l 1,21,22
 237 460 237 460 201.5 460 c 128,-1,23
 166 460 166 460 139 468.5 c 0,24,25
 112 476 112 476 90 498 c 0,26,27
 50 538 50 538 50 622 c 0,28,29
 50 656 50 656 56 705 c 128,-1,30
 62 754 62 754 62 767 c 128,-1,31
 62 780 62 780 71 788 c 128,-1,32
 80 796 80 796 91 796 c 2,33,-1
 92 796 l 2,34,35
 104 796 104 796 112.5 787 c 128,-1,36
 121 778 121 778 121 767 c 2,37,-1
 121 766 l 1,0,1
EndSplineSet
EndChar

StartChar: W
Encoding: 78747 78747 19
Width: 330
VWidth: -34
Flags: W
LayerCount: 2
Fore
SplineSet
109 715 m 0,0,1
 109 695 109 695 116 685.5 c 128,-1,2
 123 676 123 676 150.5 664 c 128,-1,3
 178 652 178 652 218 652 c 2,4,5
 218 652 218 652 223 652 c 0,6,7
 254 652 254 652 263 643 c 128,-1,8
 272 634 272 634 272 621 c 2,9,-1
 272 58 l 2,10,11
 272 45 272 45 263 36.5 c 128,-1,12
 254 28 254 28 241.5 28 c 128,-1,13
 229 28 229 28 220 36.5 c 128,-1,14
 211 45 211 45 211 58 c 2,15,-1
 211 597 l 1,16,-1
 200 599 l 2,17,18
 194 600 194 600 168 602 c 128,-1,19
 142 604 142 604 117 613.5 c 128,-1,20
 92 623 92 623 71 653 c 128,-1,21
 50 683 50 683 50 717.5 c 128,-1,22
 50 752 50 752 66 782 c 0,23,24
 108 864 108 864 249 867 c 1,25,-1
 250 867 l 2,26,27
 263 867 263 867 271.5 859 c 128,-1,28
 280 851 280 851 280 839 c 2,29,-1
 280 838 l 2,30,31
 280 825 280 825 271 816.5 c 128,-1,32
 262 808 262 808 250 808 c 0,33,34
 109 806 109 806 109 715 c 0,0,1
EndSplineSet
EndChar

StartChar: V31
Encoding: 78753 78753 20
Width: 1119
VWidth: -41
Flags: W
LayerCount: 2
Fore
SplineSet
118 139 m 1,0,-1
 124 121 l 2,1,2
 148 46 148 46 208 46 c 0,3,4
 268 46 268 46 309 118 c 2,5,-1
 321 139 l 1,6,-1
 118 139 l 1,0,-1
81 200 m 2,7,-1
 1038 200 l 2,8,9
 1051 200 1051 200 1060 191 c 128,-1,10
 1069 182 1069 182 1069 169.5 c 128,-1,11
 1069 157 1069 157 1060 148 c 128,-1,12
 1051 139 1051 139 1038 139 c 2,13,-1
 388 139 l 1,14,-1
 385 129 l 1,15,16
 362 60 362 60 312 23 c 0,17,18
 262 -14 262 -14 202 -14 c 0,19,20
 142 -14 142 -14 96 37 c 0,21,22
 51 88 51 88 51 155 c 2,23,-1
 51 169 l 2,24,25
 51 182 51 182 59 191 c 0,26,27
 68 200 68 200 81 200 c 2,7,-1
EndSplineSet
EndChar

StartChar: W11
Encoding: 78780 78780 21
Width: 1044
VWidth: -40
Flags: W
LayerCount: 2
Fore
SplineSet
965 70 m 2,0,-1
 377 70 l 1,1,2
 375 71 375 71 368 71 c 1,3,-1
 357 82 l 1,4,-1
 306 6 l 2,5,6
 298 -7 298 -7 283.5 -7 c 128,-1,7
 269 -7 269 -7 260.5 1.5 c 128,-1,8
 252 10 252 10 252 22 c 2,9,-1
 252 29 l 1,10,11
 259 74 259 74 259 116 c 128,-1,12
 259 158 259 158 244 195.5 c 128,-1,13
 229 233 229 233 201 244 c 0,14,15
 192 248 192 248 178.5 247.5 c 128,-1,16
 165 247 165 247 146 226 c 0,17,18
 115 192 115 192 110 143 c 0,19,20
 108 117 108 117 99 110 c 128,-1,21
 90 103 90 103 79 103 c 2,22,-1
 77 103 l 1,23,24
 66 105 66 105 58 113 c 128,-1,25
 50 121 50 121 50 132 c 2,26,-1
 50 135 l 1,27,28
 57 219 57 219 104 268 c 0,29,30
 140 306 140 306 182 307 c 0,31,32
 198 307 198 307 214 302 c 0,33,34
 273 284 273 284 296 223 c 0,35,36
 303 204 303 204 316 128 c 1,37,-1
 428 294 l 2,38,39
 435 305 435 305 447 307 c 1,40,41
 447 307 447 307 454 307 c 128,-1,42
 461 307 461 307 472 300.5 c 128,-1,43
 483 294 483 294 483 280.5 c 128,-1,44
 483 267 483 267 477 260 c 1,45,-1
 388 129 l 2,46,47
 388 128 388 128 965 128 c 0,48,49
 978 128 978 128 986 120 c 128,-1,50
 994 112 994 112 994 99 c 128,-1,51
 994 86 994 86 986 78 c 128,-1,52
 978 70 978 70 965 70 c 2,0,-1
EndSplineSet
EndChar

StartChar: W24
Encoding: 78796 78796 22
Width: 521
VWidth: -38
Flags: W
LayerCount: 2
Fore
SplineSet
191 397 m 2,0,1
 170 403 170 403 152 403 c 2,2,3
 152 403 152 403 138 403 c 128,-1,4
 124 403 124 403 77 400 c 1,5,6
 68 401 68 401 59 408.5 c 128,-1,7
 50 416 50 416 50 426 c 2,8,-1
 50 430 l 2,9,10
 50 442 50 442 58 450 c 0,11,12
 72 464 72 464 145 464 c 0,13,14
 210 464 210 464 237 447 c 0,15,16
 250 438 250 438 259 423 c 128,-1,17
 268 408 268 408 268 391 c 0,18,19
 268 362 268 362 228 308 c 128,-1,20
 188 254 188 254 170 213 c 1,21,-1
 185 207 l 2,22,23
 252 180 252 180 397 225 c 1,24,-1
 407 228 l 1,25,-1
 407 239 l 2,26,27
 407 315 407 315 405 358 c 1,28,-1
 405 361 l 2,29,30
 405 372 405 372 413 380.5 c 128,-1,31
 421 389 421 389 433 391 c 1,32,-1
 434 391 l 2,33,34
 445 391 445 391 454 382 c 0,35,36
 471 365 471 365 471 227 c 0,37,38
 471 148 471 148 464.5 93 c 128,-1,39
 458 38 458 38 456.5 28 c 128,-1,40
 455 18 455 18 446.5 10.5 c 128,-1,41
 438 3 438 3 428 3 c 2,42,-1
 424 3 l 1,43,44
 413 5 413 5 405 13 c 128,-1,45
 397 21 397 21 397 33 c 2,46,-1
 397 36 l 1,47,48
 398 50 398 50 402 78 c 128,-1,49
 406 106 406 106 410 168 c 1,50,-1
 390 163 l 2,51,52
 294 138 294 138 221 138 c 128,-1,53
 148 138 148 138 114 173 c 0,54,55
 101 186 101 186 101 197 c 2,56,-1
 101 199 l 1,57,58
 104 238 104 238 173 336 c 0,59,60
 191 362 191 362 201 378 c 1,61,-1
 201 382 l 1,62,-1
 201 383 l 1,63,-1
 201 394 l 1,64,-1
 191 397 l 2,0,1
EndSplineSet
EndChar

StartChar: t
Encoding: 78799 78799 23
Width: 527
VWidth: -41
Flags: W
LayerCount: 2
Fore
SplineSet
62 41 m 2,0,-1
 296 226 l 2,1,2
 305 232 305 232 313 231 c 1,3,-1
 315 231 l 2,4,5
 330 231 330 231 337 221 c 0,6,7
 344 210 344 210 344 198 c 128,-1,8
 344 186 344 186 333 178 c 2,9,-1
 166 47 l 1,10,-1
 447 47 l 2,11,12
 460 47 460 47 468 39 c 128,-1,13
 476 31 476 31 477 18 c 0,14,15
 478 4 478 4 468 -4 c 128,-1,16
 458 -12 458 -12 447 -12 c 2,17,-1
 81 -12 l 2,18,19
 68 -12 68 -12 59 -4 c 128,-1,20
 50 4 50 4 50 19 c 0,21,22
 51 33 51 33 62 41 c 2,0,-1
EndSplineSet
EndChar

StartChar: Z1
Encoding: 78820 78820 24
Width: 158
VWidth: -36
Flags: W
LayerCount: 2
Fore
SplineSet
79 649 m 0,0,1
 92 648 92 648 100 640 c 128,-1,2
 108 632 108 632 108 619 c 2,3,-1
 108 45 l 2,4,5
 108 32 108 32 100 23 c 128,-1,6
 92 14 92 14 79 14 c 128,-1,7
 66 14 66 14 58 23 c 128,-1,8
 50 32 50 32 50 45 c 2,9,-1
 50 619 l 2,10,11
 50 632 50 632 58 640 c 128,-1,12
 66 648 66 648 79 649 c 0,0,1
EndSplineSet
EndChar

StartChar: Z3
Encoding: 78826 78826 25
Width: 158
VWidth: -36
Flags: W
LayerCount: 2
Fore
SplineSet
79 740 m 128,-1,1
 92 740 92 740 100 731 c 128,-1,2
 108 722 108 722 108 710 c 2,3,-1
 108 3 l 2,4,5
 108 -10 108 -10 100 -18 c 128,-1,6
 92 -26 92 -26 79 -26 c 128,-1,7
 66 -26 66 -26 58 -18 c 128,-1,8
 50 -10 50 -10 50 3 c 2,9,-1
 50 710 l 2,10,11
 50 723 50 723 58 731.5 c 128,-1,0
 66 740 66 740 79 740 c 128,-1,1
EndSplineSet
EndChar

StartChar: Z4
Encoding: 78829 78829 26
Width: 362
VWidth: -41
Flags: W
LayerCount: 2
Fore
SplineSet
97 144 m 0,0,1
 118 136 118 136 118 114 c 0,2,3
 118 96 118 96 114 88 c 2,4,-1
 95 49 l 1,5,-1
 134 70 l 2,6,7
 169 88 169 88 193 116 c 1,8,-1
 195 118 l 1,9,10
 205 138 205 138 223.5 138 c 128,-1,11
 242 138 242 138 249 124 c 0,12,13
 260 106 260 106 264 91 c 0,14,15
 271 66 271 66 273 64 c 128,-1,16
 275 62 275 62 277 58 c 0,17,18
 280 51 280 51 296 40 c 128,-1,19
 312 29 312 29 312 16 c 128,-1,20
 312 3 312 3 305.5 -7 c 0,21,22
 299 -16 299 -16 286 -16 c 0,23,24
 254 -15 254 -15 223 40 c 1,25,-1
 214 55 l 1,26,-1
 202 44 l 1,27,28
 141 -4 141 -4 103 -4 c 0,29,30
 80 -4 80 -4 65 14 c 128,-1,31
 50 32 50 32 50 57.5 c 128,-1,32
 50 83 50 83 56.5 109.5 c 128,-1,33
 63 136 63 136 70 140 c 128,-1,34
 77 144 77 144 91 145 c 1,35,-1
 92 145 l 2,36,37
 94 145 94 145 97 144 c 0,0,1
EndSplineSet
EndChar

StartChar: Z7
Encoding: 78834 78834 27
Width: 158
VWidth: -68
Flags: W
LayerCount: 2
Fore
SplineSet
78 822 m 128,-1,1
 91 822 91 822 99 814 c 0,2,3
 108 806 108 806 108 800 c 128,-1,4
 108 794 108 794 108 23 c 0,5,6
 108 10 108 10 100 2 c 128,-1,7
 92 -6 92 -6 79 -6.5 c 0,8,9
 66 -6 66 -6 58 2 c 128,-1,10
 50 10 50 10 50 23 c 2,11,-1
 50 794 l 2,12,13
 50 807 50 807 57.5 814.5 c 128,-1,0
 65 822 65 822 78 822 c 128,-1,1
EndSplineSet
EndChar

StartChar: puaaF0000
Encoding: 983040 983040 28
Width: 798
VWidth: 0
Flags: W
LayerCount: 2
Fore
SplineSet
160 724 m 5,0,-1
 160 90 l 1,1,-1
 612 90 l 1,2,-1
 612 724 l 1,3,-1
 160 724 l 5,0,-1
118 748 m 1,4,-1
 652 748 l 1,5,-1
 652 62 l 1,6,-1
 118 62 l 1,7,-1
 118 748 l 1,4,-1
EndSplineSet
LCarets2: 1 0
EndChar

StartChar: puaaF0001
Encoding: 983041 983041 29
Width: 798
VWidth: 0
Flags: W
LayerCount: 2
Fore
SplineSet
160 724 m 5,0,-1
 160 90 l 1,1,-1
 612 90 l 1,2,-1
 612 724 l 1,3,-1
 160 724 l 5,0,-1
118 748 m 1,4,-1
 652 748 l 1,5,-1
 652 62 l 1,6,-1
 118 62 l 1,7,-1
 118 748 l 1,4,-1
EndSplineSet
EndChar

StartChar: puaaF0002
Encoding: 983042 983042 30
Width: 798
VWidth: 0
Flags: W
LayerCount: 2
Fore
SplineSet
160 724 m 5,0,-1
 160 90 l 1,1,-1
 612 90 l 1,2,-1
 612 724 l 1,3,-1
 160 724 l 5,0,-1
118 748 m 1,4,-1
 652 748 l 1,5,-1
 652 62 l 1,6,-1
 118 62 l 1,7,-1
 118 748 l 1,4,-1
EndSplineSet
LCarets2: 1 0
EndChar

StartChar: puaaF0003
Encoding: 983043 983043 31
Width: 798
VWidth: 0
Flags: W
LayerCount: 2
Fore
SplineSet
160 724 m 5,0,-1
 160 90 l 1,1,-1
 612 90 l 1,2,-1
 612 724 l 1,3,-1
 160 724 l 5,0,-1
118 748 m 1,4,-1
 652 748 l 1,5,-1
 652 62 l 1,6,-1
 118 62 l 1,7,-1
 118 748 l 1,4,-1
EndSplineSet
LCarets2: 1 0
EndChar

StartChar: puaaF0004
Encoding: 983044 983044 32
Width: 798
VWidth: 0
Flags: W
LayerCount: 2
Fore
SplineSet
160 724 m 5,0,-1
 160 90 l 1,1,-1
 612 90 l 1,2,-1
 612 724 l 1,3,-1
 160 724 l 5,0,-1
118 748 m 1,4,-1
 652 748 l 1,5,-1
 652 62 l 1,6,-1
 118 62 l 1,7,-1
 118 748 l 1,4,-1
EndSplineSet
EndChar

StartChar: puaaF0005
Encoding: 983045 983045 33
Width: 798
VWidth: 0
Flags: W
LayerCount: 2
Fore
SplineSet
160 724 m 5,0,-1
 160 90 l 1,1,-1
 612 90 l 1,2,-1
 612 724 l 1,3,-1
 160 724 l 5,0,-1
118 748 m 1,4,-1
 652 748 l 1,5,-1
 652 62 l 1,6,-1
 118 62 l 1,7,-1
 118 748 l 1,4,-1
EndSplineSet
EndChar

StartChar: puaaF0006
Encoding: 983046 983046 34
Width: 798
VWidth: 0
Flags: W
LayerCount: 2
Fore
SplineSet
160 724 m 5,0,-1
 160 90 l 1,1,-1
 612 90 l 1,2,-1
 612 724 l 1,3,-1
 160 724 l 5,0,-1
118 748 m 1,4,-1
 652 748 l 1,5,-1
 652 62 l 1,6,-1
 118 62 l 1,7,-1
 118 748 l 1,4,-1
EndSplineSet
EndChar

StartChar: puaaF0007
Encoding: 983047 983047 35
Width: 798
VWidth: 0
Flags: W
LayerCount: 2
Fore
SplineSet
160 724 m 5,0,-1
 160 90 l 1,1,-1
 612 90 l 1,2,-1
 612 724 l 1,3,-1
 160 724 l 5,0,-1
118 748 m 1,4,-1
 652 748 l 1,5,-1
 652 62 l 1,6,-1
 118 62 l 1,7,-1
 118 748 l 1,4,-1
EndSplineSet
EndChar

StartChar: puaaF0008
Encoding: 983048 983048 36
Width: 798
VWidth: 0
Flags: W
LayerCount: 2
Fore
SplineSet
160 724 m 5,0,-1
 160 90 l 1,1,-1
 612 90 l 1,2,-1
 612 724 l 1,3,-1
 160 724 l 5,0,-1
118 748 m 1,4,-1
 652 748 l 1,5,-1
 652 62 l 1,6,-1
 118 62 l 1,7,-1
 118 748 l 1,4,-1
EndSplineSet
EndChar

StartChar: puaaF0009
Encoding: 983049 983049 37
Width: 798
VWidth: 0
Flags: W
LayerCount: 2
Fore
SplineSet
160 724 m 5,0,-1
 160 90 l 1,1,-1
 612 90 l 1,2,-1
 612 724 l 1,3,-1
 160 724 l 5,0,-1
118 748 m 1,4,-1
 652 748 l 1,5,-1
 652 62 l 1,6,-1
 118 62 l 1,7,-1
 118 748 l 1,4,-1
EndSplineSet
EndChar

StartChar: puaaF000A
Encoding: 983050 983050 38
Width: 798
VWidth: 0
Flags: W
LayerCount: 2
Fore
SplineSet
160 724 m 5,0,-1
 160 90 l 1,1,-1
 612 90 l 1,2,-1
 612 724 l 1,3,-1
 160 724 l 5,0,-1
118 748 m 1,4,-1
 652 748 l 1,5,-1
 652 62 l 1,6,-1
 118 62 l 1,7,-1
 118 748 l 1,4,-1
EndSplineSet
EndChar

StartChar: puaaF000B
Encoding: 983051 983051 39
Width: 798
VWidth: 0
Flags: W
LayerCount: 2
Fore
SplineSet
160 724 m 5,0,-1
 160 90 l 1,1,-1
 612 90 l 1,2,-1
 612 724 l 1,3,-1
 160 724 l 5,0,-1
118 748 m 1,4,-1
 652 748 l 1,5,-1
 652 62 l 1,6,-1
 118 62 l 1,7,-1
 118 748 l 1,4,-1
EndSplineSet
EndChar

StartChar: puaaF000C
Encoding: 983052 983052 40
Width: 798
VWidth: 0
Flags: W
LayerCount: 2
Fore
SplineSet
160 724 m 5,0,-1
 160 90 l 1,1,-1
 612 90 l 1,2,-1
 612 724 l 1,3,-1
 160 724 l 5,0,-1
118 748 m 1,4,-1
 652 748 l 1,5,-1
 652 62 l 1,6,-1
 118 62 l 1,7,-1
 118 748 l 1,4,-1
EndSplineSet
EndChar

StartChar: puaaF000D
Encoding: 983053 983053 41
Width: 798
VWidth: 0
Flags: W
LayerCount: 2
Fore
SplineSet
160 724 m 5,0,-1
 160 90 l 1,1,-1
 612 90 l 1,2,-1
 612 724 l 1,3,-1
 160 724 l 5,0,-1
118 748 m 1,4,-1
 652 748 l 1,5,-1
 652 62 l 1,6,-1
 118 62 l 1,7,-1
 118 748 l 1,4,-1
EndSplineSet
EndChar

StartChar: puaaF000E
Encoding: 983054 983054 42
Width: 798
VWidth: 0
Flags: W
LayerCount: 2
Fore
SplineSet
160 724 m 5,0,-1
 160 90 l 1,1,-1
 612 90 l 1,2,-1
 612 724 l 1,3,-1
 160 724 l 5,0,-1
118 748 m 1,4,-1
 652 748 l 1,5,-1
 652 62 l 1,6,-1
 118 62 l 1,7,-1
 118 748 l 1,4,-1
EndSplineSet
EndChar

StartChar: ibisfp
Encoding: 983055 983055 43
Width: 634
VWidth: 0
Flags: W
LayerCount: 2
Fore
SplineSet
291.740234375 414.346679688 m 0,0,1
 288.453125 453.200195312 288.453125 453.200195312 289.247070312 537.438476562 c 128,-1,2
 290.04296875 621.676757812 290.04296875 621.676757812 293.634765625 645.331054688 c 0,3,4
 297.126953125 668.325195312 297.126953125 668.325195312 304.850585938 685.024414062 c 128,-1,5
 312.575195312 701.721679688 312.575195312 701.721679688 319.673828125 702.05859375 c 0,6,7
 327.224609375 702.416015625 327.224609375 702.416015625 336.94140625 686.204101562 c 128,-1,8
 346.659179688 669.995117188 346.659179688 669.995117188 350 648 c 0,9,10
 353.025390625 617.274414062 353.025390625 617.274414062 351.65234375 539.689453125 c 128,-1,11
 350.280273438 462.10546875 350.280273438 462.10546875 347.34765625 417.014648438 c 0,12,13
 345.815429688 393.434570312 345.815429688 393.434570312 341.048828125 374.903320312 c 128,-1,14
 336.282226562 356.373046875 336.282226562 356.373046875 330.848632812 347.551757812 c 128,-1,15
 325.4140625 338.729492188 325.4140625 338.729492188 320.5390625 338.49609375 c 128,-1,16
 315.607421875 338.258789062 315.607421875 338.258789062 309.985351562 346.213867188 c 128,-1,17
 304.36328125 354.169921875 304.36328125 354.169921875 299.10546875 372.239257812 c 128,-1,18
 293.848632812 390.305664062 293.848632812 390.305664062 291.740234375 414.346679688 c 0,0,1
289.563476562 205.049804688 m 0,19,20
 289 241 289 241 297 274 c 4,21,22
 303 299 303 299 314.948242188 298.0703125 c 0,23,24
 320 298 320 298 327.223632812 283.751953125 c 0,25,26
 334 270 334 270 339.236328125 246.604492188 c 0,27,28
 344 224 344 224 344.362304688 201.8203125 c 0,29,30
 344 164 344 164 336 131 c 0,31,32
 323 80 323 80 314.098632812 80.5732421875 c 0,33,34
 300 82 300 82 295 131 c 0,35,36
 290 178 290 178 289.563476562 205.049804688 c 0,19,20
209.268554688 363.825195312 m 0,37,38
 187.366210938 382.448242188 187.366210938 382.448242188 146.76953125 426.399414062 c 128,-1,39
 106.172851562 470.350585938 106.172851562 470.350585938 97.09765625 485.319335938 c 0,40,41
 87.787109375 500.671875 87.787109375 500.671875 83.87890625 516.840820312 c 128,-1,42
 79.970703125 533.010742188 79.970703125 533.010742188 84.7861328125 538.358398438 c 0,43,44
 89.623046875 543.491210938 89.623046875 543.491210938 106.41015625 539.432617188 c 128,-1,45
 123.1953125 535.375976562 123.1953125 535.375976562 137.291992188 525.311523438 c 0,46,47
 158.719726562 510.016601562 158.719726562 510.016601562 245.842773438 397.790039062 c 0,48,49
 283.91796875 348.744140625 283.91796875 348.744140625 271.852539062 336.7265625 c 0,50,51
 266.55859375 331.454101562 266.55859375 331.454101562 248.3046875 338.803710938 c 128,-1,52
 230.051757812 346.153320312 230.051757812 346.153320312 209.268554688 363.825195312 c 0,37,38
395.06640625 397.428710938 m 0,53,54
 414.9453125 420.596679688 414.9453125 420.596679688 458.533203125 462.340820312 c 128,-1,55
 502.12109375 504.086914062 502.12109375 504.086914062 516.467773438 512.696289062 c 0,56,57
 531.865234375 521.938476562 531.865234375 521.938476562 548.049804688 525.772460938 c 128,-1,58
 564.236328125 529.60546875 564.236328125 529.60546875 569.561523438 524.766601562 c 0,59,60
 581.280273438 507.014648438 581.280273438 507.014648438 556.278320312 472.321289062 c 0,61,62
 539.470703125 449.002929688 539.470703125 449.002929688 427.014648438 362.510742188 c 0,63,64
 379.537109375 326.000976562 379.537109375 326.000976562 367.084960938 338.614257812 c 0,65,66
 355.055664062 350.805664062 355.055664062 350.805664062 395.06640625 397.428710938 c 0,53,54
EndSplineSet
EndChar

StartChar: Aa1Z4
Encoding: 1114112 -1 44
Width: 504
VWidth: 910
Flags: W
LayerCount: 2
Fore
SplineSet
424 768 m 0,0,1
 438 765 438 765 448 751 c 0,2,3
 454 742 454 742 454 733 c 0,4,5
 454 718 454 718 436 710 c 2,6,-1
 140 580 l 1,7,-1
 364 419 l 2,8,9
 376 410 376 410 375 394 c 0,10,11
 375 380 375 380 364 372 c 2,12,-1
 140 197 l 1,13,-1
 435 79 l 2,14,15
 454 71 454 71 454 51 c 0,16,17
 454 46 454 46 451 40 c 0,18,19
 444 22 444 22 427 22 c 2,20,21
 427 22 427 22 425 22 c 0,22,23
 419 22 419 22 412 24 c 2,24,-1
 71 160 l 2,25,26
 50 169 50 169 50 189 c 0,27,28
 50 204 50 204 63 212 c 1,29,-1
 297 394 l 1,30,-1
 62 563 l 2,31,32
 50 572 50 572 50 588 c 0,33,34
 50 609 50 609 59 612 c 0,35,36
 69 616 69 616 198 672 c 0,37,38
 420 768 420 768 424 768 c 0,0,1
EndSplineSet
Ligature2: "'liga' Demotic Basic Shapes" Z4 Aa1
EndChar

StartChar: N35Z7W24
Encoding: 1114113 -1 45
Width: 644
VWidth: 891
Flags: W
LayerCount: 2
Fore
SplineSet
148 366 m 0,0,1
 148 385 148 385 199 416 c 0,2,3
 282 468 282 468 373 472 c 0,4,5
 381 473 381 473 388 473 c 0,6,7
 420 472 420 472 449 463 c 0,8,9
 490 450 490 450 522 420 c 0,10,11
 551 394 551 394 570 356 c 0,12,13
 594 306 594 306 594 250 c 0,14,15
 594 234 594 234 592 215 c 0,16,17
 584 136 584 136 541 83 c 0,18,19
 489 18 489 18 405 18 c 2,20,21
 405 18 405 18 402 18 c 0,22,23
 318 18 318 18 224 82 c 1,24,-1
 216 88 l 1,25,-1
 98 8 l 2,26,27
 90 3 90 3 80 3 c 0,28,29
 63 3 63 3 55 16 c 0,30,31
 50 24 50 24 50 34 c 0,32,33
 51 50 51 50 63 59 c 2,34,-1
 198 147 l 2,35,36
 205 152 205 152 215 152 c 128,-1,37
 225 152 225 152 252 132 c 0,38,39
 326 78 326 78 398 78 c 0,40,41
 408 78 408 78 415 79 c 0,42,43
 461 84 461 84 495 126 c 0,44,45
 525 164 525 164 532 214 c 1,46,-1
 532 215 l 1,47,-1
 532 216 l 1,48,49
 534 233 534 233 534 253 c 0,50,51
 534 297 534 297 514 335 c 0,52,53
 487 388 487 388 438 404 c 0,54,55
 415 412 415 412 386 412 c 0,56,57
 350 412 350 412 228 357 c 0,58,59
 185 338 185 338 176 338 c 0,60,61
 158 338 158 338 151 351 c 0,62,63
 148 358 148 358 148 366 c 0,0,1
EndSplineSet
Ligature2: "'liga' Demotic Basic Shapes" Z7 W24 n
EndChar

StartChar: E23Z1
Encoding: 1114114 -1 46
Width: 816
VWidth: 908
Flags: W
LayerCount: 2
Fore
SplineSet
734 735 m 0,0,1
 743 735 743 735 750 731 c 0,2,3
 766 722 766 722 766 705 c 0,4,5
 766 696 766 696 763 693 c 0,6,7
 758 687 758 687 716 604 c 0,8,9
 676 524 676 524 659 492 c 0,10,11
 637 453 637 453 606 405 c 0,12,13
 567 346 567 346 528 299 c 0,14,15
 361 97 361 97 94 22 c 0,16,17
 83 19 83 19 78 19 c 0,18,19
 70 19 70 19 62.5 25.5 c 128,-1,20
 55 32 55 32 52 41 c 0,21,22
 50 46 50 46 50 51 c 0,23,24
 50 61 50 61 56 68 c 128,-1,25
 62 75 62 75 81 80 c 0,26,27
 96 84 96 84 127 97 c 0,28,29
 145 104 145 104 154 108 c 0,30,31
 166 114 166 114 247 155 c 1,32,-1
 237 169 l 2,33,34
 201 219 201 219 181 262 c 0,35,36
 172 282 172 282 172 294 c 0,37,38
 172 310 172 310 188 316 c 0,39,40
 195 319 195 319 203 319 c 0,41,42
 223 319 223 319 243 275 c 0,43,44
 261 234 261 234 299 191 c 1,45,-1
 307 181 l 1,46,-1
 318 188 l 1,47,48
 410 249 410 249 483 339 c 0,49,50
 517 381 517 381 564 456 c 0,51,52
 584 487 584 487 596 507 c 0,53,54
 620 548 620 548 674 651 c 0,55,56
 699 700 699 700 704 710 c 0,57,58
 716 735 716 735 734 735 c 0,0,1
EndSplineSet
Ligature2: "'liga' Demotic Basic Shapes" Z1 E23
EndChar

StartChar: M17Z7
Encoding: 1114115 -1 47
Width: 550
VWidth: 887
Flags: W
LayerCount: 2
Fore
SplineSet
471 412 m 128,-1,1
 484 412 484 412 492 403 c 128,-1,2
 500 394 500 394 500 381 c 2,3,-1
 500 30 l 2,4,5
 500 17 500 17 492 9 c 0,6,7
 484 0 484 0 471 0 c 128,-1,8
 458 0 458 0 450 9 c 128,-1,9
 442 18 442 18 442 30 c 2,10,-1
 442 381 l 2,11,12
 442 394 442 394 450 403 c 128,-1,0
 458 412 458 412 471 412 c 128,-1,1
62 9 m 0,13,14
 49 19 49 19 50 36 c 0,15,16
 50 44 50 44 53 49 c 0,17,18
 57 59 57 59 86 68 c 0,19,20
 184 99 184 99 220 190 c 0,21,22
 236 232 236 232 236 282 c 0,23,24
 236 326 236 326 221 375 c 0,25,26
 220 379 220 379 220 383 c 0,27,28
 220 392 220 392 224 398 c 0,29,30
 230 407 230 407 242 411 c 0,31,32
 246 412 246 412 249 412 c 2,33,-1
 251 412 l 2,34,35
 262 412 262 412 269 407 c 128,-1,36
 276 402 276 402 283 373 c 0,37,38
 294 329 294 329 294 282 c 0,39,40
 294 219 294 219 274 167 c 0,41,42
 229 51 229 51 105 10 c 0,43,44
 85 3 85 3 76 4 c 0,45,46
 69 4 69 4 62 9 c 0,13,14
EndSplineSet
Ligature2: "'liga' Demotic Basic Shapes" Z7 M17
EndChar

StartChar: Z1O49b
Encoding: 1114116 -1 48
Width: 454
VWidth: 968
Flags: W
LayerCount: 2
Fore
SplineSet
116 154 m 128,-1,1
 142 154 142 154 161 137 c 0,2,3
 182 119 182 119 182 93 c 128,-1,4
 182 67 182 67 162 50 c 0,5,6
 143 33 143 33 116 33 c 128,-1,7
 89 33 89 33 70 50 c 0,8,9
 50 67 50 67 50 93 c 128,-1,10
 50 119 50 119 71 137 c 0,11,0
 90 154 90 154 116 154 c 128,-1,1
374 827 m 128,-1,13
 387 827 387 827 395.5 818.5 c 128,-1,14
 404 810 404 810 404 797 c 2,15,-1
 404 50 l 2,16,17
 404 37 404 37 395.5 28.5 c 128,-1,18
 387 20 387 20 374 20 c 128,-1,19
 361 20 361 20 352 28 c 0,20,21
 343 37 343 37 343 50 c 2,22,-1
 343 797 l 2,23,24
 343 810 343 810 352 819 c 0,25,12
 361 827 361 827 374 827 c 128,-1,13
EndSplineSet
LCarets2: 1 0
Ligature2: "'liga' Demotic Default Ligatures-1" O49 Z1
EndChar

StartChar: O49
Encoding: 78486 78486 50
Width: 398
VWidth: -40
Flags: W
LayerCount: 2
Fore
SplineSet
199 212 m 128,-1,1
 161 212 161 212 135 188 c 128,-1,2
 109 164 109 164 109 131.5 c 0,3,4
 109 100 109 100 135 76 c 128,-1,5
 161 52 161 52 199 52 c 128,-1,6
 237 52 237 52 263 76 c 128,-1,7
 289 100 289 100 289 132.5 c 0,8,9
 289 164 289 164 263 188 c 128,-1,0
 237 212 237 212 199 212 c 128,-1,1
199 273 m 128,-1,11
 260 273 260 273 304 232 c 128,-1,12
 348 191 348 191 348 132 c 128,-1,13
 348 73 348 73 304 32 c 128,-1,14
 260 -9 260 -9 199 -9 c 128,-1,15
 138 -9 138 -9 94 32 c 128,-1,16
 50 73 50 73 50 132 c 128,-1,17
 50 191 50 191 94 232 c 128,-1,10
 138 273 138 273 199 273 c 128,-1,11
EndSplineSet
EndChar

StartChar: v
Encoding: 78821 78821 51
Width: 734
VWidth: -39
Flags: W
LayerCount: 2
Fore
SplineSet
317 338 m 2,0,1
 317 363 317 363 342 368 c 1,2,-1
 346 368 l 2,3,4
 358 368 358 368 366.5 360.5 c 128,-1,5
 375 353 375 353 380 314 c 0,6,7
 392 210 392 210 453 182 c 0,8,9
 471 174 471 174 491 174 c 0,10,11
 535 174 535 174 576 203 c 0,12,13
 594 216 594 216 613 223 c 1,14,-1
 611 235 l 2,15,16
 601 291 601 291 591.5 318 c 0,17,18
 582 344 582 344 582 352 c 0,19,20
 582 370 582 370 603 379 c 0,21,22
 606 380 606 380 609 380 c 2,23,-1
 611 380 l 2,24,25
 621 380 621 380 628.5 375.5 c 128,-1,26
 636 371 636 371 643.5 349 c 128,-1,27
 651 327 651 327 659 301 c 0,28,29
 667 274 667 274 673 256 c 0,30,31
 684 222 684 222 684 194 c 0,32,33
 684 140 684 140 674.5 89 c 128,-1,34
 665 38 665 38 663 24 c 0,35,36
 659 -2 659 -2 633 -2 c 2,37,-1
 627 -2 l 1,38,39
 603 3 603 3 603 27 c 0,40,41
 603 37 603 37 608.5 68.5 c 128,-1,42
 614 100 614 100 625 166 c 1,43,-1
 599 153 l 1,44,45
 534 116 534 116 494 116 c 0,46,47
 438 115 438 115 415 136 c 0,48,49
 410 141 410 141 403.5 148.5 c 128,-1,50
 397 156 397 156 388 168 c 1,51,-1
 379 185 l 1,52,-1
 365 171 l 2,53,54
 364 170 364 170 359 166 c 0,55,56
 287 116 287 116 227 115 c 0,57,58
 195 115 195 115 165 129 c 0,59,60
 70 172 70 172 50 336 c 1,61,-1
 50 341 l 2,62,63
 50 352 50 352 57.5 360 c 128,-1,64
 65 368 65 368 76 370 c 1,65,-1
 80 370 l 2,66,67
 92 370 92 370 100 362.5 c 128,-1,68
 108 355 108 355 112 318 c 0,69,70
 125 213 125 213 188 184 c 0,71,72
 206 176 206 176 225.5 176 c 128,-1,73
 245 176 245 176 287.5 197 c 128,-1,74
 330 218 330 218 350 226 c 1,75,-1
 345 239 l 2,76,77
 321 304 321 304 317 334 c 1,78,-1
 317 338 l 2,0,1
EndSplineSet
EndChar

StartChar: A14
Encoding: 77840 77840 52
Width: 640
VWidth: -35
Flags: W
LayerCount: 2
Fore
SplineSet
560 794 m 2,0,-1
 561 794 l 2,1,2
 572 794 572 794 582 786 c 128,-1,3
 592 778 592 778 591.5 766.5 c 128,-1,4
 591 755 591 755 582 744 c 2,5,-1
 123 256 l 1,6,-1
 302 76 l 2,7,8
 311 67 311 67 311 54 c 0,9,10
 312 40 312 40 302 32 c 128,-1,11
 292 24 292 24 280 24 c 128,-1,12
 268 24 268 24 264 28 c 0,13,14
 259 32 259 32 221 71 c 0,15,16
 50 242 50 242 50 261 c 0,17,18
 50 265 50 265 60 276 c 2,19,-1
 540 785 l 1,20,21
 547 794 547 794 560 794 c 2,0,-1
EndSplineSet
EndChar

StartChar: dlt
Encoding: 12298 12298 53
Width: 486
GlyphClass: 3
Flags: W
LayerCount: 2
Fore
SplineSet
310 0 m 0,0,1
 297 0 297 0 290 11 c 2,2,-1
 54 355 l 2,3,4
 50 360 50 360 50 369.5 c 128,-1,5
 50 379 50 379 54 384 c 2,6,-1
 290 728 l 2,7,8
 297 738 297 738 311 738 c 0,9,10
 322 738 322 738 329 731 c 0,11,12
 336 724 336 724 336 714 c 0,13,14
 336 706 336 706 331 699 c 2,15,-1
 106 370 l 1,16,-1
 331 40 l 2,17,18
 336 33 336 33 336 25 c 0,19,20
 336 15 336 15 329 8 c 0,21,22
 321 0 321 0 310 0 c 0,0,1
410 0 m 0,23,24
 397 0 397 0 390 11 c 2,25,-1
 154 355 l 2,26,27
 150 360 150 360 150 369.5 c 128,-1,28
 150 379 150 379 154 384 c 2,29,-1
 390 728 l 2,30,31
 397 738 397 738 411 738 c 0,32,33
 422 738 422 738 429 731 c 0,34,35
 436 724 436 724 436 714 c 0,36,37
 436 706 436 706 431 699 c 2,38,-1
 206 370 l 1,39,-1
 431 40 l 2,40,41
 436 33 436 33 436 25 c 0,42,43
 436 15 436 15 429 8 c 0,44,45
 421 0 421 0 410 0 c 0,23,24
EndSplineSet
Validated: 1
EndChar

StartChar: dgt
Encoding: 12299 12299 54
Width: 486
GlyphClass: 3
Flags: W
LayerCount: 2
Fore
SplineSet
176 0 m 2,0,1
 176 0 176 0 175 0 c 2,2,3
 164 0 164 0 157 7 c 0,4,5
 150 14 150 14 150 26 c 0,6,7
 150 35 150 35 154 40 c 2,8,9
 154 40 154 40 380 370 c 1,10,-1
 154 699 l 2,11,12
 150 704 150 704 150 713 c 0,13,14
 150 724 150 724 157 731 c 0,15,16
 164 738 164 738 175 738 c 0,17,18
 189 738 189 738 196 728 c 2,19,20
 196 728 196 728 432 384 c 2,21,22
 436 376 436 376 436 369.5 c 128,-1,23
 436 363 436 363 432 355 c 2,24,25
 432 355 432 355 196 11 c 2,26,27
 189 0 189 0 176 0 c 2,0,1
76 0 m 2,28,29
 76 0 76 0 75 0 c 2,30,31
 64 0 64 0 57 7 c 0,32,33
 50 14 50 14 50 26 c 0,34,35
 50 35 50 35 54 40 c 2,36,37
 54 40 54 40 280 370 c 1,38,-1
 54 699 l 2,39,40
 50 704 50 704 50 713 c 0,41,42
 50 724 50 724 57 731 c 0,43,44
 64 738 64 738 75 738 c 0,45,46
 89 738 89 738 96 728 c 2,47,48
 96 728 96 728 332 384 c 2,49,50
 336 376 336 376 336 369.5 c 128,-1,51
 336 363 336 363 332 355 c 2,52,53
 332 355 332 355 96 11 c 2,54,55
 89 0 89 0 76 0 c 2,28,29
EndSplineSet
Validated: 1
EndChar

StartChar: angleleft
Encoding: 9001 9001 55
Width: 386
GlyphClass: 2
Flags: W
LayerCount: 2
Fore
SplineSet
310 738 m 0,0,1
 321 738 321 738 329 731 c 0,2,3
 336 724 336 724 336 715 c 0,4,5
 336 707 336 707 331 700 c 2,6,7
 331 700 331 700 106 370 c 1,8,-1
 331 40 l 2,9,10
 336 33 336 33 336 24 c 0,11,12
 336 14 336 14 329 7 c 128,-1,13
 322 0 322 0 311 0 c 0,14,15
 297 0 297 0 290 11 c 2,16,17
 290 11 290 11 54 355 c 2,18,19
 50 360 50 360 50 369.5 c 128,-1,20
 50 379 50 379 54 384 c 2,21,22
 54 384 54 384 290 728 c 2,23,24
 297 738 297 738 310 738 c 0,0,1
EndSplineSet
Validated: 1
EndChar

StartChar: angleright
Encoding: 9002 9002 56
Width: 386
GlyphClass: 2
Flags: W
LayerCount: 2
Fore
SplineSet
74 738 m 2,0,1
 74 738 74 738 75 738 c 2,2,3
 90 738 90 738 96 728 c 2,4,5
 96 728 96 728 332 384 c 2,6,7
 336 376 336 376 336 369.5 c 128,-1,8
 336 363 336 363 332 355 c 2,9,10
 332 355 332 355 96 11 c 2,11,12
 89 0 89 0 75 0 c 0,13,14
 64 0 64 0 57 7 c 0,15,16
 50 14 50 14 50 26 c 0,17,18
 50 35 50 35 54 40 c 2,19,20
 54 40 54 40 280 370 c 1,21,-1
 54 700 l 2,22,23
 50 705 50 705 50 713 c 0,24,25
 50 724 50 724 57 731 c 128,-1,26
 64 738 64 738 74 738 c 2,0,1
EndSplineSet
Validated: 1
EndChar

StartChar: xVJN
Encoding: 78896 78896 57
Width: 650
GlyphClass: 2
Flags: W
LayerCount: 2
Fore
SplineSet
50 225 m 1,0,-1
 50 325 l 1,1,-1
 100 325 l 1,2,-1
 100 225 l 1,3,-1
 50 225 l 1,0,-1
50 425 m 1,4,-1
 50 525 l 1,5,-1
 100 525 l 1,6,-1
 100 425 l 1,7,-1
 50 425 l 1,4,-1
50 625 m 1,8,-1
 50 750 l 1,9,-1
 175 750 l 1,10,-1
 175 700 l 1,11,-1
 100 700 l 1,12,-1
 100 625 l 1,13,-1
 50 625 l 1,8,-1
275 700 m 1,14,-1
 275 750 l 1,15,-1
 375 750 l 1,16,-1
 375 700 l 1,17,-1
 275 700 l 1,14,-1
550 625 m 1,18,-1
 550 700 l 1,19,-1
 475 700 l 1,20,-1
 475 750 l 1,21,-1
 600 750 l 1,22,-1
 600 625 l 1,23,-1
 550 625 l 1,18,-1
550 425 m 1,24,-1
 550 525 l 1,25,-1
 600 525 l 1,26,-1
 600 425 l 1,27,-1
 550 425 l 1,24,-1
550 225 m 1,28,-1
 550 325 l 1,29,-1
 600 325 l 1,30,-1
 600 225 l 1,31,-1
 550 225 l 1,28,-1
275 0 m 1,32,-1
 275 50 l 1,33,-1
 375 50 l 1,34,-1
 375 0 l 1,35,-1
 275 0 l 1,32,-1
475 0 m 1,36,-1
 475 50 l 1,37,-1
 550 50 l 1,38,-1
 550 125 l 1,39,-1
 600 125 l 1,40,-1
 600 0 l 1,41,-1
 475 0 l 1,36,-1
50 0 m 1,42,-1
 50 125 l 1,43,-1
 100 125 l 1,44,-1
 100 50 l 1,45,-1
 175 50 l 1,46,-1
 175 0 l 1,47,-1
 50 0 l 1,42,-1
326 555 m 128,-1,49
 341 555 341 555 352.5 543.5 c 128,-1,50
 364 532 364 532 364 516.5 c 128,-1,51
 364 501 364 501 352 490 c 0,52,53
 341 479 341 479 326 479 c 128,-1,54
 311 479 311 479 300 490 c 0,55,56
 288 501 288 501 288 516.5 c 128,-1,57
 288 532 288 532 299.5 543.5 c 128,-1,48
 311 555 311 555 326 555 c 128,-1,49
326 240 m 128,-1,59
 341 240 341 240 352.5 228.5 c 128,-1,60
 364 217 364 217 364 201.5 c 128,-1,61
 364 186 364 186 352 175 c 0,62,63
 341 164 341 164 326 164 c 128,-1,64
 311 164 311 164 300 175 c 0,65,66
 288 186 288 186 288 201.5 c 128,-1,67
 288 217 288 217 299.5 228.5 c 128,-1,58
 311 240 311 240 326 240 c 128,-1,59
EndSplineSet
EndChar

StartChar: xHJN
Encoding: 78897 78897 58
Width: 850
GlyphClass: 2
Flags: W
LayerCount: 2
Fore
SplineSet
50 0 m 1,0,-1
 50 125 l 1,1,-1
 100 125 l 1,2,-1
 100 50 l 1,3,-1
 175 50 l 1,4,-1
 175 0 l 1,5,-1
 50 0 l 1,0,-1
275 0 m 1,6,-1
 275 50 l 1,7,-1
 375 50 l 1,8,-1
 375 0 l 1,9,-1
 275 0 l 1,6,-1
475 0 m 1,10,-1
 475 50 l 1,11,-1
 575 50 l 1,12,-1
 575 0 l 1,13,-1
 475 0 l 1,10,-1
675 0 m 1,14,-1
 675 50 l 1,15,-1
 750 50 l 1,16,-1
 750 125 l 1,17,-1
 800 125 l 1,18,-1
 800 0 l 1,19,-1
 675 0 l 1,14,-1
50 225 m 1,20,-1
 50 325 l 1,21,-1
 100 325 l 1,22,-1
 100 225 l 1,23,-1
 50 225 l 1,20,-1
750 225 m 1,24,-1
 750 325 l 1,25,-1
 800 325 l 1,26,-1
 800 225 l 1,27,-1
 750 225 l 1,24,-1
50 425 m 1,28,-1
 50 525 l 1,29,-1
 100 525 l 1,30,-1
 100 425 l 1,31,-1
 50 425 l 1,28,-1
750 425 m 1,32,-1
 750 525 l 1,33,-1
 800 525 l 1,34,-1
 800 425 l 1,35,-1
 750 425 l 1,32,-1
50 625 m 1,36,-1
 50 750 l 1,37,-1
 175 750 l 1,38,-1
 175 700 l 1,39,-1
 100 700 l 1,40,-1
 100 625 l 1,41,-1
 50 625 l 1,36,-1
750 625 m 1,42,-1
 750 700 l 1,43,-1
 675 700 l 1,44,-1
 675 750 l 1,45,-1
 800 750 l 1,46,-1
 800 625 l 1,47,-1
 750 625 l 1,42,-1
275 700 m 1,48,-1
 275 750 l 1,49,-1
 375 750 l 1,50,-1
 375 700 l 1,51,-1
 275 700 l 1,48,-1
475 700 m 1,52,-1
 475 750 l 1,53,-1
 575 750 l 1,54,-1
 575 700 l 1,55,-1
 475 700 l 1,52,-1
319 200 m 0,56,57
 308 200 308 200 301 207 c 128,-1,58
 294 214 294 214 294 225 c 0,59,60
 294 234 294 234 298 239 c 2,61,-1
 376 357 l 1,62,-1
 270 357 l 1,63,-1
 269 357 l 2,64,65
 258 357 258 357 251 365 c 0,66,67
 244 372 244 372 244 382 c 0,68,69
 244 392 244 392 251 399 c 0,70,71
 258 407 258 407 269 407 c 2,72,-1
 270 407 l 1,73,-1
 400 407 l 1,74,-1
 400 538 l 2,75,76
 400 548 400 548 407 555 c 0,77,78
 414 563 414 563 425 563 c 0,79,80
 436 563 436 563 443 555 c 0,81,82
 450 548 450 548 450 538 c 2,83,-1
 450 407 l 1,84,-1
 580 407 l 1,85,-1
 581 407 l 2,86,87
 592 407 592 407 599 399 c 0,88,89
 606 392 606 392 606 382 c 0,90,91
 606 372 606 372 599 365 c 0,92,93
 592 357 592 357 581 357 c 2,94,-1
 580 357 l 1,95,-1
 472 357 l 1,96,-1
 542 240 l 2,97,98
 545 234 545 234 545 227 c 0,99,100
 545 216 545 216 537 208 c 0,101,102
 530 201 530 201 519 201 c 0,103,104
 504 201 504 201 498 214 c 1,105,-1
 424 338 l 1,106,-1
 340 212 l 2,107,108
 333 200 333 200 319 200 c 0,56,57
EndSplineSet
EndChar

StartChar: xITS
Encoding: 78898 78898 59
Width: 850
GlyphClass: 2
Flags: W
LayerCount: 2
Fore
SplineSet
50 750 m 1,0,-1
 175 750 l 1,1,-1
 175 700 l 1,2,-1
 100 700 l 1,3,-1
 100 625 l 1,4,-1
 50 625 l 1,5,-1
 50 750 l 1,0,-1
275 750 m 1,6,-1
 375 750 l 1,7,-1
 375 700 l 1,8,-1
 275 700 l 1,9,-1
 275 750 l 1,6,-1
475 750 m 1,10,-1
 575 750 l 1,11,-1
 575 700 l 1,12,-1
 475 700 l 1,13,-1
 475 750 l 1,10,-1
675 750 m 1,14,-1
 800 750 l 1,15,-1
 800 625 l 1,16,-1
 750 625 l 1,17,-1
 750 700 l 1,18,-1
 675 700 l 1,19,-1
 675 750 l 1,14,-1
180 620 m 1,20,-1
 354 620 l 1,21,-1
 380 620 l 1,22,-1
 380 420 l 1,23,-1
 180 420 l 1,24,-1
 180 620 l 1,20,-1
484 620 m 1,25,-1
 684 620 l 1,26,-1
 684 126 l 1,27,-1
 180 126 l 1,28,-1
 180 300 l 1,29,-1
 180 326 l 1,30,-1
 484 326 l 1,31,-1
 484 620 l 1,25,-1
230 570 m 1,32,-1
 230 470 l 1,33,-1
 330 470 l 1,34,-1
 330 570 l 1,35,-1
 230 570 l 1,32,-1
534 570 m 1,36,-1
 534 276 l 1,37,-1
 230 276 l 1,38,-1
 230 176 l 1,39,-1
 634 176 l 1,40,-1
 634 570 l 1,41,-1
 534 570 l 1,36,-1
50 525 m 1,42,-1
 100 525 l 1,43,-1
 100 425 l 1,44,-1
 50 425 l 1,45,-1
 50 525 l 1,42,-1
750 525 m 1,46,-1
 800 525 l 1,47,-1
 800 425 l 1,48,-1
 750 425 l 1,49,-1
 750 525 l 1,46,-1
50 325 m 1,50,-1
 100 325 l 1,51,-1
 100 225 l 1,52,-1
 50 225 l 1,53,-1
 50 325 l 1,50,-1
750 325 m 1,54,-1
 800 325 l 1,55,-1
 800 225 l 1,56,-1
 750 225 l 1,57,-1
 750 325 l 1,54,-1
50 125 m 1,58,-1
 100 125 l 1,59,-1
 100 50 l 1,60,-1
 175 50 l 1,61,-1
 175 0 l 1,62,-1
 50 0 l 1,63,-1
 50 125 l 1,58,-1
750 125 m 1,64,-1
 800 125 l 1,65,-1
 800 0 l 1,66,-1
 675 0 l 1,67,-1
 675 50 l 1,68,-1
 750 50 l 1,69,-1
 750 125 l 1,64,-1
275 50 m 1,70,-1
 375 50 l 1,71,-1
 375 0 l 1,72,-1
 275 0 l 1,73,-1
 275 50 l 1,70,-1
475 50 m 1,74,-1
 575 50 l 1,75,-1
 575 0 l 1,76,-1
 475 0 l 1,77,-1
 475 50 l 1,74,-1
EndSplineSet
EndChar

StartChar: xIBS
Encoding: 78899 78899 60
Width: 850
GlyphClass: 2
Flags: W
LayerCount: 2
Fore
SplineSet
50 750 m 1,0,-1
 175 750 l 1,1,-1
 175 700 l 1,2,-1
 100 700 l 1,3,-1
 100 625 l 1,4,-1
 50 625 l 1,5,-1
 50 750 l 1,0,-1
275 750 m 1,6,-1
 375 750 l 1,7,-1
 375 700 l 1,8,-1
 275 700 l 1,9,-1
 275 750 l 1,6,-1
475 750 m 1,10,-1
 575 750 l 1,11,-1
 575 700 l 1,12,-1
 475 700 l 1,13,-1
 475 750 l 1,10,-1
675 750 m 1,14,-1
 800 750 l 1,15,-1
 800 625 l 1,16,-1
 750 625 l 1,17,-1
 750 700 l 1,18,-1
 675 700 l 1,19,-1
 675 750 l 1,14,-1
180 624 m 1,20,-1
 684 624 l 1,21,-1
 684 130 l 1,22,-1
 484 130 l 1,23,-1
 484 424 l 1,24,-1
 204 424 l 1,25,-1
 180 424 l 1,26,-1
 180 624 l 1,20,-1
230 574 m 1,27,-1
 230 474 l 1,28,-1
 534 474 l 1,29,-1
 534 180 l 1,30,-1
 634 180 l 1,31,-1
 634 574 l 1,32,-1
 230 574 l 1,27,-1
50 525 m 1,33,-1
 100 525 l 1,34,-1
 100 425 l 1,35,-1
 50 425 l 1,36,-1
 50 525 l 1,33,-1
750 525 m 1,37,-1
 800 525 l 1,38,-1
 800 425 l 1,39,-1
 750 425 l 1,40,-1
 750 525 l 1,37,-1
180 330 m 1,41,-1
 380 330 l 1,42,-1
 380 154 l 1,43,-1
 380 130 l 1,44,-1
 180 130 l 1,45,-1
 180 330 l 1,41,-1
50 325 m 1,46,-1
 100 325 l 1,47,-1
 100 225 l 1,48,-1
 50 225 l 1,49,-1
 50 325 l 1,46,-1
750 325 m 1,50,-1
 800 325 l 1,51,-1
 800 225 l 1,52,-1
 750 225 l 1,53,-1
 750 325 l 1,50,-1
230 280 m 1,54,-1
 230 180 l 1,55,-1
 330 180 l 1,56,-1
 330 280 l 1,57,-1
 230 280 l 1,54,-1
50 125 m 1,58,-1
 100 125 l 1,59,-1
 100 50 l 1,60,-1
 175 50 l 1,61,-1
 175 0 l 1,62,-1
 50 0 l 1,63,-1
 50 125 l 1,58,-1
750 125 m 1,64,-1
 800 125 l 1,65,-1
 800 0 l 1,66,-1
 675 0 l 1,67,-1
 675 50 l 1,68,-1
 750 50 l 1,69,-1
 750 125 l 1,64,-1
275 50 m 1,70,-1
 375 50 l 1,71,-1
 375 0 l 1,72,-1
 275 0 l 1,73,-1
 275 50 l 1,70,-1
475 50 m 1,74,-1
 575 50 l 1,75,-1
 575 0 l 1,76,-1
 475 0 l 1,77,-1
 475 50 l 1,74,-1
EndSplineSet
EndChar

StartChar: xITE
Encoding: 78900 78900 61
Width: 850
GlyphClass: 2
Flags: W
LayerCount: 2
Fore
SplineSet
50 750 m 1,0,-1
 175 750 l 1,1,-1
 175 700 l 1,2,-1
 100 700 l 1,3,-1
 100 625 l 1,4,-1
 50 625 l 1,5,-1
 50 750 l 1,0,-1
275 750 m 1,6,-1
 375 750 l 1,7,-1
 375 700 l 1,8,-1
 275 700 l 1,9,-1
 275 750 l 1,6,-1
475 750 m 1,10,-1
 575 750 l 1,11,-1
 575 700 l 1,12,-1
 475 700 l 1,13,-1
 475 750 l 1,10,-1
675 750 m 1,14,-1
 800 750 l 1,15,-1
 800 625 l 1,16,-1
 750 625 l 1,17,-1
 750 700 l 1,18,-1
 675 700 l 1,19,-1
 675 750 l 1,14,-1
166 620 m 1,20,-1
 366 620 l 1,21,-1
 366 326 l 1,22,-1
 646 326 l 1,23,-1
 670 326 l 1,24,-1
 670 126 l 1,25,-1
 166 126 l 1,26,-1
 166 620 l 1,20,-1
470 620 m 1,27,-1
 670 620 l 1,28,-1
 670 420 l 1,29,-1
 470 420 l 1,30,-1
 470 596 l 1,31,-1
 470 620 l 1,27,-1
216 570 m 1,32,-1
 216 176 l 1,33,-1
 620 176 l 1,34,-1
 620 276 l 1,35,-1
 316 276 l 1,36,-1
 316 570 l 1,37,-1
 216 570 l 1,32,-1
520 570 m 1,38,-1
 520 470 l 1,39,-1
 620 470 l 1,40,-1
 620 570 l 1,41,-1
 520 570 l 1,38,-1
50 525 m 1,42,-1
 100 525 l 1,43,-1
 100 425 l 1,44,-1
 50 425 l 1,45,-1
 50 525 l 1,42,-1
750 525 m 1,46,-1
 800 525 l 1,47,-1
 800 425 l 1,48,-1
 750 425 l 1,49,-1
 750 525 l 1,46,-1
50 325 m 1,50,-1
 100 325 l 1,51,-1
 100 225 l 1,52,-1
 50 225 l 1,53,-1
 50 325 l 1,50,-1
750 325 m 1,54,-1
 800 325 l 1,55,-1
 800 225 l 1,56,-1
 750 225 l 1,57,-1
 750 325 l 1,54,-1
50 125 m 1,58,-1
 100 125 l 1,59,-1
 100 50 l 1,60,-1
 175 50 l 1,61,-1
 175 0 l 1,62,-1
 50 0 l 1,63,-1
 50 125 l 1,58,-1
750 125 m 1,64,-1
 800 125 l 1,65,-1
 800 0 l 1,66,-1
 675 0 l 1,67,-1
 675 50 l 1,68,-1
 750 50 l 1,69,-1
 750 125 l 1,64,-1
275 50 m 1,70,-1
 375 50 l 1,71,-1
 375 0 l 1,72,-1
 275 0 l 1,73,-1
 275 50 l 1,70,-1
475 50 m 1,74,-1
 575 50 l 1,75,-1
 575 0 l 1,76,-1
 475 0 l 1,77,-1
 475 50 l 1,74,-1
EndSplineSet
EndChar

StartChar: xIBE
Encoding: 78901 78901 62
Width: 850
GlyphClass: 2
Flags: W
LayerCount: 2
Fore
SplineSet
50 750 m 1,0,-1
 175 750 l 1,1,-1
 175 700 l 1,2,-1
 100 700 l 1,3,-1
 100 625 l 1,4,-1
 50 625 l 1,5,-1
 50 750 l 1,0,-1
275 750 m 1,6,-1
 375 750 l 1,7,-1
 375 700 l 1,8,-1
 275 700 l 1,9,-1
 275 750 l 1,6,-1
475 750 m 1,10,-1
 575 750 l 1,11,-1
 575 700 l 1,12,-1
 475 700 l 1,13,-1
 475 750 l 1,10,-1
675 750 m 1,14,-1
 800 750 l 1,15,-1
 800 625 l 1,16,-1
 750 625 l 1,17,-1
 750 700 l 1,18,-1
 675 700 l 1,19,-1
 675 750 l 1,14,-1
166 624 m 1,20,-1
 670 624 l 1,21,-1
 670 450 l 1,22,-1
 670 424 l 1,23,-1
 366 424 l 1,24,-1
 366 130 l 1,25,-1
 166 130 l 1,26,-1
 166 624 l 1,20,-1
216 574 m 1,27,-1
 216 180 l 1,28,-1
 316 180 l 1,29,-1
 316 474 l 1,30,-1
 620 474 l 1,31,-1
 620 574 l 1,32,-1
 216 574 l 1,27,-1
50 525 m 1,33,-1
 100 525 l 1,34,-1
 100 425 l 1,35,-1
 50 425 l 1,36,-1
 50 525 l 1,33,-1
750 525 m 1,37,-1
 800 525 l 1,38,-1
 800 425 l 1,39,-1
 750 425 l 1,40,-1
 750 525 l 1,37,-1
470 330 m 1,41,-1
 670 330 l 1,42,-1
 670 130 l 1,43,-1
 496 130 l 1,44,-1
 470 130 l 1,45,-1
 470 330 l 1,41,-1
50 325 m 1,46,-1
 100 325 l 1,47,-1
 100 225 l 1,48,-1
 50 225 l 1,49,-1
 50 325 l 1,46,-1
750 325 m 1,50,-1
 800 325 l 1,51,-1
 800 225 l 1,52,-1
 750 225 l 1,53,-1
 750 325 l 1,50,-1
520 280 m 1,54,-1
 520 180 l 1,55,-1
 620 180 l 1,56,-1
 620 280 l 1,57,-1
 520 280 l 1,54,-1
50 125 m 1,58,-1
 100 125 l 1,59,-1
 100 50 l 1,60,-1
 175 50 l 1,61,-1
 175 0 l 1,62,-1
 50 0 l 1,63,-1
 50 125 l 1,58,-1
750 125 m 1,64,-1
 800 125 l 1,65,-1
 800 0 l 1,66,-1
 675 0 l 1,67,-1
 675 50 l 1,68,-1
 750 50 l 1,69,-1
 750 125 l 1,64,-1
275 50 m 1,70,-1
 375 50 l 1,71,-1
 375 0 l 1,72,-1
 275 0 l 1,73,-1
 275 50 l 1,70,-1
475 50 m 1,74,-1
 575 50 l 1,75,-1
 575 0 l 1,76,-1
 475 0 l 1,77,-1
 475 50 l 1,74,-1
EndSplineSet
EndChar

StartChar: xSM
Encoding: 78902 78902 63
Width: 850
GlyphClass: 2
Flags: W
LayerCount: 2
Fore
SplineSet
424 149 m 2,0,1
 414 149 414 149 407 156 c 0,2,3
 400 163 400 163 400 174 c 2,4,-1
 400 344 l 1,5,-1
 230 344 l 2,6,7
 220 344 220 344 213 351 c 128,-1,8
 206 358 206 358 206 368.5 c 128,-1,9
 206 379 206 379 213 386.5 c 128,-1,10
 220 394 220 394 230 394 c 2,11,-1
 400 394 l 1,12,-1
 400 563 l 1,13,-1
 400 564 l 2,14,15
 400 574 400 574 407 581 c 0,16,17
 414 588 414 588 425 588 c 128,-1,18
 436 588 436 588 443 581 c 0,19,20
 450 574 450 574 450 564 c 2,21,-1
 450 563 l 1,22,-1
 450 394 l 1,23,-1
 620 394 l 2,24,25
 630 394 630 394 637 386.5 c 128,-1,26
 644 379 644 379 644 368.5 c 128,-1,27
 644 358 644 358 637 351 c 128,-1,28
 630 344 630 344 620 344 c 2,29,-1
 450 344 l 1,30,-1
 450 174 l 2,31,32
 450 164 450 164 443 157 c 0,33,34
 436 149 436 149 425 149 c 2,35,-1
 424 149 l 2,0,1
50 0 m 1,36,-1
 50 125 l 1,37,-1
 100 125 l 1,38,-1
 100 50 l 1,39,-1
 175 50 l 1,40,-1
 175 0 l 1,41,-1
 50 0 l 1,36,-1
275 0 m 1,42,-1
 275 50 l 1,43,-1
 375 50 l 1,44,-1
 375 0 l 1,45,-1
 275 0 l 1,42,-1
475 0 m 1,46,-1
 475 50 l 1,47,-1
 575 50 l 1,48,-1
 575 0 l 1,49,-1
 475 0 l 1,46,-1
675 0 m 1,50,-1
 675 50 l 1,51,-1
 750 50 l 1,52,-1
 750 125 l 1,53,-1
 800 125 l 1,54,-1
 800 0 l 1,55,-1
 675 0 l 1,50,-1
50 225 m 1,56,-1
 50 325 l 1,57,-1
 100 325 l 1,58,-1
 100 225 l 1,59,-1
 50 225 l 1,56,-1
750 225 m 1,60,-1
 750 325 l 1,61,-1
 800 325 l 1,62,-1
 800 225 l 1,63,-1
 750 225 l 1,60,-1
50 425 m 1,64,-1
 50 525 l 1,65,-1
 100 525 l 1,66,-1
 100 425 l 1,67,-1
 50 425 l 1,64,-1
750 425 m 1,68,-1
 750 525 l 1,69,-1
 800 525 l 1,70,-1
 800 425 l 1,71,-1
 750 425 l 1,68,-1
50 625 m 1,72,-1
 50 750 l 1,73,-1
 175 750 l 1,74,-1
 175 700 l 1,75,-1
 100 700 l 1,76,-1
 100 625 l 1,77,-1
 50 625 l 1,72,-1
750 625 m 1,78,-1
 750 700 l 1,79,-1
 675 700 l 1,80,-1
 675 750 l 1,81,-1
 800 750 l 1,82,-1
 800 625 l 1,83,-1
 750 625 l 1,78,-1
275 700 m 1,84,-1
 275 750 l 1,85,-1
 375 750 l 1,86,-1
 375 700 l 1,87,-1
 275 700 l 1,84,-1
475 700 m 1,88,-1
 475 750 l 1,89,-1
 575 750 l 1,90,-1
 575 700 l 1,91,-1
 475 700 l 1,88,-1
EndSplineSet
EndChar

StartChar: xSS
Encoding: 78903 78903 64
Width: 850
GlyphClass: 2
Flags: W
LayerCount: 2
Fore
SplineSet
446 626 m 2,0,1
 446 626 446 626 447 626 c 0,2,3
 457 626 457 626 465 618 c 0,4,5
 472 611 472 611 472 604 c 0,6,7
 472 593 472 593 455 569 c 0,8,9
 391 478 391 478 391 378 c 128,-1,10
 391 278 391 278 455 169 c 0,11,12
 472 140 472 140 472 133 c 0,13,14
 472 124 472 124 464 116 c 0,15,16
 458 110 458 110 451 110 c 0,17,18
 431 110 431 110 399 164 c 0,19,20
 336 272 336 272 336 375 c 0,21,22
 336 485 336 485 408 589 c 0,23,24
 434 626 434 626 446 626 c 2,0,1
50 750 m 1,25,-1
 175 750 l 1,26,-1
 175 700 l 1,27,-1
 100 700 l 1,28,-1
 100 625 l 1,29,-1
 50 625 l 1,30,-1
 50 750 l 1,25,-1
275 750 m 1,31,-1
 375 750 l 1,32,-1
 375 700 l 1,33,-1
 275 700 l 1,34,-1
 275 750 l 1,31,-1
475 750 m 1,35,-1
 575 750 l 1,36,-1
 575 700 l 1,37,-1
 475 700 l 1,38,-1
 475 750 l 1,35,-1
675 750 m 1,39,-1
 800 750 l 1,40,-1
 800 625 l 1,41,-1
 750 625 l 1,42,-1
 750 700 l 1,43,-1
 675 700 l 1,44,-1
 675 750 l 1,39,-1
50 525 m 1,45,-1
 100 525 l 1,46,-1
 100 425 l 1,47,-1
 50 425 l 1,48,-1
 50 525 l 1,45,-1
750 525 m 1,49,-1
 800 525 l 1,50,-1
 800 425 l 1,51,-1
 750 425 l 1,52,-1
 750 525 l 1,49,-1
50 325 m 1,53,-1
 100 325 l 1,54,-1
 100 225 l 1,55,-1
 50 225 l 1,56,-1
 50 325 l 1,53,-1
750 325 m 1,57,-1
 800 325 l 1,58,-1
 800 225 l 1,59,-1
 750 225 l 1,60,-1
 750 325 l 1,57,-1
50 125 m 1,61,-1
 100 125 l 1,62,-1
 100 50 l 1,63,-1
 175 50 l 1,64,-1
 175 0 l 1,65,-1
 50 0 l 1,66,-1
 50 125 l 1,61,-1
750 125 m 1,67,-1
 800 125 l 1,68,-1
 800 0 l 1,69,-1
 675 0 l 1,70,-1
 675 50 l 1,71,-1
 750 50 l 1,72,-1
 750 125 l 1,67,-1
275 50 m 1,73,-1
 375 50 l 1,74,-1
 375 0 l 1,75,-1
 275 0 l 1,76,-1
 275 50 l 1,73,-1
475 50 m 1,77,-1
 575 50 l 1,78,-1
 575 0 l 1,79,-1
 475 0 l 1,80,-1
 475 50 l 1,77,-1
EndSplineSet
EndChar

StartChar: xSE
Encoding: 78904 78904 65
Width: 850
GlyphClass: 2
Flags: W
LayerCount: 2
Fore
SplineSet
402 626 m 2,0,1
 402 626 402 626 403 626 c 0,2,3
 416 626 416 626 445 585 c 0,4,5
 514 485 514 485 514 377 c 0,6,7
 514 272 514 272 448 160 c 0,8,9
 419 110 419 110 404 110 c 0,10,11
 392 110 392 110 384 118 c 0,12,13
 378 124 378 124 378 130 c 0,14,15
 378 140 378 140 394 167 c 0,16,17
 459 277 459 277 459 378 c 0,18,19
 459 478 459 478 395 568 c 0,20,21
 378 593 378 593 378 601 c 0,22,23
 378 611 378 611 385 618.5 c 128,-1,24
 392 626 392 626 402 626 c 2,0,1
50 750 m 1,25,-1
 175 750 l 1,26,-1
 175 700 l 1,27,-1
 100 700 l 1,28,-1
 100 625 l 1,29,-1
 50 625 l 1,30,-1
 50 750 l 1,25,-1
275 750 m 1,31,-1
 375 750 l 1,32,-1
 375 700 l 1,33,-1
 275 700 l 1,34,-1
 275 750 l 1,31,-1
475 750 m 1,35,-1
 575 750 l 1,36,-1
 575 700 l 1,37,-1
 475 700 l 1,38,-1
 475 750 l 1,35,-1
675 750 m 1,39,-1
 800 750 l 1,40,-1
 800 625 l 1,41,-1
 750 625 l 1,42,-1
 750 700 l 1,43,-1
 675 700 l 1,44,-1
 675 750 l 1,39,-1
50 525 m 1,45,-1
 100 525 l 1,46,-1
 100 425 l 1,47,-1
 50 425 l 1,48,-1
 50 525 l 1,45,-1
750 525 m 1,49,-1
 800 525 l 1,50,-1
 800 425 l 1,51,-1
 750 425 l 1,52,-1
 750 525 l 1,49,-1
50 325 m 1,53,-1
 100 325 l 1,54,-1
 100 225 l 1,55,-1
 50 225 l 1,56,-1
 50 325 l 1,53,-1
750 325 m 1,57,-1
 800 325 l 1,58,-1
 800 225 l 1,59,-1
 750 225 l 1,60,-1
 750 325 l 1,57,-1
50 125 m 1,61,-1
 100 125 l 1,62,-1
 100 50 l 1,63,-1
 175 50 l 1,64,-1
 175 0 l 1,65,-1
 50 0 l 1,66,-1
 50 125 l 1,61,-1
750 125 m 1,67,-1
 800 125 l 1,68,-1
 800 0 l 1,69,-1
 675 0 l 1,70,-1
 675 50 l 1,71,-1
 750 50 l 1,72,-1
 750 125 l 1,67,-1
275 50 m 1,73,-1
 375 50 l 1,74,-1
 375 0 l 1,75,-1
 275 0 l 1,76,-1
 275 50 l 1,73,-1
475 50 m 1,77,-1
 575 50 l 1,78,-1
 575 0 l 1,79,-1
 475 0 l 1,80,-1
 475 50 l 1,77,-1
EndSplineSet
EndChar

StartChar: xIAM
Encoding: 78905 78905 66
Width: 850
GlyphClass: 2
Flags: W
LayerCount: 2
Fore
SplineSet
50 0 m 1,0,-1
 50 125 l 1,1,-1
 100 125 l 1,2,-1
 100 50 l 1,3,-1
 175 50 l 1,4,-1
 175 0 l 1,5,-1
 50 0 l 1,0,-1
275 0 m 1,6,-1
 275 50 l 1,7,-1
 375 50 l 1,8,-1
 375 0 l 1,9,-1
 275 0 l 1,6,-1
475 0 m 1,10,-1
 475 50 l 1,11,-1
 575 50 l 1,12,-1
 575 0 l 1,13,-1
 475 0 l 1,10,-1
675 0 m 1,14,-1
 675 50 l 1,15,-1
 750 50 l 1,16,-1
 750 125 l 1,17,-1
 800 125 l 1,18,-1
 800 0 l 1,19,-1
 675 0 l 1,14,-1
166 126 m 1,20,-1
 166 620 l 1,21,-1
 341 620 l 1,22,-1
 670 620 l 1,23,-1
 670 300 l 1,24,-1
 670 126 l 1,25,-1
 166 126 l 1,20,-1
216 176 m 1,26,-1
 620 176 l 1,27,-1
 620 300 l 1,28,-1
 620 570 l 1,29,-1
 341 570 l 1,30,-1
 216 570 l 1,31,-1
 216 176 l 1,26,-1
50 225 m 1,32,-1
 50 325 l 1,33,-1
 100 325 l 1,34,-1
 100 225 l 1,35,-1
 50 225 l 1,32,-1
750 225 m 1,36,-1
 750 325 l 1,37,-1
 800 325 l 1,38,-1
 800 225 l 1,39,-1
 750 225 l 1,36,-1
314 272 m 1,40,-1
 314 472 l 1,41,-1
 339 472 l 1,42,-1
 514 472 l 1,43,-1
 514 272 l 1,44,-1
 314 272 l 1,40,-1
364 322 m 1,45,-1
 464 322 l 1,46,-1
 464 422 l 1,47,-1
 364 422 l 1,48,-1
 364 322 l 1,45,-1
50 425 m 1,49,-1
 50 525 l 1,50,-1
 100 525 l 1,51,-1
 100 425 l 1,52,-1
 50 425 l 1,49,-1
750 425 m 1,53,-1
 750 525 l 1,54,-1
 800 525 l 1,55,-1
 800 425 l 1,56,-1
 750 425 l 1,53,-1
50 625 m 1,57,-1
 50 750 l 1,58,-1
 175 750 l 1,59,-1
 175 700 l 1,60,-1
 100 700 l 1,61,-1
 100 625 l 1,62,-1
 50 625 l 1,57,-1
750 625 m 1,63,-1
 750 700 l 1,64,-1
 675 700 l 1,65,-1
 675 750 l 1,66,-1
 800 750 l 1,67,-1
 800 625 l 1,68,-1
 750 625 l 1,63,-1
275 700 m 1,69,-1
 275 750 l 1,70,-1
 375 750 l 1,71,-1
 375 700 l 1,72,-1
 275 700 l 1,69,-1
475 700 m 1,73,-1
 475 750 l 1,74,-1
 575 750 l 1,75,-1
 575 700 l 1,76,-1
 475 700 l 1,73,-1
EndSplineSet
EndChar

StartChar: xIAT
Encoding: 78906 78906 67
Width: 850
GlyphClass: 2
Flags: W
LayerCount: 2
Fore
SplineSet
50 750 m 1,0,-1
 175 750 l 1,1,-1
 175 700 l 1,2,-1
 100 700 l 1,3,-1
 100 625 l 1,4,-1
 50 625 l 1,5,-1
 50 750 l 1,0,-1
275 750 m 1,6,-1
 375 750 l 1,7,-1
 375 700 l 1,8,-1
 275 700 l 1,9,-1
 275 750 l 1,6,-1
475 750 m 1,10,-1
 575 750 l 1,11,-1
 575 700 l 1,12,-1
 475 700 l 1,13,-1
 475 750 l 1,10,-1
675 750 m 1,14,-1
 800 750 l 1,15,-1
 800 625 l 1,16,-1
 750 625 l 1,17,-1
 750 700 l 1,18,-1
 675 700 l 1,19,-1
 675 750 l 1,14,-1
620 596 m 1,20,-1
 670 596 l 1,21,-1
 670 300 l 1,22,-1
 670 126 l 1,23,-1
 166 126 l 1,24,-1
 166 596 l 1,25,-1
 216 596 l 1,26,-1
 216 176 l 1,27,-1
 620 176 l 1,28,-1
 620 300 l 1,29,-1
 620 596 l 1,20,-1
50 525 m 1,30,-1
 100 525 l 1,31,-1
 100 425 l 1,32,-1
 50 425 l 1,33,-1
 50 525 l 1,30,-1
750 525 m 1,34,-1
 800 525 l 1,35,-1
 800 425 l 1,36,-1
 750 425 l 1,37,-1
 750 525 l 1,34,-1
314 472 m 1,38,-1
 514 472 l 1,39,-1
 514 272 l 1,40,-1
 314 272 l 1,41,-1
 314 447 l 1,42,-1
 314 472 l 1,38,-1
364 422 m 1,43,-1
 364 322 l 1,44,-1
 464 322 l 1,45,-1
 464 422 l 1,46,-1
 364 422 l 1,43,-1
50 325 m 1,47,-1
 100 325 l 1,48,-1
 100 225 l 1,49,-1
 50 225 l 1,50,-1
 50 325 l 1,47,-1
750 325 m 1,51,-1
 800 325 l 1,52,-1
 800 225 l 1,53,-1
 750 225 l 1,54,-1
 750 325 l 1,51,-1
50 125 m 1,55,-1
 100 125 l 1,56,-1
 100 50 l 1,57,-1
 175 50 l 1,58,-1
 175 0 l 1,59,-1
 50 0 l 1,60,-1
 50 125 l 1,55,-1
750 125 m 1,61,-1
 800 125 l 1,62,-1
 800 0 l 1,63,-1
 675 0 l 1,64,-1
 675 50 l 1,65,-1
 750 50 l 1,66,-1
 750 125 l 1,61,-1
275 50 m 1,67,-1
 375 50 l 1,68,-1
 375 0 l 1,69,-1
 275 0 l 1,70,-1
 275 50 l 1,67,-1
475 50 m 1,71,-1
 575 50 l 1,72,-1
 575 0 l 1,73,-1
 475 0 l 1,74,-1
 475 50 l 1,71,-1
EndSplineSet
EndChar

StartChar: xIAB
Encoding: 78907 78907 68
Width: 850
GlyphClass: 2
Flags: W
LayerCount: 2
Fore
SplineSet
50 0 m 1,0,-1
 50 125 l 1,1,-1
 100 125 l 1,2,-1
 100 50 l 1,3,-1
 175 50 l 1,4,-1
 175 0 l 1,5,-1
 50 0 l 1,0,-1
275 0 m 1,6,-1
 275 50 l 1,7,-1
 375 50 l 1,8,-1
 375 0 l 1,9,-1
 275 0 l 1,6,-1
475 0 m 1,10,-1
 475 50 l 1,11,-1
 575 50 l 1,12,-1
 575 0 l 1,13,-1
 475 0 l 1,10,-1
675 0 m 1,14,-1
 675 50 l 1,15,-1
 750 50 l 1,16,-1
 750 125 l 1,17,-1
 800 125 l 1,18,-1
 800 0 l 1,19,-1
 675 0 l 1,14,-1
620 154 m 1,20,-1
 620 450 l 1,21,-1
 620 574 l 1,22,-1
 216 574 l 1,23,-1
 216 154 l 1,24,-1
 166 154 l 1,25,-1
 166 624 l 1,26,-1
 670 624 l 1,27,-1
 670 450 l 1,28,-1
 670 154 l 1,29,-1
 620 154 l 1,20,-1
50 225 m 1,30,-1
 50 325 l 1,31,-1
 100 325 l 1,32,-1
 100 225 l 1,33,-1
 50 225 l 1,30,-1
750 225 m 1,34,-1
 750 325 l 1,35,-1
 800 325 l 1,36,-1
 800 225 l 1,37,-1
 750 225 l 1,34,-1
314 278 m 1,38,-1
 314 303 l 1,39,-1
 314 478 l 1,40,-1
 514 478 l 1,41,-1
 514 278 l 1,42,-1
 314 278 l 1,38,-1
364 328 m 1,43,-1
 464 328 l 1,44,-1
 464 428 l 1,45,-1
 364 428 l 1,46,-1
 364 328 l 1,43,-1
50 425 m 1,47,-1
 50 525 l 1,48,-1
 100 525 l 1,49,-1
 100 425 l 1,50,-1
 50 425 l 1,47,-1
750 425 m 1,51,-1
 750 525 l 1,52,-1
 800 525 l 1,53,-1
 800 425 l 1,54,-1
 750 425 l 1,51,-1
50 625 m 1,55,-1
 50 750 l 1,56,-1
 175 750 l 1,57,-1
 175 700 l 1,58,-1
 100 700 l 1,59,-1
 100 625 l 1,60,-1
 50 625 l 1,55,-1
750 625 m 1,61,-1
 750 700 l 1,62,-1
 675 700 l 1,63,-1
 675 750 l 1,64,-1
 800 750 l 1,65,-1
 800 625 l 1,66,-1
 750 625 l 1,61,-1
275 700 m 1,67,-1
 275 750 l 1,68,-1
 375 750 l 1,69,-1
 375 700 l 1,70,-1
 275 700 l 1,67,-1
475 700 m 1,71,-1
 475 750 l 1,72,-1
 575 750 l 1,73,-1
 575 700 l 1,74,-1
 475 700 l 1,71,-1
EndSplineSet
EndChar

StartChar: xBE
Encoding: 78908 78908 69
Width: 850
GlyphClass: 2
Flags: W
LayerCount: 2
Fore
SplineSet
50 750 m 1,0,-1
 175 750 l 1,1,-1
 175 700 l 1,2,-1
 100 700 l 1,3,-1
 100 625 l 1,4,-1
 50 625 l 1,5,-1
 50 750 l 1,0,-1
275 750 m 1,6,-1
 375 750 l 1,7,-1
 375 700 l 1,8,-1
 275 700 l 1,9,-1
 275 750 l 1,6,-1
475 750 m 1,10,-1
 575 750 l 1,11,-1
 575 700 l 1,12,-1
 475 700 l 1,13,-1
 475 750 l 1,10,-1
675 750 m 1,14,-1
 800 750 l 1,15,-1
 800 625 l 1,16,-1
 750 625 l 1,17,-1
 750 700 l 1,18,-1
 675 700 l 1,19,-1
 675 750 l 1,14,-1
176 634 m 1,20,-1
 646 634 l 1,21,-1
 646 584 l 1,22,-1
 226 584 l 1,23,-1
 226 180 l 1,24,-1
 350 180 l 1,25,-1
 646 180 l 1,26,-1
 646 130 l 1,27,-1
 350 130 l 1,28,-1
 176 130 l 1,29,-1
 176 634 l 1,20,-1
444 558 m 1,30,-1
 611 390 l 1,31,-1
 444 223 l 1,32,-1
 408 258 l 1,33,-1
 516 366 l 1,34,-1
 326 366 l 1,35,-1
 326 416 l 1,36,-1
 516 416 l 1,37,-1
 408 523 l 1,38,-1
 444 558 l 1,30,-1
50 525 m 1,39,-1
 100 525 l 1,40,-1
 100 425 l 1,41,-1
 50 425 l 1,42,-1
 50 525 l 1,39,-1
750 525 m 1,43,-1
 800 525 l 1,44,-1
 800 425 l 1,45,-1
 750 425 l 1,46,-1
 750 525 l 1,43,-1
50 325 m 1,47,-1
 100 325 l 1,48,-1
 100 225 l 1,49,-1
 50 225 l 1,50,-1
 50 325 l 1,47,-1
750 325 m 1,51,-1
 800 325 l 1,52,-1
 800 225 l 1,53,-1
 750 225 l 1,54,-1
 750 325 l 1,51,-1
50 125 m 1,55,-1
 100 125 l 1,56,-1
 100 50 l 1,57,-1
 175 50 l 1,58,-1
 175 0 l 1,59,-1
 50 0 l 1,60,-1
 50 125 l 1,55,-1
750 125 m 1,61,-1
 800 125 l 1,62,-1
 800 0 l 1,63,-1
 675 0 l 1,64,-1
 675 50 l 1,65,-1
 750 50 l 1,66,-1
 750 125 l 1,61,-1
275 50 m 1,67,-1
 375 50 l 1,68,-1
 375 0 l 1,69,-1
 275 0 l 1,70,-1
 275 50 l 1,67,-1
475 50 m 1,71,-1
 575 50 l 1,72,-1
 575 0 l 1,73,-1
 475 0 l 1,74,-1
 475 50 l 1,71,-1
EndSplineSet
EndChar

StartChar: xEE
Encoding: 78909 78909 70
Width: 850
GlyphClass: 2
Flags: W
LayerCount: 2
Fore
SplineSet
800 750 m 1,0,-1
 800 625 l 1,1,-1
 750 625 l 1,2,-1
 750 700 l 1,3,-1
 675 700 l 1,4,-1
 675 750 l 1,5,-1
 800 750 l 1,0,-1
575 750 m 1,6,-1
 575 700 l 1,7,-1
 475 700 l 1,8,-1
 475 750 l 1,9,-1
 575 750 l 1,6,-1
375 750 m 1,10,-1
 375 700 l 1,11,-1
 275 700 l 1,12,-1
 275 750 l 1,13,-1
 375 750 l 1,10,-1
175 750 m 1,14,-1
 175 700 l 1,15,-1
 100 700 l 1,16,-1
 100 625 l 1,17,-1
 50 625 l 1,18,-1
 50 750 l 1,19,-1
 175 750 l 1,14,-1
674 634 m 1,20,-1
 674 130 l 1,21,-1
 500 130 l 1,22,-1
 204 130 l 1,23,-1
 204 180 l 1,24,-1
 500 180 l 1,25,-1
 624 180 l 1,26,-1
 624 584 l 1,27,-1
 204 584 l 1,28,-1
 204 634 l 1,29,-1
 674 634 l 1,20,-1
406 558 m 1,30,-1
 442 523 l 1,31,-1
 334 416 l 1,32,-1
 524 416 l 1,33,-1
 524 366 l 1,34,-1
 334 366 l 1,35,-1
 442 258 l 1,36,-1
 406 223 l 1,37,-1
 239 390 l 1,38,-1
 406 558 l 1,30,-1
800 525 m 1,39,-1
 800 425 l 1,40,-1
 750 425 l 1,41,-1
 750 525 l 1,42,-1
 800 525 l 1,39,-1
100 525 m 1,43,-1
 100 425 l 1,44,-1
 50 425 l 1,45,-1
 50 525 l 1,46,-1
 100 525 l 1,43,-1
800 325 m 1,47,-1
 800 225 l 1,48,-1
 750 225 l 1,49,-1
 750 325 l 1,50,-1
 800 325 l 1,47,-1
100 325 m 1,51,-1
 100 225 l 1,52,-1
 50 225 l 1,53,-1
 50 325 l 1,54,-1
 100 325 l 1,51,-1
800 125 m 1,55,-1
 800 0 l 1,56,-1
 675 0 l 1,57,-1
 675 50 l 1,58,-1
 750 50 l 1,59,-1
 750 125 l 1,60,-1
 800 125 l 1,55,-1
100 125 m 1,61,-1
 100 50 l 1,62,-1
 175 50 l 1,63,-1
 175 0 l 1,64,-1
 50 0 l 1,65,-1
 50 125 l 1,66,-1
 100 125 l 1,61,-1
575 50 m 1,67,-1
 575 0 l 1,68,-1
 475 0 l 1,69,-1
 475 50 l 1,70,-1
 575 50 l 1,67,-1
375 50 m 1,71,-1
 375 0 l 1,72,-1
 275 0 l 1,73,-1
 275 50 l 1,74,-1
 375 50 l 1,71,-1
EndSplineSet
EndChar

StartChar: xBWE
Encoding: 78910 78910 71
Width: 850
GlyphClass: 2
Flags: W
LayerCount: 2
Fore
SplineSet
50 750 m 1,0,-1
 175 750 l 1,1,-1
 175 700 l 1,2,-1
 100 700 l 1,3,-1
 100 625 l 1,4,-1
 50 625 l 1,5,-1
 50 750 l 1,0,-1
275 750 m 1,6,-1
 375 750 l 1,7,-1
 375 700 l 1,8,-1
 275 700 l 1,9,-1
 275 750 l 1,6,-1
475 750 m 1,10,-1
 575 750 l 1,11,-1
 575 700 l 1,12,-1
 475 700 l 1,13,-1
 475 750 l 1,10,-1
675 750 m 1,14,-1
 800 750 l 1,15,-1
 800 625 l 1,16,-1
 750 625 l 1,17,-1
 750 700 l 1,18,-1
 675 700 l 1,19,-1
 675 750 l 1,14,-1
328 682 m 1,20,-1
 428 682 l 1,21,-1
 428 634 l 1,22,-1
 528 634 l 1,23,-1
 528 682 l 1,24,-1
 628 682 l 1,25,-1
 628 634 l 1,26,-1
 646 634 l 1,27,-1
 646 584 l 1,28,-1
 226 584 l 1,29,-1
 226 180 l 1,30,-1
 350 180 l 1,31,-1
 646 180 l 1,32,-1
 646 130 l 1,33,-1
 628 130 l 1,34,-1
 628 82 l 1,35,-1
 528 82 l 1,36,-1
 528 130 l 1,37,-1
 428 130 l 1,38,-1
 428 82 l 1,39,-1
 328 82 l 1,40,-1
 328 130 l 1,41,-1
 176 130 l 1,42,-1
 176 634 l 1,43,-1
 328 634 l 1,44,-1
 328 682 l 1,20,-1
444 558 m 1,45,-1
 611 390 l 1,46,-1
 444 223 l 1,47,-1
 408 258 l 1,48,-1
 516 366 l 1,49,-1
 326 366 l 1,50,-1
 326 416 l 1,51,-1
 516 416 l 1,52,-1
 408 523 l 1,53,-1
 444 558 l 1,45,-1
50 525 m 1,54,-1
 100 525 l 1,55,-1
 100 425 l 1,56,-1
 50 425 l 1,57,-1
 50 525 l 1,54,-1
750 525 m 1,58,-1
 800 525 l 1,59,-1
 800 425 l 1,60,-1
 750 425 l 1,61,-1
 750 525 l 1,58,-1
50 325 m 1,62,-1
 100 325 l 1,63,-1
 100 225 l 1,64,-1
 50 225 l 1,65,-1
 50 325 l 1,62,-1
750 325 m 1,66,-1
 800 325 l 1,67,-1
 800 225 l 1,68,-1
 750 225 l 1,69,-1
 750 325 l 1,66,-1
50 125 m 1,70,-1
 100 125 l 1,71,-1
 100 50 l 1,72,-1
 175 50 l 1,73,-1
 175 0 l 1,74,-1
 50 0 l 1,75,-1
 50 125 l 1,70,-1
750 125 m 1,76,-1
 800 125 l 1,77,-1
 800 0 l 1,78,-1
 675 0 l 1,79,-1
 675 50 l 1,80,-1
 750 50 l 1,81,-1
 750 125 l 1,76,-1
275 50 m 1,82,-1
 375 50 l 1,83,-1
 375 0 l 1,84,-1
 275 0 l 1,85,-1
 275 50 l 1,82,-1
475 50 m 1,86,-1
 575 50 l 1,87,-1
 575 0 l 1,88,-1
 475 0 l 1,89,-1
 475 50 l 1,86,-1
EndSplineSet
EndChar

StartChar: xEWE
Encoding: 78911 78911 72
Width: 850
GlyphClass: 2
Flags: W
LayerCount: 2
Fore
SplineSet
800 750 m 1,0,-1
 800 625 l 1,1,-1
 750 625 l 1,2,-1
 750 700 l 1,3,-1
 675 700 l 1,4,-1
 675 750 l 1,5,-1
 800 750 l 1,0,-1
575 750 m 1,6,-1
 575 700 l 1,7,-1
 475 700 l 1,8,-1
 475 750 l 1,9,-1
 575 750 l 1,6,-1
375 750 m 1,10,-1
 375 700 l 1,11,-1
 275 700 l 1,12,-1
 275 750 l 1,13,-1
 375 750 l 1,10,-1
175 750 m 1,14,-1
 175 700 l 1,15,-1
 100 700 l 1,16,-1
 100 625 l 1,17,-1
 50 625 l 1,18,-1
 50 750 l 1,19,-1
 175 750 l 1,14,-1
522 682 m 1,20,-1
 522 634 l 1,21,-1
 674 634 l 1,22,-1
 674 130 l 1,23,-1
 522 130 l 1,24,-1
 522 82 l 1,25,-1
 422 82 l 1,26,-1
 422 130 l 1,27,-1
 322 130 l 1,28,-1
 322 82 l 1,29,-1
 222 82 l 1,30,-1
 222 130 l 1,31,-1
 204 130 l 1,32,-1
 204 180 l 1,33,-1
 500 180 l 1,34,-1
 624 180 l 1,35,-1
 624 584 l 1,36,-1
 204 584 l 1,37,-1
 204 634 l 1,38,-1
 222 634 l 1,39,-1
 222 682 l 1,40,-1
 322 682 l 1,41,-1
 322 634 l 1,42,-1
 422 634 l 1,43,-1
 422 682 l 1,44,-1
 522 682 l 1,20,-1
406 558 m 1,45,-1
 442 523 l 1,46,-1
 334 416 l 1,47,-1
 524 416 l 1,48,-1
 524 366 l 1,49,-1
 334 366 l 1,50,-1
 442 258 l 1,51,-1
 406 223 l 1,52,-1
 239 390 l 1,53,-1
 406 558 l 1,45,-1
800 525 m 1,54,-1
 800 425 l 1,55,-1
 750 425 l 1,56,-1
 750 525 l 1,57,-1
 800 525 l 1,54,-1
100 525 m 1,58,-1
 100 425 l 1,59,-1
 50 425 l 1,60,-1
 50 525 l 1,61,-1
 100 525 l 1,58,-1
800 325 m 1,62,-1
 800 225 l 1,63,-1
 750 225 l 1,64,-1
 750 325 l 1,65,-1
 800 325 l 1,62,-1
100 325 m 1,66,-1
 100 225 l 1,67,-1
 50 225 l 1,68,-1
 50 325 l 1,69,-1
 100 325 l 1,66,-1
800 125 m 1,70,-1
 800 0 l 1,71,-1
 675 0 l 1,72,-1
 675 50 l 1,73,-1
 750 50 l 1,74,-1
 750 125 l 1,75,-1
 800 125 l 1,70,-1
100 125 m 1,76,-1
 100 50 l 1,77,-1
 175 50 l 1,78,-1
 175 0 l 1,79,-1
 50 0 l 1,80,-1
 50 125 l 1,81,-1
 100 125 l 1,76,-1
575 50 m 1,82,-1
 575 0 l 1,83,-1
 475 0 l 1,84,-1
 475 50 l 1,85,-1
 575 50 l 1,82,-1
375 50 m 1,86,-1
 375 0 l 1,87,-1
 275 0 l 1,88,-1
 275 50 l 1,89,-1
 375 50 l 1,86,-1
EndSplineSet
EndChar

StartChar: xMH
Encoding: 78912 78912 73
Width: 850
GlyphClass: 2
Flags: W
LayerCount: 2
Fore
SplineSet
50 750 m 1,0,-1
 175 750 l 1,1,-1
 175 700 l 1,2,-1
 100 700 l 1,3,-1
 100 625 l 1,4,-1
 50 625 l 1,5,-1
 50 750 l 1,0,-1
275 750 m 1,6,-1
 375 750 l 1,7,-1
 375 700 l 1,8,-1
 275 700 l 1,9,-1
 275 750 l 1,6,-1
475 750 m 1,10,-1
 575 750 l 1,11,-1
 575 700 l 1,12,-1
 475 700 l 1,13,-1
 475 750 l 1,10,-1
675 750 m 1,14,-1
 800 750 l 1,15,-1
 800 625 l 1,16,-1
 750 625 l 1,17,-1
 750 700 l 1,18,-1
 675 700 l 1,19,-1
 675 750 l 1,14,-1
536 558 m 1,20,-1
 704 390 l 1,21,-1
 536 223 l 1,22,-1
 500 258 l 1,23,-1
 608 366 l 1,24,-1
 281 366 l 1,25,-1
 388 258 l 1,26,-1
 352 223 l 1,27,-1
 185 390 l 1,28,-1
 352 558 l 1,29,-1
 388 523 l 1,30,-1
 280 416 l 1,31,-1
 608 416 l 1,32,-1
 500 523 l 1,33,-1
 536 558 l 1,20,-1
50 525 m 1,34,-1
 100 525 l 1,35,-1
 100 425 l 1,36,-1
 50 425 l 1,37,-1
 50 525 l 1,34,-1
750 525 m 1,38,-1
 800 525 l 1,39,-1
 800 425 l 1,40,-1
 750 425 l 1,41,-1
 750 525 l 1,38,-1
50 325 m 1,42,-1
 100 325 l 1,43,-1
 100 225 l 1,44,-1
 50 225 l 1,45,-1
 50 325 l 1,42,-1
750 325 m 1,46,-1
 800 325 l 1,47,-1
 800 225 l 1,48,-1
 750 225 l 1,49,-1
 750 325 l 1,46,-1
50 125 m 1,50,-1
 100 125 l 1,51,-1
 100 50 l 1,52,-1
 175 50 l 1,53,-1
 175 0 l 1,54,-1
 50 0 l 1,55,-1
 50 125 l 1,50,-1
750 125 m 1,56,-1
 800 125 l 1,57,-1
 800 0 l 1,58,-1
 675 0 l 1,59,-1
 675 50 l 1,60,-1
 750 50 l 1,61,-1
 750 125 l 1,56,-1
275 50 m 1,62,-1
 375 50 l 1,63,-1
 375 0 l 1,64,-1
 275 0 l 1,65,-1
 275 50 l 1,62,-1
475 50 m 1,66,-1
 575 50 l 1,67,-1
 575 0 l 1,68,-1
 475 0 l 1,69,-1
 475 50 l 1,66,-1
EndSplineSet
EndChar

StartChar: xFB
Encoding: 78913 78913 74
Width: 850
GlyphClass: 2
Flags: W
LayerCount: 2
Fore
SplineSet
50 750 m 1,0,-1
 175 750 l 1,1,-1
 175 700 l 1,2,-1
 100 700 l 1,3,-1
 100 625 l 1,4,-1
 50 625 l 1,5,-1
 50 750 l 1,0,-1
275 750 m 1,6,-1
 375 750 l 1,7,-1
 375 700 l 1,8,-1
 275 700 l 1,9,-1
 275 750 l 1,6,-1
475 750 m 1,10,-1
 575 750 l 1,11,-1
 575 700 l 1,12,-1
 475 700 l 1,13,-1
 475 750 l 1,10,-1
675 750 m 1,14,-1
 800 750 l 1,15,-1
 800 625 l 1,16,-1
 750 625 l 1,17,-1
 750 700 l 1,18,-1
 675 700 l 1,19,-1
 675 750 l 1,14,-1
450 575 m 1,20,-1
 575 575 l 2,21,22
 624 575 624 575 652 538 c 0,23,24
 675 507 675 507 675 462.5 c 128,-1,25
 675 418 675 418 651 387 c 1,26,27
 651 387 651 387 649 385 c 0,28,29
 648 383 648 383 647 383 c 2,30,31
 647 383 647 383 643 379 c 2,32,33
 643 379 643 379 642 378 c 1,34,35
 688 344 688 344 695 291 c 0,36,37
 696 283 696 283 696 275 c 0,38,39
 696 238 696 238 672 212 c 0,40,41
 639 175 639 175 575 175 c 2,42,43
 575 175 575 175 475 175 c 2,44,-1
 450 175 l 1,45,-1
 450 575 l 1,20,-1
182 571 m 1,46,-1
 406 571 l 1,47,-1
 406 520 l 1,48,-1
 232 520 l 1,49,-1
 232 386 l 1,50,-1
 356 386 l 1,51,-1
 356 336 l 1,52,-1
 232 336 l 1,53,-1
 232 175 l 1,54,-1
 182 175 l 1,55,-1
 182 571 l 1,46,-1
500 525 m 1,56,-1
 500 400 l 1,57,-1
 575 400 l 2,58,59
 599 400 599 400 613 419 c 0,60,61
 625 436 625 436 625 464 c 0,62,63
 625 490 625 490 613 507 c 0,64,65
 600 525 600 525 575 525 c 2,66,67
 575 525 575 525 500 525 c 1,56,-1
50 525 m 1,68,-1
 100 525 l 1,69,-1
 100 425 l 1,70,-1
 50 425 l 1,71,-1
 50 525 l 1,68,-1
750 525 m 1,72,-1
 800 525 l 1,73,-1
 800 425 l 1,74,-1
 750 425 l 1,75,-1
 750 525 l 1,72,-1
500 350 m 1,76,-1
 500 225 l 1,77,-1
 575 225 l 2,78,79
 615 225 615 225 633 244 c 0,80,81
 645 256 645 256 645 275 c 0,82,83
 645 279 645 279 644 283 c 0,84,85
 641 309 641 309 622 329 c 0,86,87
 601 350 601 350 575 350 c 2,88,89
 575 350 575 350 500 350 c 1,76,-1
50 325 m 1,90,-1
 100 325 l 1,91,-1
 100 225 l 1,92,-1
 50 225 l 1,93,-1
 50 325 l 1,90,-1
750 325 m 1,94,-1
 800 325 l 1,95,-1
 800 225 l 1,96,-1
 750 225 l 1,97,-1
 750 325 l 1,94,-1
50 125 m 1,98,-1
 100 125 l 1,99,-1
 100 50 l 1,100,-1
 175 50 l 1,101,-1
 175 0 l 1,102,-1
 50 0 l 1,103,-1
 50 125 l 1,98,-1
750 125 m 1,104,-1
 800 125 l 1,105,-1
 800 0 l 1,106,-1
 675 0 l 1,107,-1
 675 50 l 1,108,-1
 750 50 l 1,109,-1
 750 125 l 1,104,-1
275 50 m 1,110,-1
 375 50 l 1,111,-1
 375 0 l 1,112,-1
 275 0 l 1,113,-1
 275 50 l 1,110,-1
475 50 m 1,114,-1
 575 50 l 1,115,-1
 575 0 l 1,116,-1
 475 0 l 1,117,-1
 475 50 l 1,114,-1
EndSplineSet
EndChar

StartChar: xHB
Encoding: 78914 78914 75
Width: 850
GlyphClass: 2
Flags: W
LayerCount: 2
Fore
SplineSet
50 750 m 1,0,-1
 175 750 l 1,1,-1
 175 700 l 1,2,-1
 100 700 l 1,3,-1
 100 625 l 1,4,-1
 50 625 l 1,5,-1
 50 750 l 1,0,-1
275 750 m 1,6,-1
 375 750 l 1,7,-1
 375 700 l 1,8,-1
 275 700 l 1,9,-1
 275 750 l 1,6,-1
475 750 m 1,10,-1
 575 750 l 1,11,-1
 575 700 l 1,12,-1
 475 700 l 1,13,-1
 475 750 l 1,10,-1
675 750 m 1,14,-1
 800 750 l 1,15,-1
 800 625 l 1,16,-1
 750 625 l 1,17,-1
 750 700 l 1,18,-1
 675 700 l 1,19,-1
 675 750 l 1,14,-1
575 575 m 2,20,21
 624 575 624 575 652 538 c 0,22,23
 675 507 675 507 675 462.5 c 128,-1,24
 675 418 675 418 651 387 c 1,25,26
 651 387 651 387 649 385 c 0,27,28
 648 383 648 383 647 383 c 2,29,30
 647 383 647 383 643 379 c 2,31,32
 643 379 643 379 642 378 c 1,33,34
 688 344 688 344 695 291 c 0,35,36
 696 283 696 283 696 275 c 0,37,38
 696 238 696 238 672 212 c 0,39,40
 639 175 639 175 575 175 c 2,41,42
 575 175 575 175 475 175 c 2,43,-1
 450 175 l 1,44,-1
 450 575 l 1,45,-1
 575 575 l 2,20,21
182 574 m 1,46,-1
 232 574 l 1,47,-1
 232 386 l 1,48,-1
 340 386 l 1,49,-1
 340 574 l 1,50,-1
 390 574 l 1,51,-1
 390 175 l 1,52,-1
 340 175 l 1,53,-1
 340 336 l 1,54,-1
 232 336 l 1,55,-1
 232 175 l 1,56,-1
 182 175 l 1,57,-1
 182 574 l 1,46,-1
575 525 m 2,58,59
 575 525 575 525 500 525 c 1,60,-1
 500 400 l 1,61,-1
 575 400 l 2,62,63
 599 400 599 400 613 419 c 0,64,65
 625 436 625 436 625 464 c 0,66,67
 625 490 625 490 613 507 c 0,68,69
 600 525 600 525 575 525 c 2,58,59
50 525 m 1,70,-1
 100 525 l 1,71,-1
 100 425 l 1,72,-1
 50 425 l 1,73,-1
 50 525 l 1,70,-1
750 525 m 1,74,-1
 800 525 l 1,75,-1
 800 425 l 1,76,-1
 750 425 l 1,77,-1
 750 525 l 1,74,-1
500 350 m 1,78,-1
 500 225 l 1,79,-1
 575 225 l 2,80,81
 615 225 615 225 633 244 c 0,82,83
 645 256 645 256 645 275 c 0,84,85
 645 279 645 279 644 283 c 0,86,87
 641 309 641 309 622 329 c 0,88,89
 601 350 601 350 575 350 c 2,90,91
 575 350 575 350 500 350 c 1,78,-1
50 325 m 1,92,-1
 100 325 l 1,93,-1
 100 225 l 1,94,-1
 50 225 l 1,95,-1
 50 325 l 1,92,-1
750 325 m 1,96,-1
 800 325 l 1,97,-1
 800 225 l 1,98,-1
 750 225 l 1,99,-1
 750 325 l 1,96,-1
50 125 m 1,100,-1
 100 125 l 1,101,-1
 100 50 l 1,102,-1
 175 50 l 1,103,-1
 175 0 l 1,104,-1
 50 0 l 1,105,-1
 50 125 l 1,100,-1
750 125 m 1,106,-1
 800 125 l 1,107,-1
 800 0 l 1,108,-1
 675 0 l 1,109,-1
 675 50 l 1,110,-1
 750 50 l 1,111,-1
 750 125 l 1,106,-1
275 50 m 1,112,-1
 375 50 l 1,113,-1
 375 0 l 1,114,-1
 275 0 l 1,115,-1
 275 50 l 1,112,-1
475 50 m 1,116,-1
 575 50 l 1,117,-1
 575 0 l 1,118,-1
 475 0 l 1,119,-1
 475 50 l 1,116,-1
EndSplineSet
EndChar

StartChar: A1
Encoding: 77824 77824 76
Width: 835
VWidth: -40
Flags: W
LayerCount: 2
Fore
SplineSet
327 296 m 1,0,1
 327 296 327 296 356 293.5 c 128,-1,2
 385 291 385 291 394 282.5 c 128,-1,3
 403 274 403 274 403 262 c 128,-1,4
 403 250 403 250 394.5 241 c 128,-1,5
 386 232 386 232 373 232 c 2,6,-1
 371 232 l 1,7,-1
 366 232 l 2,8,9
 271 232 271 232 196 183 c 0,10,11
 145 149 145 149 117 104 c 0,12,13
 111 92 111 92 111 85 c 0,14,15
 111 65 111 65 151 64 c 1,16,17
 151 64 151 64 159 64 c 0,18,19
 230 64 230 64 332 127 c 0,20,21
 366 148 366 148 376 148 c 128,-1,22
 386 148 386 148 394.5 139.5 c 128,-1,23
 403 131 403 131 403 119 c 128,-1,24
 403 107 403 107 394 97 c 2,25,-1
 374 76 l 2,26,27
 374 75 374 75 349 52 c 1,28,-1
 756 52 l 2,29,30
 769 52 769 52 777 43.5 c 128,-1,31
 785 35 785 35 785 22.5 c 128,-1,32
 785 10 785 10 777 1.5 c 128,-1,33
 769 -7 769 -7 756 -7 c 2,34,-1
 277 -7 l 2,35,36
 251 -7 251 -7 248 13 c 1,37,-1
 245 26 l 1,38,-1
 230 22 l 2,39,40
 167 5 167 5 155 5 c 2,41,42
 155 5 155 5 133 5 c 1,43,44
 85 8 85 8 64 36 c 0,45,46
 50 54 50 54 50 74.5 c 128,-1,47
 50 95 50 95 54 110 c 0,48,49
 71 173 71 173 163.5 234.5 c 128,-1,50
 256 296 256 296 327 296 c 1,0,1
EndSplineSet
EndChar

StartChar: A12
Encoding: 77838 77838 77
Width: 936
VWidth: -39
Flags: W
LayerCount: 2
Fore
SplineSet
201 274 m 0,0,1
 140 274 140 274 114 216 c 0,2,3
 99 184 99 184 80 184 c 2,4,-1
 79 184 l 2,5,6
 75 184 75 184 68 187 c 0,7,8
 49 194 49 194 49 213 c 0,9,10
 49 217 49 217 55 232 c 0,11,12
 72 275 72 275 111.5 304 c 128,-1,13
 151 333 151 333 191 333 c 0,14,15
 274 333 274 333 322 273 c 0,16,17
 350 237 350 237 350 193 c 0,18,19
 350 132 350 132 288 80 c 2,20,-1
 257 54 l 1,21,-1
 857 54 l 2,22,23
 870 54 870 54 878.5 45.5 c 128,-1,24
 887 37 887 37 886.5 24.5 c 128,-1,25
 886 12 886 12 878.5 3.5 c 128,-1,26
 871 -5 871 -5 857 -5 c 2,27,-1
 112 -5 l 2,28,29
 99 -5 99 -5 91 3.5 c 128,-1,30
 83 12 83 12 83 24.5 c 128,-1,31
 83 37 83 37 89.5 43.5 c 128,-1,32
 96 50 96 50 130 59 c 0,33,34
 244 88 244 88 280 148 c 0,35,36
 293 170 293 170 293 191 c 128,-1,37
 293 212 293 212 276 235 c 0,38,39
 247 274 247 274 201 274 c 0,0,1
EndSplineSet
EndChar

StartChar: A15
Encoding: 77842 77842 78
Width: 640
VWidth: -35
Flags: W
LayerCount: 2
Fore
SplineSet
467 392 m 2,0,-1
 469 392 l 2,1,2
 477 392 477 392 483 388 c 2,3,-1
 554 351 l 2,4,5
 572 342 572 342 572 330 c 128,-1,6
 572 318 572 318 568 311 c 2,7,-1
 531 238 l 2,8,9
 523 224 523 224 505 224 c 2,10,11
 505 224 505 224 500 224 c 128,-1,12
 495 224 495 224 484 230 c 0,13,14
 474 236 474 236 474 248 c 128,-1,15
 474 260 474 260 478 266 c 1,16,-1
 478 267 l 1,17,-1
 494 300 l 1,18,-1
 500 312 l 1,19,-1
 488 319 l 1,20,-1
 454 335 l 2,21,22
 438 343 438 343 438 356 c 128,-1,23
 438 369 438 369 443 375 c 0,24,25
 451 392 451 392 467 392 c 2,0,-1
560 794 m 2,26,-1
 561 794 l 2,27,28
 572 794 572 794 582 786 c 128,-1,29
 592 778 592 778 591.5 766.5 c 128,-1,30
 591 755 591 755 582 744 c 2,31,-1
 123 256 l 1,32,-1
 302 76 l 2,33,34
 311 67 311 67 311 54 c 0,35,36
 312 40 312 40 302 32 c 128,-1,37
 292 24 292 24 280 24 c 128,-1,38
 268 24 268 24 264 28 c 0,39,40
 259 32 259 32 221 71 c 0,41,42
 50 242 50 242 50 261 c 0,43,44
 50 265 50 265 60 276 c 2,45,-1
 540 785 l 1,46,47
 547 794 547 794 560 794 c 2,26,-1
EndSplineSet
EndChar

StartChar: A17
Encoding: 77844 77844 79
Width: 445
VWidth: -32
Flags: W
LayerCount: 2
Fore
SplineSet
211 1061 m 128,-1,1
 224 1061 224 1061 232.5 1053 c 128,-1,2
 241 1045 241 1045 241 1032 c 2,3,-1
 241 342 l 1,4,-1
 349 405 l 2,5,6
 358 411 358 411 371 411 c 128,-1,7
 384 411 384 411 390 400 c 0,8,9
 406 370 406 370 380 354 c 2,10,-1
 143 212 l 1,11,-1
 375 97 l 2,12,13
 390 89 390 89 390 67 c 0,14,15
 390 61 390 61 389 59 c 2,16,-1
 388 58 l 1,17,18
 379 40 379 40 360 40 c 0,19,20
 352 40 352 40 349 43 c 1,21,-1
 67 183 l 2,22,23
 50 192 50 192 50 210 c 128,-1,24
 50 228 50 228 64 235 c 1,25,-1
 185 308 l 1,26,-1
 182 319 l 1,27,28
 182 319 182 319 182 1032 c 0,29,30
 182 1045 182 1045 190 1053 c 128,-1,0
 198 1061 198 1061 211 1061 c 128,-1,1
EndSplineSet
EndChar

StartChar: A17a
Encoding: 77845 77845 80
Width: 603
VWidth: -36
Flags: W
LayerCount: 2
Fore
SplineSet
317 632 m 1,0,-1
 295 632 l 1,1,-1
 295 619 l 1,2,-1
 295 601 l 1,3,-1
 295 567 l 1,4,-1
 320 591 l 2,5,6
 324 595 324 595 326.5 599 c 128,-1,7
 329 603 329 603 332 606 c 1,8,-1
 324 602 l 2,9,10
 323 602 323 602 309 616 c 1,11,-1
 329 628 l 1,12,-1
 323 631 l 1,13,14
 323 630 323 630 320 632 c 1,15,-1
 317 632 l 1,0,-1
263 93 m 1,16,17
 52 18 52 18 260 93 c 1,18,-1
 260 101 l 1,19,-1
 251 101 l 1,20,-1
 250 102 l 1,21,-1
 248 103 l 1,22,-1
 247 105 l 2,23,24
 246 105 246 105 246 106 c 2,25,-1
 246 113 l 1,26,-1
 243 114 l 1,27,-1
 242 116 l 1,28,-1
 243 120 l 1,29,-1
 238 415 l 1,30,-1
 221 409 l 2,31,32
 182 396 182 396 154 376 c 0,33,34
 111 347 111 347 111 319 c 128,-1,35
 111 291 111 291 127.5 271.5 c 128,-1,36
 144 252 144 252 144 240 c 128,-1,37
 144 228 144 228 135 220 c 0,38,39
 112 198 112 198 81 233 c 128,-1,40
 50 268 50 268 50 309 c 0,41,42
 50 376 50 376 115 423 c 0,43,44
 150 448 150 448 178.5 457.5 c 128,-1,45
 207 467 207 467 215.5 468 c 128,-1,46
 224 469 224 469 228 470 c 2,47,-1
 238 474 l 1,48,-1
 235 665 l 2,49,50
 235 696 235 696 287 696 c 0,51,52
 366 696 366 696 390 645 c 0,53,54
 397 630 397 630 397 616 c 128,-1,55
 397 602 397 602 386.5 578.5 c 128,-1,56
 376 555 376 555 349 538 c 0,57,58
 331 526 331 526 318 532 c 2,59,-1
 296 544 l 1,60,-1
 297 520 l 1,61,-1
 298 486 l 1,62,-1
 298 474 l 1,63,-1
 310 473 l 1,64,65
 362 466 362 466 393 454 c 0,66,67
 454 430 454 430 519 367 c 0,68,69
 553 334 553 334 553.5 323 c 128,-1,70
 554 312 554 312 545 302.5 c 128,-1,71
 536 293 536 293 524.5 293 c 128,-1,72
 513 293 513 293 468.5 335 c 128,-1,73
 424 377 424 377 388 391 c 128,-1,74
 352 405 352 405 298 413 c 1,75,-1
 301 164 l 1,76,-1
 319 170 l 1,77,-1
 356 181 l 1,78,-1
 361 183 l 1,79,-1
 365 183 l 1,80,-1
 367 185 l 1,81,-1
 368 185 l 1,82,-1
 370 185 l 1,83,-1
 371 185 l 1,84,85
 373 184 373 184 373.5 184.5 c 128,-1,86
 374 185 374 185 376 183 c 1,87,-1
 378 183 l 1,88,-1
 486 149 l 2,89,90
 507 142 507 142 507 121 c 0,91,92
 507 91 507 91 477 91 c 0,93,94
 471 91 471 91 469 92 c 1,95,-1
 468 92 l 1,96,-1
 455 96 l 1,97,-1
 424 106 l 1,98,-1
 438 77 l 1,99,-1
 446 61 l 2,100,101
 450 54 450 54 450 46 c 0,102,103
 450 28 450 28 431 19 c 0,104,105
 426 17 426 17 419 17 c 0,106,107
 399 17 399 17 391 33 c 2,108,-1
 353 118 l 1,109,110
 329 109 329 109 311.5 103.5 c 128,-1,111
 294 98 294 98 285 93 c 1,112,113
 56 18 56 18 283 93 c 1,114,-1
 280 93 l 1,115,-1
 278 91 l 1,116,-1
 277 91 l 1,117,-1
 274 91 l 1,118,-1
 273 91 l 1,119,-1
 270 91 l 1,120,-1
 266 91 l 1,121,-1
 265 91 l 1,122,-1
 263 93 l 1,16,17
EndSplineSet
EndChar

StartChar: A19
Encoding: 77847 77847 81
Width: 445
VWidth: -32
Flags: W
LayerCount: 2
Fore
SplineSet
211 1061 m 128,-1,1
 224 1061 224 1061 232.5 1053 c 128,-1,2
 241 1045 241 1045 241 1032 c 2,3,-1
 241 342 l 1,4,-1
 349 405 l 2,5,6
 358 411 358 411 371 411 c 128,-1,7
 384 411 384 411 390 400 c 0,8,9
 406 370 406 370 380 354 c 2,10,-1
 143 212 l 1,11,-1
 375 97 l 2,12,13
 390 89 390 89 390 67 c 0,14,15
 390 61 390 61 389 59 c 2,16,-1
 388 58 l 1,17,18
 379 40 379 40 360 40 c 0,19,20
 352 40 352 40 349 43 c 1,21,-1
 67 183 l 2,22,23
 50 192 50 192 50 210 c 128,-1,24
 50 228 50 228 64 235 c 1,25,-1
 185 308 l 1,26,-1
 182 319 l 1,27,28
 182 319 182 319 182 1032 c 0,29,30
 182 1045 182 1045 190 1053 c 128,-1,0
 198 1061 198 1061 211 1061 c 128,-1,1
EndSplineSet
EndChar

StartChar: A2
Encoding: 77825 77825 82
Width: 416
VWidth: -35
Flags: W
LayerCount: 2
Fore
SplineSet
121 766 m 1,0,1
 121 766 121 766 113 613 c 1,2,3
 113 562 113 562 130 540 c 0,4,5
 148 520 148 520 191 520 c 128,-1,6
 234 520 234 520 307 534 c 1,7,-1
 307 763 l 2,8,9
 307 776 307 776 315.5 784 c 128,-1,10
 324 792 324 792 336.5 792 c 128,-1,11
 349 792 349 792 357.5 783.5 c 128,-1,12
 366 775 366 775 366 763 c 2,13,-1
 366 53 l 2,14,15
 366 40 366 40 357.5 32 c 128,-1,16
 349 24 349 24 336.5 24 c 128,-1,17
 324 24 324 24 315.5 32 c 128,-1,18
 307 40 307 40 307 53 c 2,19,-1
 307 473 l 1,20,-1
 289 470 l 1,21,22
 237 460 237 460 201.5 460 c 128,-1,23
 166 460 166 460 139 468.5 c 0,24,25
 112 476 112 476 90 498 c 0,26,27
 50 538 50 538 50 622 c 0,28,29
 50 656 50 656 56 705 c 128,-1,30
 62 754 62 754 62 767 c 128,-1,31
 62 780 62 780 71 788 c 128,-1,32
 80 796 80 796 91 796 c 2,33,-1
 92 796 l 2,34,35
 104 796 104 796 112.5 787 c 128,-1,36
 121 778 121 778 121 767 c 2,37,-1
 121 766 l 1,0,1
EndSplineSet
EndChar

StartChar: A21
Encoding: 77849 77849 83
Width: 879
VWidth: -36
Flags: W
LayerCount: 2
Fore
SplineSet
50 632 m 128,-1,1
 50 651 50 651 85 668 c 128,-1,2
 120 685 120 685 171 685 c 128,-1,3
 222 685 222 685 255.5 668 c 128,-1,4
 289 651 289 651 289 631 c 0,5,6
 289 611 289 611 266 603 c 0,7,8
 259 601 259 601 238.5 597.5 c 128,-1,9
 218 594 218 594 203 591 c 1,10,-1
 203 107 l 2,11,12
 203 102 203 102 206 98 c 1,13,-1
 206 67 l 1,14,15
 240 101 240 101 244 106 c 0,16,17
 249 111 249 111 252 119 c 1,18,-1
 252 120 l 1,19,-1
 407 480 l 2,20,21
 415 499 415 499 433 499 c 0,22,23
 439 499 439 499 446 496 c 0,24,25
 464 489 464 489 464 470 c 0,26,27
 464 464 464 464 462 458 c 2,28,-1
 336 166 l 1,29,-1
 800 166 l 2,30,31
 813 166 813 166 821 157 c 128,-1,32
 829 148 829 148 829.5 135.5 c 128,-1,33
 830 123 830 123 820.5 114 c 128,-1,34
 811 105 811 105 800 105 c 2,35,-1
 307 105 l 1,36,-1
 307 93 l 1,37,38
 285 38 285 38 229 20 c 0,39,40
 216 16 216 16 200 16 c 128,-1,41
 184 16 184 16 169 33 c 0,42,43
 146 57 146 57 144 105 c 1,44,-1
 144 589 l 1,45,46
 80 601 80 601 65 607 c 128,-1,0
 50 613 50 613 50 632 c 128,-1,1
EndSplineSet
EndChar

StartChar: A24
Encoding: 77852 77852 84
Width: 650
VWidth: -38
Flags: W
LayerCount: 2
Fore
SplineSet
112 377 m 2,0,1
 112 366 112 366 111.5 358.5 c 128,-1,2
 111 351 111 351 111 305 c 2,3,-1
 111 293 l 1,4,5
 129 167 129 167 200 104 c 1,6,-1
 207 97 l 1,7,8
 336 169 336 169 384 209 c 1,9,-1
 398 223 l 1,10,-1
 381 232 l 1,11,12
 211 326 211 326 136 388 c 2,13,-1
 112 408 l 1,14,-1
 112 377 l 2,0,1
52 471 m 1,15,-1
 52 472 l 2,16,17
 52 484 52 484 59.5 492.5 c 128,-1,18
 67 501 67 501 79 503 c 1,19,-1
 81 503 l 2,20,21
 92 504 92 504 98 498 c 0,22,23
 124 472 124 472 169.5 436.5 c 128,-1,24
 215 401 215 401 233.5 389.5 c 128,-1,25
 252 378 252 378 282 358 c 0,26,27
 330 326 330 326 439 268 c 1,28,-1
 447 276 l 1,29,30
 510 351 510 351 531.5 403.5 c 128,-1,31
 553 456 553 456 570 456 c 0,32,33
 574 456 574 456 580 453 c 0,34,35
 600 445 600 445 600 427 c 0,36,37
 600 419 600 419 586.5 384.5 c 128,-1,38
 573 350 573 350 535 294 c 128,-1,39
 497 238 497 238 460 200 c 0,40,41
 389 127 389 127 274 59 c 0,42,43
 239 39 239 39 207 22 c 128,-1,44
 175 5 175 5 160.5 5 c 128,-1,45
 146 5 146 5 140 21 c 0,46,47
 136 27 136 27 136 38 c 128,-1,48
 136 49 136 49 145 58 c 2,49,-1
 156 68 l 1,50,-1
 146 78 l 1,51,52
 68 160 68 160 54 273 c 1,53,-1
 54 274 l 1,54,55
 50 292 50 292 50 347 c 2,56,-1
 52 471 l 1,15,-1
EndSplineSet
EndChar

StartChar: A26
Encoding: 77854 77854 85
Width: 813
VWidth: -34
Flags: W
LayerCount: 2
Fore
SplineSet
302 776 m 2,0,1
 302 789 302 789 310.5 797.5 c 128,-1,2
 319 806 319 806 331.5 806 c 128,-1,3
 344 806 344 806 352.5 797 c 128,-1,4
 361 788 361 788 361 776 c 2,5,-1
 361 429 l 1,6,-1
 717 641 l 2,7,8
 724 645 724 645 737.5 645 c 128,-1,9
 751 645 751 645 757 634 c 128,-1,10
 763 623 763 623 763 610.5 c 128,-1,11
 763 598 763 598 748 590 c 2,12,-1
 362 359 l 2,13,14
 361 359 361 359 361 190 c 0,15,16
 361 111 361 111 395 92 c 0,17,18
 409 84 409 84 428 84 c 0,19,20
 510 85 510 85 664 187 c 0,21,22
 714 220 714 220 727 220 c 128,-1,23
 740 220 740 220 747 207 c 0,24,25
 751 198 751 198 751 185.5 c 128,-1,26
 751 173 751 173 726 157 c 0,27,28
 720 153 720 153 694 136 c 0,29,30
 528 25 528 25 431 25 c 2,31,32
 431 25 431 25 427 25 c 0,33,34
 392 25 392 25 366 40 c 0,35,36
 302 76 302 76 302 190 c 2,37,-1
 302 325 l 1,38,39
 302 324 302 324 233 283 c 1,40,-1
 231 283 l 1,41,42
 148 238 148 238 118 198 c 0,43,44
 107 183 107 183 107 176.5 c 128,-1,45
 107 170 107 170 116 158 c 0,46,47
 130 139 130 139 192.5 111.5 c 128,-1,48
 255 84 255 84 255 64 c 0,49,50
 255 60 255 60 253 54 c 0,51,52
 245 36 245 36 225 36 c 2,53,54
 225 36 225 36 222 36 c 128,-1,55
 219 36 219 36 187 48 c 0,56,57
 90 86 90 86 62 131 c 0,58,59
 50 151 50 151 50 178.5 c 128,-1,60
 50 206 50 206 69 234 c 0,61,62
 102 280 102 280 199 333 c 1,63,-1
 302 393 l 1,64,-1
 302 776 l 2,0,1
EndSplineSet
EndChar

StartChar: A28
Encoding: 77856 77856 86
Width: 346
VWidth: -35
Flags: W
LayerCount: 2
Fore
SplineSet
80 796 m 128,-1,1
 93 796 93 796 101.5 787.5 c 128,-1,2
 110 779 110 779 110 695.5 c 128,-1,3
 110 612 110 612 135 533 c 0,4,5
 146 499 146 499 161 473 c 1,6,-1
 173 454 l 1,7,-1
 185 473 l 2,8,9
 234 550 234 550 236 717 c 0,10,11
 236 780 236 780 248 791 c 0,12,13
 253 796 253 796 266 796 c 128,-1,14
 279 796 279 796 287.5 787.5 c 128,-1,15
 296 779 296 779 296 720 c 0,16,17
 296 604 296 604 267 511 c 0,18,19
 250 458 250 458 239.5 444 c 0,20,21
 228 430 228 430 220 428 c 0,22,23
 209 425 209 425 200 418 c 1,24,-1
 200 95 l 1,25,-1
 219 100 l 1,26,-1
 254 110 l 1,27,-1
 255 110 l 1,28,29
 260 112 260 112 268 112 c 0,30,31
 288 112 288 112 294 90 c 0,32,33
 295 87 295 87 295 80 c 128,-1,34
 295 73 295 73 289 65.5 c 128,-1,35
 283 58 283 58 273 55 c 2,36,-1
 180 25 l 2,37,38
 177 24 177 24 167.5 24 c 128,-1,39
 158 24 158 24 150 32 c 128,-1,40
 142 40 142 40 142 53 c 2,41,-1
 142 420 l 1,42,43
 129 427 129 427 123 429 c 0,44,45
 102 436 102 436 82 501 c 0,46,47
 50 604 50 604 50 720 c 0,48,49
 50 780 50 780 62 791 c 0,50,0
 67 796 67 796 80 796 c 128,-1,1
EndSplineSet
EndChar

StartChar: A30
Encoding: 77858 77858 87
Width: 956
VWidth: -32
Flags: W
LayerCount: 2
Fore
SplineSet
331 780 m 1,0,-1
 864 1007 l 2,1,2
 868 1008 868 1008 876 1008 c 0,3,4
 890 1005 890 1005 898 994 c 0,5,6
 906 983 906 983 906 971 c 0,7,8
 906 959 906 959 888 951 c 2,9,-1
 331 715 l 2,10,11
 330 715 330 715 330 243 c 1,12,13
 337 170 337 170 378 134 c 0,14,15
 420 98 420 98 474 97 c 0,16,17
 528 97 528 97 567 130 c 0,18,19
 606 163 606 163 611 218 c 0,20,21
 613 244 613 244 622 252 c 0,22,23
 631 260 631 260 643 259 c 2,24,-1
 648 259 l 1,25,26
 659 258 659 258 666 249.5 c 128,-1,27
 673 241 673 241 673 229 c 2,28,-1
 673 227 l 1,29,30
 664 140 664 140 606 88 c 0,31,32
 548 36 548 36 474 37 c 0,33,34
 399 37 399 37 339 92 c 0,35,36
 279 147 279 147 271 237 c 1,37,-1
 271 689 l 1,38,-1
 92 613 l 2,39,40
 88 612 88 612 80 612 c 0,41,42
 66 615 66 615 58 626 c 0,43,44
 50 637 50 637 50 649 c 0,45,46
 50 661 50 661 68 669 c 2,47,-1
 270 754 l 2,48,49
 271 754 271 754 271 949 c 0,50,51
 271 962 271 962 279.5 970.5 c 128,-1,52
 288 979 288 979 300.5 979 c 128,-1,53
 313 979 313 979 321.5 970.5 c 128,-1,54
 330 962 330 962 330 949 c 2,55,-1
 331 780 l 1,0,-1
EndSplineSet
EndChar

StartChar: A33
Encoding: 77862 77862 88
Width: 854
VWidth: -35
Flags: W
LayerCount: 2
Fore
SplineSet
290 776 m 128,-1,1
 303 776 303 776 311.5 767.5 c 128,-1,2
 320 759 320 759 320 746 c 2,3,-1
 320 476 l 1,4,-1
 409 522 l 1,5,-1
 409 523 l 1,6,-1
 761 692 l 2,7,8
 768 696 768 696 780.5 696 c 128,-1,9
 793 696 793 696 801 679 c 0,10,11
 804 673 804 673 804 665 c 0,12,13
 804 646 804 646 787 638 c 2,14,-1
 434 469 l 1,15,-1
 320 411 l 1,16,-1
 320 182 l 2,17,18
 320 117 320 117 332 102 c 0,19,20
 352 82 352 82 421 82 c 2,21,-1
 611 82 l 2,22,23
 624 82 624 82 633 73.5 c 128,-1,24
 642 65 642 65 642 52 c 128,-1,25
 642 39 642 39 633 30.5 c 128,-1,26
 624 22 624 22 611 22 c 2,27,-1
 421 22 l 2,28,29
 373 22 373 22 337.5 32.5 c 128,-1,30
 302 43 302 43 281 72 c 0,31,32
 273 82 273 82 270.5 90 c 128,-1,33
 268 98 268 98 266 103 c 0,34,35
 261 116 261 116 259 153 c 1,36,-1
 259 379 l 1,37,-1
 195 344 l 1,38,39
 110 288 110 288 110 233 c 0,40,41
 110 187 110 187 162 103 c 0,42,43
 187 62 187 62 187 49.5 c 128,-1,44
 187 37 187 37 176.5 30 c 128,-1,45
 166 23 166 23 157 23 c 0,46,47
 143 24 143 24 113 70 c 0,48,49
 50 171 50 171 50 235 c 0,50,51
 50 275 50 275 75 313.5 c 128,-1,52
 100 352 100 352 161 394 c 1,53,-1
 165 397 l 1,54,-1
 259 446 l 1,55,-1
 259 746 l 2,56,57
 259 759 259 759 268 767.5 c 128,-1,0
 277 776 277 776 290 776 c 128,-1,1
EndSplineSet
EndChar

StartChar: A35
Encoding: 77864 77864 89
Width: 1460
VWidth: -32
Flags: W
LayerCount: 2
Fore
SplineSet
803 730 m 2,0,-1
 804 730 l 2,1,2
 816 730 816 730 825 721.5 c 128,-1,3
 834 713 834 713 834 700.5 c 128,-1,4
 834 688 834 688 827 681 c 2,5,-1
 602 420 l 2,6,7
 602 419 602 419 884 419 c 0,8,9
 890 421 890 421 898.5 421 c 128,-1,10
 907 421 907 421 914.5 412 c 128,-1,11
 922 403 922 403 922 390.5 c 128,-1,12
 922 378 922 378 911 370 c 1,13,-1
 629 109 l 1,14,-1
 1381 109 l 2,15,16
 1394 109 1394 109 1402 100.5 c 128,-1,17
 1410 92 1410 92 1410 79.5 c 128,-1,18
 1410 67 1410 67 1401.5 57.5 c 128,-1,19
 1393 48 1393 48 1381 48 c 2,20,-1
 553 48 l 2,21,22
 540 48 540 48 531 57.5 c 128,-1,23
 522 67 522 67 522 79.5 c 128,-1,24
 522 92 522 92 532 100 c 2,25,-1
 814 360 l 1,26,-1
 536 360 l 2,27,28
 523 360 523 360 515 368 c 128,-1,29
 507 376 507 376 507 389 c 128,-1,30
 507 402 507 402 510 406.5 c 128,-1,31
 513 411 513 411 651.5 570.5 c 128,-1,32
 790 730 790 730 803 730 c 2,0,-1
209.5 1061 m 128,-1,34
 222 1061 222 1061 231 1053 c 128,-1,35
 240 1045 240 1045 240 1032 c 2,36,-1
 240 342 l 1,37,-1
 348 405 l 2,38,39
 357 411 357 411 369.5 411 c 128,-1,40
 382 411 382 411 387.5 400 c 128,-1,41
 393 389 393 389 393 375.5 c 128,-1,42
 393 362 393 362 379 355 c 1,43,-1
 141 212 l 1,44,-1
 372 97 l 2,45,46
 389 88 389 88 389 69 c 0,47,48
 389 63 389 63 386 57 c 0,49,50
 378 40 378 40 359 40 c 0,51,52
 351 40 351 40 348 43 c 1,53,-1
 67 183 l 2,54,55
 50 192 50 192 50 210 c 128,-1,56
 50 228 50 228 64 236 c 2,57,-1
 184 308 l 1,58,59
 179 325 179 325 179 326 c 2,60,-1
 179 1032 l 2,61,62
 179 1045 179 1045 188 1053 c 128,-1,33
 197 1061 197 1061 209.5 1061 c 128,-1,34
EndSplineSet
EndChar

StartChar: A40
Encoding: 77869 77869 90
Width: 444
VWidth: -32
Flags: W
LayerCount: 2
Fore
SplineSet
211.5 1061 m 128,-1,1
 224 1061 224 1061 232.5 1053 c 128,-1,2
 241 1045 241 1045 241 1032 c 2,3,-1
 241 342 l 1,4,-1
 349 405 l 2,5,6
 358 411 358 411 370.5 411 c 128,-1,7
 383 411 383 411 389 400.5 c 128,-1,8
 395 390 395 390 394.5 376 c 128,-1,9
 394 362 394 362 380 355 c 1,10,-1
 143 212 l 1,11,-1
 375 97 l 2,12,13
 390 89 390 89 390 67 c 0,14,15
 390 61 390 61 387 55 c 0,16,17
 380 40 380 40 365.5 40 c 128,-1,18
 351 40 351 40 349 43 c 1,19,-1
 67 183 l 2,20,21
 50 192 50 192 50 209.5 c 128,-1,22
 50 227 50 227 65 236 c 2,23,-1
 185 308 l 1,24,-1
 182 319 l 1,25,26
 182 319 182 319 182 1032 c 0,27,28
 182 1045 182 1045 190 1053 c 0,29,0
 199 1061 199 1061 211.5 1061 c 128,-1,1
EndSplineSet
EndChar

StartChar: A48
Encoding: 77881 77881 91
Width: 936
VWidth: -39
Flags: W
LayerCount: 2
Fore
SplineSet
201 274 m 0,0,1
 140 274 140 274 114 216 c 0,2,3
 99 184 99 184 80 184 c 2,4,-1
 79 184 l 2,5,6
 75 184 75 184 68 187 c 0,7,8
 49 194 49 194 49 213 c 0,9,10
 49 217 49 217 55 232 c 0,11,12
 72 275 72 275 111.5 304 c 128,-1,13
 151 333 151 333 191 333 c 0,14,15
 274 333 274 333 322 273 c 0,16,17
 350 237 350 237 350 193 c 0,18,19
 350 132 350 132 288 80 c 2,20,-1
 257 54 l 1,21,-1
 857 54 l 2,22,23
 870 54 870 54 878.5 45.5 c 128,-1,24
 887 37 887 37 886.5 24.5 c 128,-1,25
 886 12 886 12 878.5 3.5 c 128,-1,26
 871 -5 871 -5 857 -5 c 2,27,-1
 112 -5 l 2,28,29
 99 -5 99 -5 91 3.5 c 128,-1,30
 83 12 83 12 83 24.5 c 128,-1,31
 83 37 83 37 89.5 43.5 c 128,-1,32
 96 50 96 50 130 59 c 0,33,34
 244 88 244 88 280 148 c 0,35,36
 293 170 293 170 293 191 c 128,-1,37
 293 212 293 212 276 235 c 0,38,39
 247 274 247 274 201 274 c 0,0,1
EndSplineSet
EndChar

StartChar: A5
Encoding: 77828 77828 92
Width: 654
VWidth: -36
Flags: W
LayerCount: 2
Fore
SplineSet
214 853 m 0,0,1
 214 883 214 883 266 883 c 0,2,3
 348 883 348 883 431 834 c 0,4,5
 552 762 552 762 580 610 c 0,6,7
 604 477 604 477 604 52 c 0,8,9
 604 -70 604 -70 602 -176 c 0,10,11
 602 -189 602 -189 594 -197 c 128,-1,12
 586 -205 586 -205 573 -205 c 128,-1,13
 560 -205 560 -205 552 -196.5 c 128,-1,14
 544 -188 544 -188 544 -157 c 2,15,16
 544 -157 544 -157 543.5 -117 c 128,-1,17
 543 -77 543 -77 542 96 c 0,18,19
 538 506 538 506 518 614.5 c 128,-1,20
 498 723 498 723 404 781 c 0,21,22
 336 822 336 822 269 822 c 2,23,24
 268 822 268 822 250 822 c 0,25,26
 217 822 217 822 215 847 c 0,27,28
 214 850 214 850 214 853 c 0,0,1
285 349 m 0,29,30
 315 366 315 366 353 396 c 0,31,32
 390 426 390 426 394 426 c 0,33,34
 400 426 400 426 404 423 c 0,35,36
 420 415 420 415 420 395 c 0,37,38
 420 389 420 389 417 383 c 0,39,40
 381 311 381 311 290 280 c 0,41,42
 236 262 236 262 137 250 c 1,43,-1
 124 138 l 1,44,-1
 112 32 l 1,45,-1
 487 34 l 2,46,47
 507 34 507 34 514 14 c 2,48,-1
 517 6 l 1,49,-1
 514 -7 l 2,50,51
 509 -27 509 -27 487 -27 c 2,52,-1
 79 -27 l 2,53,54
 66 -27 66 -27 58 -18.5 c 128,-1,55
 50 -10 50 -10 50.5 -4.5 c 128,-1,56
 51 1 51 1 52.5 23 c 0,57,58
 54 46 54 46 66 136 c 0,59,60
 89 309 89 309 89 400 c 0,61,62
 89 549 89 549 56 672 c 0,63,64
 50 693 50 693 50 701 c 128,-1,65
 50 709 50 709 58 717.5 c 128,-1,66
 66 726 66 726 79.5 726 c 128,-1,67
 93 726 93 726 109 713 c 0,68,69
 140 687 140 687 171.5 687 c 128,-1,70
 203 687 203 687 228 699.5 c 128,-1,71
 253 712 253 712 266 712 c 128,-1,72
 279 712 279 712 285 701 c 128,-1,73
 291 690 291 690 291 682 c 0,74,75
 291 664 291 664 263 650 c 0,76,77
 220 630 220 630 171 629 c 0,78,79
 154 629 154 629 121 632 c 1,80,-1
 125 615 l 2,81,82
 147 521 147 521 147 422 c 2,83,-1
 147 409 l 1,84,85
 166 408 166 408 173 408 c 0,86,87
 212 408 212 408 255 441 c 128,-1,88
 298 474 298 474 305 521 c 0,89,90
 310 554 310 554 335 554 c 2,91,-1
 341 554 l 2,92,93
 349 554 349 554 357 544.5 c 128,-1,94
 365 535 365 535 365 523 c 2,95,-1
 365 517 l 1,96,97
 355 462 355 462 319 419 c 0,98,99
 285 378 285 378 224 358 c 0,100,101
 205 353 205 353 146 348 c 1,102,-1
 146 334 l 1,103,-1
 146 328 l 1,104,-1
 146 310 l 1,105,106
 234 320 234 320 285 349 c 0,29,30
EndSplineSet
EndChar

StartChar: A51
Encoding: 77884 77884 93
Width: 936
VWidth: -39
Flags: W
LayerCount: 2
Fore
SplineSet
201 274 m 0,0,1
 140 274 140 274 114 216 c 0,2,3
 99 184 99 184 80 184 c 2,4,-1
 79 184 l 2,5,6
 75 184 75 184 68 187 c 0,7,8
 49 194 49 194 49 213 c 0,9,10
 49 217 49 217 55 232 c 0,11,12
 72 275 72 275 111.5 304 c 128,-1,13
 151 333 151 333 191 333 c 0,14,15
 274 333 274 333 322 273 c 0,16,17
 350 237 350 237 350 193 c 0,18,19
 350 132 350 132 288 80 c 2,20,-1
 257 54 l 1,21,-1
 857 54 l 2,22,23
 870 54 870 54 878.5 45.5 c 128,-1,24
 887 37 887 37 886.5 24.5 c 128,-1,25
 886 12 886 12 878.5 3.5 c 128,-1,26
 871 -5 871 -5 857 -5 c 2,27,-1
 112 -5 l 2,28,29
 99 -5 99 -5 91 3.5 c 128,-1,30
 83 12 83 12 83 24.5 c 128,-1,31
 83 37 83 37 89.5 43.5 c 128,-1,32
 96 50 96 50 130 59 c 0,33,34
 244 88 244 88 280 148 c 0,35,36
 293 170 293 170 293 191 c 128,-1,37
 293 212 293 212 276 235 c 0,38,39
 247 274 247 274 201 274 c 0,0,1
EndSplineSet
EndChar

StartChar: A53
Encoding: 77886 77886 94
Width: 1098
VWidth: -32
Flags: W
LayerCount: 2
Fore
SplineSet
353 1054 m 128,-1,1
 366 1054 366 1054 374.5 1045.5 c 128,-1,2
 383 1037 383 1037 383 1024 c 2,3,-1
 383 846 l 1,4,-1
 1017 846 l 2,5,6
 1030 846 1030 846 1039 837 c 128,-1,7
 1048 828 1048 828 1048 815.5 c 128,-1,8
 1048 803 1048 803 1039 794 c 128,-1,9
 1030 785 1030 785 1024 785 c 2,10,11
 1024 785 1024 785 381 785 c 1,12,-1
 381 259 l 1,13,14
 390 179 390 179 434 139 c 128,-1,15
 478 99 478 99 539 99 c 0,16,17
 600 98 600 98 644 136 c 128,-1,18
 688 174 688 174 693 235 c 0,19,20
 696 261 696 261 704 268 c 128,-1,21
 712 275 712 275 723 275 c 2,22,-1
 728 275 l 1,23,24
 739 274 739 274 746.5 265.5 c 128,-1,25
 754 257 754 257 754 245 c 2,26,-1
 754 242 l 1,27,28
 744 149 744 149 682 94 c 128,-1,29
 620 39 620 39 540 39 c 0,30,31
 460 40 460 40 396 98 c 128,-1,32
 332 156 332 156 323 254 c 1,33,-1
 323 785 l 1,34,-1
 81 785 l 2,35,36
 68 785 68 785 59 794 c 128,-1,37
 50 803 50 803 50 815.5 c 128,-1,38
 50 828 50 828 59 837 c 128,-1,39
 68 846 68 846 81 846 c 2,40,-1
 323 846 l 1,41,-1
 323 1024 l 2,42,43
 323 1037 323 1037 331.5 1045.5 c 128,-1,0
 340 1054 340 1054 353 1054 c 128,-1,1
EndSplineSet
EndChar

StartChar: A66
Encoding: 77899 77899 95
Width: 445
VWidth: -32
Flags: W
LayerCount: 2
Fore
SplineSet
211 1061 m 128,-1,1
 224 1061 224 1061 232.5 1053 c 128,-1,2
 241 1045 241 1045 241 1032 c 2,3,-1
 241 342 l 1,4,-1
 349 405 l 2,5,6
 358 411 358 411 371 411 c 128,-1,7
 384 411 384 411 390 400 c 0,8,9
 406 370 406 370 380 354 c 2,10,-1
 143 212 l 1,11,-1
 375 97 l 2,12,13
 390 89 390 89 390 67 c 0,14,15
 390 61 390 61 389 59 c 2,16,-1
 388 58 l 1,17,18
 379 40 379 40 360 40 c 0,19,20
 352 40 352 40 349 43 c 1,21,-1
 67 183 l 2,22,23
 50 192 50 192 50 210 c 128,-1,24
 50 228 50 228 64 235 c 1,25,-1
 185 308 l 1,26,-1
 182 319 l 1,27,28
 182 319 182 319 182 1032 c 0,29,30
 182 1045 182 1045 190 1053 c 128,-1,0
 198 1061 198 1061 211 1061 c 128,-1,1
EndSplineSet
EndChar

StartChar: A7
Encoding: 77833 77833 96
Width: 445
VWidth: -32
Flags: W
LayerCount: 2
Fore
SplineSet
211 1061 m 128,-1,1
 224 1061 224 1061 232.5 1053 c 128,-1,2
 241 1045 241 1045 241 1032 c 2,3,-1
 241 342 l 1,4,-1
 349 405 l 2,5,6
 358 411 358 411 371 411 c 128,-1,7
 384 411 384 411 390 400 c 0,8,9
 406 370 406 370 380 354 c 2,10,-1
 143 212 l 1,11,-1
 375 97 l 2,12,13
 390 89 390 89 390 67 c 0,14,15
 390 61 390 61 389 59 c 2,16,-1
 388 58 l 1,17,18
 379 40 379 40 360 40 c 0,19,20
 352 40 352 40 349 43 c 1,21,-1
 67 183 l 2,22,23
 50 192 50 192 50 210 c 128,-1,24
 50 228 50 228 64 235 c 1,25,-1
 185 308 l 1,26,-1
 182 319 l 1,27,28
 182 319 182 319 182 1032 c 0,29,30
 182 1045 182 1045 190 1053 c 128,-1,0
 198 1061 198 1061 211 1061 c 128,-1,1
EndSplineSet
EndChar

StartChar: A9
Encoding: 77835 77835 97
Width: 936
VWidth: -39
Flags: W
LayerCount: 2
Fore
SplineSet
201 274 m 0,0,1
 140 274 140 274 114 216 c 0,2,3
 99 184 99 184 80 184 c 2,4,-1
 79 184 l 2,5,6
 75 184 75 184 68 187 c 0,7,8
 49 194 49 194 49 213 c 0,9,10
 49 217 49 217 55 232 c 0,11,12
 72 275 72 275 111.5 304 c 128,-1,13
 151 333 151 333 191 333 c 0,14,15
 274 333 274 333 322 273 c 0,16,17
 350 237 350 237 350 193 c 0,18,19
 350 132 350 132 288 80 c 2,20,-1
 257 54 l 1,21,-1
 857 54 l 2,22,23
 870 54 870 54 878.5 45.5 c 128,-1,24
 887 37 887 37 886.5 24.5 c 128,-1,25
 886 12 886 12 878.5 3.5 c 128,-1,26
 871 -5 871 -5 857 -5 c 2,27,-1
 112 -5 l 2,28,29
 99 -5 99 -5 91 3.5 c 128,-1,30
 83 12 83 12 83 24.5 c 128,-1,31
 83 37 83 37 89.5 43.5 c 128,-1,32
 96 50 96 50 130 59 c 0,33,34
 244 88 244 88 280 148 c 0,35,36
 293 170 293 170 293 191 c 128,-1,37
 293 212 293 212 276 235 c 0,38,39
 247 274 247 274 201 274 c 0,0,1
EndSplineSet
EndChar

StartChar: B1
Encoding: 77904 77904 98
Width: 936
VWidth: -39
Flags: W
LayerCount: 2
Fore
SplineSet
201 274 m 0,0,1
 140 274 140 274 114 216 c 0,2,3
 99 184 99 184 80 184 c 2,4,-1
 79 184 l 2,5,6
 75 184 75 184 68 187 c 0,7,8
 49 194 49 194 49 213 c 0,9,10
 49 217 49 217 55 232 c 0,11,12
 72 275 72 275 111.5 304 c 128,-1,13
 151 333 151 333 191 333 c 0,14,15
 274 333 274 333 322 273 c 0,16,17
 350 237 350 237 350 193 c 0,18,19
 350 132 350 132 288 80 c 2,20,-1
 257 54 l 1,21,-1
 857 54 l 2,22,23
 870 54 870 54 878.5 45.5 c 128,-1,24
 887 37 887 37 886.5 24.5 c 128,-1,25
 886 12 886 12 878.5 3.5 c 128,-1,26
 871 -5 871 -5 857 -5 c 2,27,-1
 112 -5 l 2,28,29
 99 -5 99 -5 91 3.5 c 128,-1,30
 83 12 83 12 83 24.5 c 128,-1,31
 83 37 83 37 89.5 43.5 c 128,-1,32
 96 50 96 50 130 59 c 0,33,34
 244 88 244 88 280 148 c 0,35,36
 293 170 293 170 293 191 c 128,-1,37
 293 212 293 212 276 235 c 0,38,39
 247 274 247 274 201 274 c 0,0,1
EndSplineSet
EndChar

StartChar: B7
Encoding: 77911 77911 99
Width: 936
VWidth: -39
Flags: W
LayerCount: 2
Fore
SplineSet
201 274 m 0,0,1
 140 274 140 274 114 216 c 0,2,3
 99 184 99 184 80 184 c 2,4,-1
 79 184 l 2,5,6
 75 184 75 184 68 187 c 0,7,8
 49 194 49 194 49 213 c 0,9,10
 49 217 49 217 55 232 c 0,11,12
 72 275 72 275 111.5 304 c 128,-1,13
 151 333 151 333 191 333 c 0,14,15
 274 333 274 333 322 273 c 0,16,17
 350 237 350 237 350 193 c 0,18,19
 350 132 350 132 288 80 c 2,20,-1
 257 54 l 1,21,-1
 857 54 l 2,22,23
 870 54 870 54 878.5 45.5 c 128,-1,24
 887 37 887 37 886.5 24.5 c 128,-1,25
 886 12 886 12 878.5 3.5 c 128,-1,26
 871 -5 871 -5 857 -5 c 2,27,-1
 112 -5 l 2,28,29
 99 -5 99 -5 91 3.5 c 128,-1,30
 83 12 83 12 83 24.5 c 128,-1,31
 83 37 83 37 89.5 43.5 c 128,-1,32
 96 50 96 50 130 59 c 0,33,34
 244 88 244 88 280 148 c 0,35,36
 293 170 293 170 293 191 c 128,-1,37
 293 212 293 212 276 235 c 0,38,39
 247 274 247 274 201 274 c 0,0,1
EndSplineSet
EndChar

StartChar: C11
Encoding: 77928 77928 100
Width: 750
VWidth: -35
Flags: W
LayerCount: 2
Fore
SplineSet
348 605 m 1,0,-1
 366 611 l 1,1,-1
 386 615 l 1,2,3
 424 621 424 621 449 641 c 128,-1,4
 474 661 474 661 480 671 c 1,5,-1
 458 682 l 1,6,-1
 471 695 l 1,7,-1
 481 691 l 1,8,9
 481 691 481 691 477 695 c 1,10,11
 459 706 459 706 348 722 c 1,12,-1
 348 605 l 1,0,-1
317 788 m 1,13,-1
 318 788 l 1,14,15
 523 779 523 779 543 699 c 0,16,17
 552 670 552 670 532 640 c 0,18,19
 507 599 507 599 464.5 579 c 128,-1,20
 422 559 422 559 348 549 c 1,21,-1
 348 299 l 1,22,-1
 361 300 l 1,23,24
 463 303 463 303 512 353 c 0,25,26
 541 383 541 383 541.5 412 c 128,-1,27
 542 441 542 441 535 451 c 128,-1,28
 528 461 528 461 528 474.5 c 128,-1,29
 528 488 528 488 544 495 c 0,30,31
 550 498 550 498 559 498 c 0,32,33
 578 498 578 498 589.5 476 c 128,-1,34
 601 454 601 454 601 431 c 0,35,36
 601 360 601 360 554 310 c 0,37,38
 489 242 489 242 361 239 c 1,39,-1
 349 239 l 1,40,-1
 348 228 l 2,41,42
 347 217 347 217 339 208 c 2,43,-1
 212 82 l 1,44,-1
 670 82 l 2,45,46
 683 82 683 82 691.5 74 c 128,-1,47
 700 66 700 66 700 53 c 128,-1,48
 700 40 700 40 691.5 32 c 128,-1,49
 683 24 683 24 670 24 c 2,50,-1
 141 24 l 2,51,52
 128 24 128 24 119 32 c 128,-1,53
 110 40 110 40 110 53.5 c 128,-1,54
 110 67 110 67 114 71 c 128,-1,55
 118 75 118 75 284 239 c 1,56,-1
 255 242 l 1,57,58
 146 256 146 256 94 312 c 0,59,60
 50 359 50 359 50 421 c 0,61,62
 50 452 50 452 61.5 474 c 128,-1,63
 73 496 73 496 93 496 c 0,64,65
 101 496 101 496 108 493 c 0,66,67
 122 485 122 485 122 472 c 128,-1,68
 122 459 122 459 115.5 449 c 128,-1,69
 109 439 109 439 109 420 c 0,70,71
 109 381 109 381 139 351 c 0,72,73
 182 308 182 308 272 300 c 1,74,-1
 287 298 l 1,75,-1
 287 759 l 2,76,77
 287 771 287 771 295.5 779.5 c 128,-1,78
 304 788 304 788 315 788 c 2,79,-1
 317 788 l 1,13,-1
EndSplineSet
EndChar

StartChar: D1
Encoding: 77942 77942 101
Width: 458
VWidth: -36
Flags: W
LayerCount: 2
Fore
SplineSet
80 630 m 128,-1,1
 93 630 93 630 101.5 621 c 128,-1,2
 110 612 110 612 110 599 c 2,3,-1
 110 341 l 1,4,5
 152 345 152 345 182 345 c 0,6,7
 264 345 264 345 312.5 317.5 c 128,-1,8
 361 290 361 290 384.5 252 c 128,-1,9
 408 214 408 214 408 173 c 128,-1,10
 408 132 408 132 383 94.5 c 128,-1,11
 358 57 358 57 312 35 c 128,-1,12
 266 13 266 13 205 13 c 2,13,14
 205 13 205 13 198 13 c 0,15,16
 140 13 140 13 101 25 c 128,-1,17
 62 37 62 37 56 44 c 0,18,19
 50 52 50 52 50 60 c 0,20,21
 50 77 50 77 59.5 85 c 128,-1,22
 69 93 69 93 77 93 c 128,-1,23
 85 93 85 93 119.5 83 c 128,-1,24
 154 73 154 73 204 73 c 128,-1,25
 254 73 254 73 292 91 c 0,26,27
 348 118 348 118 348 174 c 128,-1,28
 348 230 348 230 289 263 c 0,29,30
 242 289 242 289 175 289 c 2,31,32
 175 289 175 289 153.5 289 c 128,-1,33
 132 289 132 289 88 281 c 1,34,-1
 80 281 l 2,35,36
 67 281 67 281 58.5 289.5 c 128,-1,37
 50 298 50 298 50 311 c 2,38,-1
 50 599 l 2,39,40
 50 612 50 612 58 621 c 0,41,0
 67 630 67 630 80 630 c 128,-1,1
EndSplineSet
EndChar

StartChar: D10
Encoding: 77952 77952 102
Width: 1132
VWidth: -36
Flags: W
LayerCount: 2
Fore
SplineSet
985 440 m 1,0,1
 895 491 895 491 879 497.5 c 128,-1,2
 863 504 863 504 844 504 c 128,-1,3
 825 504 825 504 811.5 500.5 c 128,-1,4
 798 497 798 497 775.5 481 c 128,-1,5
 753 465 753 465 727 448 c 1,6,-1
 749 437 l 1,7,-1
 757 433 l 1,8,-1
 758 433 l 1,9,-1
 759 432 l 1,10,-1
 799 420 l 1,11,-1
 813 415 l 1,12,-1
 817 430 l 2,13,14
 822 452 822 452 845 452 c 2,15,-1
 846 452 l 2,16,17
 857 452 857 452 865.5 444.5 c 128,-1,18
 874 437 874 437 876 425 c 2,19,-1
 878 412 l 1,20,21
 946 424 946 424 959 429 c 2,22,-1
 985 440 l 1,0,1
50 455 m 128,-1,24
 50 468 50 468 58.5 476.5 c 128,-1,25
 67 485 67 485 80 485 c 2,26,-1
 677 487 l 1,27,28
 753 550 753 550 802 561 c 0,29,30
 818 565 818 565 846 565 c 0,31,32
 893 565 893 565 963 526.5 c 128,-1,33
 1033 488 1033 488 1049.5 487.5 c 128,-1,34
 1066 487 1066 487 1074 478 c 128,-1,35
 1082 469 1082 469 1082 457 c 2,36,-1
 1082 456 l 2,37,38
 1082 439 1082 439 1068 431 c 1,39,-1
 1065 429 l 1,40,41
 1024 376 1024 376 887 354 c 1,42,-1
 876 352 l 1,43,-1
 872 47 l 2,44,45
 872 34 872 34 863.5 25.5 c 128,-1,46
 855 17 855 17 842.5 17 c 128,-1,47
 830 17 830 17 821.5 25.5 c 128,-1,48
 813 34 813 34 813 47 c 2,49,-1
 816 356 l 1,50,-1
 802 356 l 1,51,52
 798 357 798 357 775 365 c 1,53,54
 770 349 770 349 746 310 c 0,55,56
 644 148 644 148 518 69 c 0,57,58
 433 16 433 16 362 16 c 0,59,60
 280 16 280 16 234 69 c 0,61,62
 200 107 200 107 200 154 c 0,63,64
 200 180 200 180 217.5 213 c 128,-1,65
 235 246 235 246 266 263 c 0,66,67
 279 270 279 270 294.5 270 c 128,-1,68
 310 270 310 270 316 255 c 1,69,-1
 316 254 l 1,70,71
 320 250 320 250 320 241 c 0,72,73
 320 221 320 221 303 214 c 1,74,-1
 302 214 l 1,75,76
 259 191 259 191 259 156 c 0,77,78
 259 150 259 150 260 142 c 0,79,80
 270 96 270 96 320 82 c 0,81,82
 339 77 339 77 358 77 c 0,83,84
 414 78 414 78 478 117 c 0,85,86
 596 189 596 189 711 371 c 1,87,-1
 720 384 l 1,88,-1
 705 391 l 1,89,90
 665 411 665 411 650.5 416 c 128,-1,91
 636 421 636 421 634 422 c 2,92,-1
 630 426 l 1,93,-1
 80 425 l 2,94,95
 67 425 67 425 58.5 433.5 c 128,-1,23
 50 442 50 442 50 455 c 128,-1,24
139 697 m 2,96,-1
 1006 697 l 2,97,98
 1019 697 1019 697 1027 688.5 c 128,-1,99
 1035 680 1035 680 1035 667.5 c 128,-1,100
 1035 655 1035 655 1027 646.5 c 128,-1,101
 1019 638 1019 638 1006 638 c 2,102,-1
 139 638 l 2,103,104
 126 638 126 638 117 646.5 c 128,-1,105
 108 655 108 655 108 667.5 c 128,-1,106
 108 680 108 680 117 688.5 c 128,-1,107
 126 697 126 697 139 697 c 2,96,-1
EndSplineSet
EndChar

StartChar: D12
Encoding: 77954 77954 103
Width: 398
VWidth: -40
Flags: W
LayerCount: 2
Fore
SplineSet
199 212 m 128,-1,1
 161 212 161 212 135 188 c 128,-1,2
 109 164 109 164 109 131.5 c 0,3,4
 109 100 109 100 135 76 c 128,-1,5
 161 52 161 52 199 52 c 128,-1,6
 237 52 237 52 263 76 c 128,-1,7
 289 100 289 100 289 132.5 c 0,8,9
 289 164 289 164 263 188 c 128,-1,0
 237 212 237 212 199 212 c 128,-1,1
199 273 m 128,-1,11
 260 273 260 273 304 232 c 128,-1,12
 348 191 348 191 348 132 c 128,-1,13
 348 73 348 73 304 32 c 128,-1,14
 260 -9 260 -9 199 -9 c 128,-1,15
 138 -9 138 -9 94 32 c 128,-1,16
 50 73 50 73 50 132 c 128,-1,17
 50 191 50 191 94 232 c 128,-1,10
 138 273 138 273 199 273 c 128,-1,11
EndSplineSet
EndChar

StartChar: D17
Encoding: 77959 77959 104
Width: 664
VWidth: -35
Flags: W
LayerCount: 2
Fore
SplineSet
363.5 746 m 128,-1,1
 382 746 382 746 396 732.5 c 128,-1,2
 410 719 410 719 410 700 c 128,-1,3
 410 681 410 681 396.5 667.5 c 128,-1,4
 383 654 383 654 363.5 654 c 128,-1,5
 344 654 344 654 330 667.5 c 128,-1,6
 316 681 316 681 316 700 c 128,-1,7
 316 719 316 719 330.5 732.5 c 128,-1,0
 345 746 345 746 363.5 746 c 128,-1,1
193 86 m 1,8,9
 243 94 243 94 256 113 c 1,10,-1
 256 494 l 1,11,-1
 143 494 l 2,12,13
 130 494 130 494 121 502.5 c 128,-1,14
 112 511 112 511 112 524 c 128,-1,15
 112 537 112 537 121 545.5 c 128,-1,16
 130 554 130 554 143 554 c 2,17,-1
 584 554 l 2,18,19
 597 554 597 554 605.5 545.5 c 128,-1,20
 614 537 614 537 614 524 c 128,-1,21
 614 511 614 511 605.5 502.5 c 128,-1,22
 597 494 597 494 584 494 c 2,23,-1
 477 494 l 1,24,-1
 477 51 l 2,25,26
 477 38 477 38 468 29.5 c 128,-1,27
 459 21 459 21 446.5 21 c 128,-1,28
 434 21 434 21 425 29.5 c 128,-1,29
 416 38 416 38 416 51 c 2,30,-1
 416 494 l 1,31,-1
 316 494 l 1,32,-1
 316 109 l 2,33,34
 316 104 316 104 314 98 c 0,35,36
 304 61 304 61 252 38 c 0,37,38
 221 25 221 25 181 25 c 128,-1,39
 141 25 141 25 112 42 c 0,40,41
 50 78 50 78 50 142 c 0,42,43
 50 173 50 173 66 198 c 0,44,45
 89 235 89 235 128 235 c 0,46,47
 175 235 175 235 200 195 c 0,48,49
 207 184 207 184 207 173.5 c 128,-1,50
 207 163 207 163 195.5 156 c 128,-1,51
 184 149 184 149 172.5 149 c 128,-1,52
 161 149 161 149 152.5 161.5 c 128,-1,53
 144 174 144 174 130 174 c 0,54,55
 110 174 110 174 110 149.5 c 128,-1,56
 110 125 110 125 115.5 115.5 c 128,-1,57
 121 106 121 106 139.5 96 c 128,-1,58
 158 86 158 86 192 86 c 2,59,-1
 193 86 l 1,8,9
EndSplineSet
EndChar

StartChar: D2
Encoding: 77943 77943 105
Width: 539
VWidth: -37
Flags: W
LayerCount: 2
Fore
SplineSet
309 517 m 0,0,1
 316 517 316 517 323.5 507.5 c 128,-1,2
 331 498 331 498 331 485 c 128,-1,3
 331 472 331 472 319 464 c 2,4,-1
 298 450 l 1,5,-1
 261 426 l 1,6,-1
 266 426 l 2,7,8
 287 426 287 426 393 423 c 0,9,10
 405 423 405 423 413 413.5 c 128,-1,11
 421 404 421 404 421 391 c 128,-1,12
 421 378 421 378 414 372 c 2,13,-1
 307 268 l 1,14,-1
 334 263 l 1,15,16
 423 244 423 244 460 215 c 0,17,18
 489 191 489 191 489.5 157 c 128,-1,19
 490 123 490 123 462 94 c 0,20,21
 417 48 417 48 312 24 c 0,22,23
 236 6 236 6 184.5 6 c 128,-1,24
 133 6 133 6 99 8.5 c 128,-1,25
 65 11 65 11 57.5 20 c 128,-1,26
 50 29 50 29 50 39 c 2,27,-1
 50 44 l 1,28,29
 51 54 51 54 59 62 c 0,30,31
 68 70 68 70 80 70 c 2,32,-1
 83 70 l 1,33,34
 120 66 120 66 174.5 66 c 128,-1,35
 229 66 229 66 307.5 85 c 128,-1,36
 386 104 386 104 427 145 c 1,37,-1
 418 140 l 1,38,-1
 402 153 l 1,39,-1
 402 154 l 1,40,-1
 416 168 l 1,41,-1
 427 162 l 1,42,-1
 426 164 l 1,43,-1
 425 165 l 1,44,-1
 423 167 l 1,45,-1
 419 170 l 1,46,47
 402 186 402 186 359.5 198.5 c 128,-1,48
 317 211 317 211 273.5 215.5 c 128,-1,49
 230 220 230 220 222.5 228.5 c 128,-1,50
 215 237 215 237 215 250 c 128,-1,51
 215 263 215 263 223 270 c 2,52,-1
 320 364 l 1,53,-1
 171 367 l 2,54,55
 159 367 159 367 151 375.5 c 128,-1,56
 143 384 143 384 143 399 c 0,57,58
 142 414 142 414 148 418 c 0,59,60
 284 517 284 517 309 517 c 0,0,1
EndSplineSet
EndChar

StartChar: D20
Encoding: 77962 77962 106
Width: 971
VWidth: -36
Flags: W
LayerCount: 2
Fore
SplineSet
79 405 m 2,0,1
 55 405 55 405 50 430 c 1,2,-1
 50 434 l 2,3,4
 50 446 50 446 58 454 c 0,5,6
 75 474 75 474 224 474 c 0,7,8
 431 474 431 474 431 398 c 0,9,10
 431 380 431 380 416.5 365.5 c 128,-1,11
 402 351 402 351 368 330 c 2,12,-1
 322 303 l 1,13,-1
 708 305 l 2,14,15
 721 305 721 305 729.5 296 c 128,-1,16
 738 287 738 287 738 274.5 c 128,-1,17
 738 262 738 262 729.5 253 c 128,-1,18
 721 244 721 244 708 244 c 2,19,-1
 109 242 l 2,20,21
 96 242 96 242 87.5 250.5 c 128,-1,22
 79 259 79 259 79 270.5 c 128,-1,23
 79 282 79 282 85 290 c 0,24,25
 92 298 92 298 178 319 c 0,26,27
 257 338 257 338 332 376 c 0,28,29
 334 378 334 378 371 396 c 1,30,31
 304 411 304 411 288 412.5 c 128,-1,32
 272 414 272 414 262 414 c 2,33,34
 262 414 262 414 213 414 c 128,-1,35
 164 414 164 414 83 405 c 1,36,-1
 79 405 l 2,0,1
387 62 m 1,37,38
 391 82 391 82 416 82 c 0,39,40
 427 82 427 82 451 79.5 c 128,-1,41
 475 77 475 77 525 77 c 0,42,43
 627 77 627 77 721.5 120.5 c 128,-1,44
 816 164 816 164 850 247 c 0,45,46
 879 323 879 323 835.5 376 c 128,-1,47
 792 429 792 429 690 429 c 2,48,49
 690 429 690 429 682 429 c 128,-1,50
 674 429 674 429 656 428 c 1,51,-1
 655 428 l 1,52,53
 644 429 644 429 635 437 c 128,-1,54
 626 445 626 445 626 458.5 c 128,-1,55
 626 472 626 472 653 494 c 0,56,57
 706 539 706 539 706 587 c 0,58,59
 706 619 706 619 684 633 c 0,60,61
 672 642 672 642 664 642 c 2,62,63
 664 642 664 642 651 642 c 128,-1,64
 638 642 638 642 623 635 c 0,65,66
 576 615 576 615 556.5 574.5 c 128,-1,67
 537 534 537 534 512 534 c 0,68,69
 508 534 508 534 506 536 c 0,70,71
 489 545 489 545 489 566 c 0,72,73
 489 573 489 573 498 590 c 0,74,75
 534 661 534 661 600 689 c 0,76,77
 630 702 630 702 661 702 c 128,-1,78
 692 702 692 702 718 682 c 0,79,80
 767 645 767 645 767 589 c 0,81,82
 767 550 767 550 734 500 c 1,83,-1
 721 482 l 1,84,-1
 744 478 l 2,85,86
 847 460 847 460 884 415 c 128,-1,87
 921 370 921 370 921 308 c 0,88,89
 921 266 921 266 904 224 c 0,90,91
 860 120 860 120 737 63 c 0,92,93
 639 17 639 17 540 17 c 0,94,95
 496 17 496 17 448.5 22.5 c 128,-1,96
 401 28 401 28 394 36 c 128,-1,97
 387 44 387 44 387 56 c 2,98,-1
 387 62 l 1,37,38
EndSplineSet
EndChar

StartChar: D22
Encoding: 77964 77964 107
Width: 804
VWidth: -35
Flags: W
LayerCount: 2
Fore
SplineSet
725 723 m 2,0,1
 754 723 754 723 754 693 c 0,2,3
 754 684 754 684 717 616 c 0,4,5
 620 436 620 436 586 389 c 0,6,7
 506 277 506 277 447 222 c 0,8,9
 340 121 340 121 210 65 c 0,10,11
 104 19 104 19 79 19 c 0,12,13
 70 20 70 20 62 26 c 0,14,15
 50 36 50 36 50 47.5 c 128,-1,16
 50 59 50 59 56.5 67 c 128,-1,17
 63 75 63 75 116.5 90 c 128,-1,18
 170 105 170 105 241 144.5 c 128,-1,19
 312 184 312 184 350.5 215 c 128,-1,20
 389 246 389 246 418 272 c 0,21,22
 489 336 489 336 578 487 c 0,23,24
 607 535 607 535 656 629 c 128,-1,25
 705 723 705 723 724 723 c 2,26,-1
 725 723 l 2,0,1
EndSplineSet
EndChar

StartChar: D26
Encoding: 77968 77968 108
Width: 655
VWidth: -34
Flags: W
LayerCount: 2
Fore
SplineSet
547 91 m 2,0,1
 547 331 547 331 501 450 c 0,2,3
 474 520 474 520 425 564 c 128,-1,4
 376 608 376 608 312 619 c 0,5,6
 268 627 268 627 270 651 c 1,7,8
 275 682 275 682 302 680 c 0,9,10
 304 680 304 680 317 678 c 0,11,12
 396 665 396 665 460.5 608 c 128,-1,13
 525 551 525 551 559 462 c 0,14,15
 606 338 606 338 606 85 c 1,16,-1
 605 76 l 1,17,18
 604 44 604 44 595.5 35 c 128,-1,19
 587 26 587 26 576 26 c 2,20,-1
 575 26 l 1,21,22
 563 27 563 27 555 36 c 128,-1,23
 547 45 547 45 547 57 c 2,24,-1
 547 59 l 1,25,-1
 547 91 l 2,0,1
301 842 m 2,26,27
 329 842 329 842 331 812 c 0,28,29
 331 798 331 798 323 791 c 2,30,-1
 121 591 l 1,31,-1
 323 393 l 2,32,33
 331 385 331 385 331 371 c 128,-1,34
 331 357 331 357 322 348.5 c 128,-1,35
 313 340 313 340 300.5 340 c 128,-1,36
 288 340 288 340 279 350 c 2,37,-1
 59 570 l 2,38,39
 50 579 50 579 50 591.5 c 128,-1,40
 50 604 50 604 59 613 c 2,41,-1
 279 834 l 2,42,43
 287 842 287 842 298 842 c 2,44,-1
 301 842 l 2,26,27
EndSplineSet
EndChar

StartChar: D28
Encoding: 77971 77971 109
Width: 638
VWidth: -38
Flags: W
LayerCount: 2
Fore
SplineSet
557 511 m 128,-1,1
 570 511 570 511 579 502.5 c 128,-1,2
 588 494 588 494 588 481 c 2,3,-1
 588 84 l 2,4,5
 588 62 588 62 576 45 c 0,6,7
 548 7 548 7 496 7 c 0,8,9
 401 7 401 7 341 117 c 0,10,11
 333 132 333 132 316 166 c 1,12,13
 295 125 295 125 289 114 c 0,14,15
 233 7 233 7 150 7 c 0,16,17
 101 7 101 7 69 39 c 0,18,19
 50 58 50 58 50 83 c 2,20,-1
 50 480 l 2,21,22
 50 493 50 493 59 502 c 128,-1,23
 68 511 68 511 81 511 c 128,-1,24
 94 511 94 511 102.5 502 c 128,-1,25
 111 493 111 493 111 480 c 2,26,-1
 111 81 l 1,27,-1
 117 77 l 1,28,29
 128 66 128 66 156 66 c 2,30,-1
 158 66 l 1,31,-1
 159 67 l 1,32,33
 199 76 199 76 234 137 c 0,34,35
 242 150 242 150 252 170 c 0,36,37
 277 220 277 220 289 235 c 1,38,39
 288 235 288 235 290.5 238 c 0,40,41
 294 240 294 240 296 244 c 0,42,43
 298 246 298 246 311 253 c 1,44,-1
 311 254 l 1,45,46
 311 254 311 254 318.5 253.5 c 128,-1,47
 326 253 326 253 340 245 c 1,48,49
 352 232 352 232 369 195.5 c 128,-1,50
 386 159 386 159 393 146 c 0,51,52
 435 66 435 66 492 66 c 0,53,54
 506 66 506 66 516 71 c 1,55,-1
 517 72 l 1,56,-1
 505 94 l 1,57,-1
 527 84 l 1,58,-1
 527 481 l 2,59,60
 527 494 527 494 535.5 502.5 c 128,-1,0
 544 511 544 511 557 511 c 128,-1,1
EndSplineSet
EndChar

StartChar: D3
Encoding: 77944 77944 110
Width: 918
VWidth: -37
Flags: W
LayerCount: 2
Fore
SplineSet
428 594 m 1,0,1
 440 593 440 593 448 584.5 c 128,-1,2
 456 576 456 576 456 565 c 2,3,-1
 456 563 l 1,4,5
 452 501 452 501 408 461 c 0,6,7
 372 427 372 427 302 408.5 c 128,-1,8
 232 390 232 390 184 341.5 c 128,-1,9
 136 293 136 293 118 236 c 0,10,11
 108 206 108 206 108 182 c 128,-1,12
 108 158 108 158 118 136 c 0,13,14
 144 73 144 73 227 73 c 2,15,16
 227 73 227 73 238 73 c 0,17,18
 291 73 291 73 324 103 c 0,19,20
 344 122 344 122 344 142 c 2,21,22
 344 142 344 142 344 149 c 0,23,24
 342 186 342 186 312 220 c 0,25,26
 284 252 284 252 302 270 c 0,27,28
 310 278 310 278 324 278 c 2,29,-1
 838 278 l 2,30,31
 851 278 851 278 859.5 270 c 128,-1,32
 868 262 868 262 868 249 c 128,-1,33
 868 236 868 236 859 228 c 128,-1,34
 850 220 850 220 838 220 c 2,35,-1
 384 220 l 1,36,-1
 390 200 l 1,37,38
 403 167 403 167 403.5 160.5 c 128,-1,39
 404 154 404 154 404 145 c 0,40,41
 404 93 404 93 360 52 c 128,-1,42
 316 11 316 11 240 11 c 0,43,44
 147 11 147 11 95 63 c 0,45,46
 50 106 50 106 50 180 c 0,47,48
 50 213 50 213 61 250 c 0,49,50
 83 326 83 326 142.5 384.5 c 128,-1,51
 202 443 202 443 286 467 c 0,52,53
 339 481 339 481 367.5 505.5 c 128,-1,54
 396 530 396 530 397 560 c 0,55,56
 398 577 398 577 407 585.5 c 128,-1,57
 416 594 416 594 426 594 c 2,58,-1
 428 594 l 1,0,1
EndSplineSet
EndChar

StartChar: D32
Encoding: 77976 77976 111
Width: 667
VWidth: -35
Flags: W
LayerCount: 2
Fore
SplineSet
355 284 m 2,0,1
 368 284 368 284 375.5 275 c 128,-1,2
 383 266 383 266 383 253 c 2,3,-1
 381 48 l 2,4,5
 381 35 381 35 372.5 27 c 128,-1,6
 364 19 364 19 351.5 19 c 128,-1,7
 339 19 339 19 330.5 27.5 c 128,-1,8
 322 36 322 36 322 48 c 2,9,-1
 324 253 l 2,10,11
 324 266 324 266 332 275 c 0,12,13
 341 284 341 284 354 284 c 2,14,-1
 355 284 l 2,0,1
516 695 m 2,15,-1
 517 695 l 2,16,17
 527 695 527 695 542 687 c 0,18,19
 574 669 574 669 595.5 634.5 c 128,-1,20
 617 600 617 600 617 562 c 2,21,-1
 617 550 l 1,22,23
 613 495 613 495 545 446 c 2,24,-1
 531 436 l 1,25,26
 572 390 572 390 587 369 c 0,27,28
 616 327 616 327 616 275 c 0,29,30
 616 236 616 236 606 227.5 c 128,-1,31
 596 219 596 219 585 219 c 2,32,-1
 577 219 l 1,33,34
 567 221 567 221 561 229.5 c 128,-1,35
 555 238 555 238 555 249 c 2,36,-1
 555 257 l 1,37,38
 556 266 556 266 556 273 c 0,39,40
 556 309 556 309 540 332 c 128,-1,41
 524 355 524 355 500 383 c 128,-1,42
 476 411 476 411 467.5 423 c 128,-1,43
 459 435 459 435 459 447 c 0,44,45
 459 464 459 464 495 478 c 0,46,47
 558 504 558 504 558 557 c 128,-1,48
 558 610 558 610 513 633 c 0,49,50
 487 647 487 647 487 666 c 0,51,52
 487 674 487 674 493 684.5 c 128,-1,53
 499 695 499 695 516 695 c 2,15,-1
179 717 m 2,54,55
 209 717 209 717 209 685 c 0,56,57
 209 674 209 674 203 668 c 128,-1,58
 197 662 197 662 178 657 c 0,59,60
 113 640 113 640 111 595 c 1,61,-1
 111 582 l 2,62,63
 111 536 111 536 158 503 c 0,64,65
 183 485 183 485 183 471 c 128,-1,66
 183 457 183 457 165 441 c 0,67,68
 127 406 127 406 127 356.5 c 128,-1,69
 127 307 127 307 174 272 c 0,70,71
 199 254 199 254 199 244 c 128,-1,72
 199 234 199 234 191 222.5 c 128,-1,73
 183 211 183 211 172.5 211 c 128,-1,74
 162 211 162 211 139 227 c 0,75,76
 68 278 68 278 67 350 c 0,77,78
 67 406 67 406 109 460 c 1,79,-1
 115 470 l 1,80,-1
 107 479 l 1,81,82
 50 536 50 536 50 586.5 c 128,-1,83
 50 637 50 637 85 670.5 c 128,-1,84
 120 704 120 704 162 714 c 0,85,86
 173 717 173 717 177 717 c 2,87,-1
 179 717 l 2,54,55
EndSplineSet
EndChar

StartChar: D34
Encoding: 77978 77978 112
Width: 715
VWidth: -34
Flags: W
LayerCount: 2
Fore
SplineSet
329 857 m 0,0,1
 348 857 348 857 363.5 856 c 128,-1,2
 379 855 379 855 387 846 c 128,-1,3
 395 837 395 837 395 826 c 2,4,-1
 395 824 l 1,5,6
 393 813 393 813 384 805 c 128,-1,7
 375 797 375 797 365 797 c 2,8,-1
 362 797 l 1,9,10
 338 799 338 799 317 799 c 0,11,12
 243 798 243 798 208 779.5 c 128,-1,13
 173 761 173 761 173 744 c 2,14,-1
 173 738 l 1,15,16
 179 713 179 713 217 695 c 128,-1,17
 255 677 255 677 308 677 c 2,18,19
 308 677 308 677 322 677 c 128,-1,20
 336 677 336 677 361 679 c 1,21,-1
 365 679 l 2,22,23
 378 679 378 679 386 670 c 128,-1,24
 394 661 394 661 395 649 c 1,25,-1
 395 517 l 1,26,-1
 612 756 l 2,27,28
 631 777 631 777 654 756 c 0,29,30
 665 747 665 747 665.5 735.5 c 128,-1,31
 666 724 666 724 656 714 c 2,32,-1
 394 429 l 1,33,34
 395 429 395 429 395 58 c 0,35,36
 395 45 395 45 386.5 36.5 c 128,-1,37
 378 28 378 28 365 28 c 128,-1,38
 352 28 352 28 343 36.5 c 128,-1,39
 334 45 334 45 334 58 c 2,40,-1
 334 364 l 1,41,-1
 123 131 l 1,42,-1
 170 87 l 2,43,44
 180 78 180 78 180 66.5 c 128,-1,45
 180 55 180 55 171.5 45.5 c 128,-1,46
 163 36 163 36 150 36 c 128,-1,47
 137 36 137 36 129 44 c 2,48,-1
 61 109 l 2,49,50
 51 118 51 118 50.5 129.5 c 128,-1,51
 50 141 50 141 54 145.5 c 128,-1,52
 58 150 58 150 334 452 c 1,53,-1
 334 618 l 1,54,-1
 321 618 l 2,55,56
 240 618 240 618 186 643 c 0,57,58
 122 672 122 672 113 728 c 0,59,60
 112 734 112 734 113 740 c 0,61,62
 113 764 113 764 128.5 789 c 128,-1,63
 144 814 144 814 188 835.5 c 128,-1,64
 232 857 232 857 329 857 c 0,0,1
EndSplineSet
EndChar

StartChar: D35
Encoding: 77980 77980 113
Width: 734
VWidth: -40
Flags: W
LayerCount: 2
Fore
SplineSet
365 263 m 128,-1,1
 387 263 387 263 402 248.5 c 128,-1,2
 417 234 417 234 417 212.5 c 128,-1,3
 417 191 417 191 402 175 c 128,-1,4
 387 159 387 159 365 159 c 128,-1,5
 343 159 343 159 328 175 c 0,6,7
 313 190 313 190 313 212 c 128,-1,8
 313 234 313 234 328 248.5 c 128,-1,0
 343 263 343 263 365 263 c 128,-1,1
80 49 m 2,9,-1
 654 49 l 2,10,11
 668 49 668 49 676 41 c 128,-1,12
 684 33 684 33 684 20 c 128,-1,13
 684 7 684 7 676 -1 c 128,-1,14
 668 -9 668 -9 654 -9 c 2,15,-1
 80 -9 l 2,16,17
 66 -9 66 -9 58 -1 c 128,-1,18
 50 7 50 7 50 20 c 128,-1,19
 50 33 50 33 58 41 c 128,-1,20
 66 49 66 49 80 49 c 2,9,-1
EndSplineSet
EndChar

StartChar: D37
Encoding: 77982 77982 114
Width: 1192
VWidth: -38
Flags: W
LayerCount: 2
Fore
SplineSet
513 60 m 1,0,-1
 914 426 l 2,1,2
 923 433 923 433 935 433 c 128,-1,3
 947 433 947 433 955 423.5 c 128,-1,4
 963 414 963 414 963 402 c 128,-1,5
 963 390 963 390 954 382 c 2,6,-1
 601 60 l 1,7,8
 601 60 601 60 1112 60 c 0,9,10
 1126 60 1126 60 1134 51.5 c 128,-1,11
 1142 43 1142 43 1142 30.5 c 128,-1,12
 1142 18 1142 18 1133.5 9 c 128,-1,13
 1125 0 1125 0 1112 0 c 2,14,-1
 80 0 l 2,15,16
 68 0 68 0 58 9 c 0,17,18
 33 32 33 32 83 76 c 2,19,-1
 353 309 l 2,20,21
 360 316 360 316 373 316 c 128,-1,22
 386 316 386 316 394 307 c 128,-1,23
 402 298 402 298 402.5 285.5 c 128,-1,24
 403 273 403 273 393 264 c 2,25,-1
 158 60 l 1,26,-1
 513 60 l 1,0,-1
EndSplineSet
EndChar

StartChar: D40
Encoding: 77985 77985 115
Width: 1192
VWidth: -40
Flags: W
LayerCount: 2
Fore
SplineSet
688 54 m 1,0,-1
 974 304 l 2,1,2
 981 310 981 310 992 310 c 0,3,4
 1003 310 1003 310 1013 301 c 0,5,6
 1023 292 1023 292 1024 280 c 0,7,8
 1025 268 1025 268 1013 258 c 2,9,-1
 779 54 l 1,10,-1
 1112 54 l 2,11,12
 1126 54 1126 54 1134 45 c 0,13,14
 1142 36 1142 36 1142 23.5 c 128,-1,15
 1142 11 1142 11 1134 2 c 0,16,17
 1126 -7 1126 -7 1112 -7 c 2,18,-1
 80 -7 l 2,19,20
 67 -7 67 -7 58 2 c 0,21,22
 50 12 50 12 50 28 c 0,23,24
 50 44 50 44 69 51 c 1,25,-1
 73 53 l 1,26,27
 80 65 80 65 83 68 c 2,28,-1
 353 302 l 2,29,30
 362 309 362 309 374 309 c 0,31,32
 386 309 386 309 394 300 c 0,33,34
 402 291 402 291 402 278 c 0,35,36
 402 264 402 264 398 260 c 0,37,38
 393 256 393 256 158 54 c 1,39,-1
 688 54 l 1,0,-1
EndSplineSet
EndChar

StartChar: D41
Encoding: 77986 77986 116
Width: 956
VWidth: -38
Flags: W
LayerCount: 2
Fore
SplineSet
772 226 m 2,0,-1
 260 226 l 2,1,2
 247 226 247 226 238 235 c 0,3,4
 230 244 230 244 230 257 c 128,-1,5
 230 270 230 270 250.5 290.5 c 128,-1,6
 271 311 271 311 271 344.5 c 128,-1,7
 271 378 271 378 233 397 c 0,8,9
 217 405 217 405 208 405 c 2,10,11
 208 405 208 405 195.5 404.5 c 128,-1,12
 183 404 183 404 170 400 c 0,13,14
 128 385 128 385 112 341 c 0,15,16
 101 310 101 310 80 310 c 0,17,18
 62 310 62 310 56 320.5 c 128,-1,19
 50 331 50 331 50 337.5 c 128,-1,20
 50 344 50 344 55 357 c 0,21,22
 84 430 84 430 148 455 c 0,23,24
 173 465 173 465 185 465 c 2,25,26
 185 465 185 465 208 465 c 128,-1,27
 231 465 231 465 262 449 c 0,28,29
 321 419 321 419 330 360 c 0,30,31
 331 353 331 353 331 342 c 128,-1,32
 331 331 331 331 322 305 c 2,33,-1
 316 287 l 1,34,-1
 770 287 l 2,35,36
 873 287 873 287 899 227 c 0,37,38
 924 165 924 165 857 95 c 0,39,40
 817 53 817 53 774.5 28 c 128,-1,41
 732 3 732 3 718 3 c 128,-1,42
 704 3 704 3 698.5 14.5 c 128,-1,43
 693 26 693 26 693 38.5 c 128,-1,44
 693 51 693 51 707 58 c 0,45,46
 750 84 750 84 784 114 c 0,47,48
 846 169 846 169 846 197.5 c 128,-1,49
 846 226 846 226 772 226 c 2,0,-1
EndSplineSet
EndChar

StartChar: D43
Encoding: 77988 77988 117
Width: 1130
VWidth: -32
Flags: W
LayerCount: 2
Fore
SplineSet
227 99 m 0,0,1
 253 99 253 99 252 151 c 1,2,3
 252 151 252 151 252 226 c 1,4,-1
 176 226 l 1,5,-1
 170 226 l 2,6,7
 132 226 132 226 120 220 c 1,8,-1
 122 220 l 1,9,-1
 130 194 l 1,10,-1
 111 207 l 1,11,12
 111 194 111 194 125 172.5 c 128,-1,13
 139 151 139 151 153.5 136.5 c 128,-1,14
 168 122 168 122 191.5 110.5 c 128,-1,15
 215 99 215 99 227 99 c 0,0,1
178 285 m 1,16,-1
 252 285 l 1,17,-1
 252 773 l 2,18,19
 252 791 252 791 265 799 c 1,20,-1
 266 799 l 1,21,22
 344 852 344 852 344 907 c 0,23,24
 344 942 344 942 312.5 964 c 128,-1,25
 281 986 281 986 249 986 c 0,26,27
 239 986 239 986 230 984 c 0,28,29
 179 974 179 974 156 928 c 0,30,31
 141 899 141 899 123 899 c 2,32,-1
 122 899 l 2,33,34
 116 899 116 899 109 903 c 0,35,36
 94 911 94 911 94 924 c 128,-1,37
 94 937 94 937 101 951 c 0,38,39
 138 1026 138 1026 217 1044 c 0,40,41
 236 1048 236 1048 253 1048 c 0,42,43
 303 1048 303 1048 353.5 1008.5 c 128,-1,44
 404 969 404 969 404 902 c 1,45,-1
 403 895 l 1,46,47
 398 829 398 829 318 766 c 1,48,49
 319 766 319 766 313 762 c 1,50,51
 313 762 313 762 313 285 c 1,52,-1
 644 285 l 1,53,-1
 644 428 l 2,54,55
 644 441 644 441 653 449.5 c 128,-1,56
 662 458 662 458 675 458 c 128,-1,57
 688 458 688 458 696.5 449.5 c 128,-1,58
 705 441 705 441 705 428 c 2,59,-1
 705 285 l 1,60,-1
 1050 285 l 2,61,62
 1063 285 1063 285 1071.5 277 c 128,-1,63
 1080 269 1080 269 1080 256 c 128,-1,64
 1080 243 1080 243 1071.5 234.5 c 128,-1,65
 1063 226 1063 226 1050 226 c 2,66,-1
 705 226 l 1,67,-1
 705 80 l 2,68,69
 705 67 705 67 696.5 58.5 c 128,-1,70
 688 50 688 50 675 50 c 128,-1,71
 662 50 662 50 653 59 c 128,-1,72
 644 68 644 68 644 74 c 2,73,74
 644 74 644 74 644 226 c 1,75,-1
 313 226 l 1,76,-1
 313 150 l 2,77,78
 313 101 313 101 290 70 c 128,-1,79
 267 39 267 39 229 39 c 2,80,-1
 228 39 l 2,81,82
 170 39 170 39 110 96 c 128,-1,83
 50 153 50 153 50 204 c 0,84,85
 50 251 50 251 92 272 c 0,86,87
 119 286 119 286 163 286 c 1,88,-1
 178 285 l 1,16,-1
EndSplineSet
EndChar

StartChar: D51
Encoding: 78007 78007 118
Width: 1002
VWidth: -40
Flags: W
LayerCount: 2
Fore
SplineSet
712 218 m 2,0,1
 729 218 729 218 736 207 c 2,2,-1
 745 193 l 1,3,-1
 753 181 l 1,4,-1
 907 281 l 2,5,6
 916 287 916 287 928 287 c 0,7,8
 940 288 940 288 946 276 c 0,9,10
 952 264 952 264 952 252 c 0,11,12
 952 240 952 240 939 231 c 2,13,-1
 785 131 l 1,14,-1
 847 38 l 2,15,16
 854 29 854 29 854 17 c 0,17,18
 854 5 854 5 842 -2 c 0,19,20
 830 -9 830 -9 818 -9 c 0,21,22
 805 -9 805 -9 798 4 c 1,23,-1
 798 5 l 1,24,-1
 696 159 l 1,25,-1
 80 159 l 2,26,27
 67 159 67 159 58.5 167.5 c 128,-1,28
 50 176 50 176 50 189 c 128,-1,29
 50 202 50 202 58 210 c 0,30,31
 66 218 66 218 80 218 c 2,32,-1
 712 218 l 2,0,1
EndSplineSet
EndChar

StartChar: D53
Encoding: 78010 78010 119
Width: 715
VWidth: -34
Flags: W
LayerCount: 2
Fore
SplineSet
329 857 m 0,0,1
 348 857 348 857 363.5 856 c 128,-1,2
 379 855 379 855 387 846 c 128,-1,3
 395 837 395 837 395 826 c 2,4,-1
 395 824 l 1,5,6
 393 813 393 813 384 805 c 128,-1,7
 375 797 375 797 365 797 c 2,8,-1
 362 797 l 1,9,10
 338 799 338 799 317 799 c 0,11,12
 243 798 243 798 208 779.5 c 128,-1,13
 173 761 173 761 173 744 c 2,14,-1
 173 738 l 1,15,16
 179 713 179 713 217 695 c 128,-1,17
 255 677 255 677 308 677 c 2,18,19
 308 677 308 677 322 677 c 128,-1,20
 336 677 336 677 361 679 c 1,21,-1
 365 679 l 2,22,23
 378 679 378 679 386 670 c 128,-1,24
 394 661 394 661 395 649 c 1,25,-1
 395 517 l 1,26,-1
 612 756 l 2,27,28
 631 777 631 777 654 756 c 0,29,30
 665 747 665 747 665.5 735.5 c 128,-1,31
 666 724 666 724 656 714 c 2,32,-1
 394 429 l 1,33,34
 395 429 395 429 395 58 c 0,35,36
 395 45 395 45 386.5 36.5 c 128,-1,37
 378 28 378 28 365 28 c 128,-1,38
 352 28 352 28 343 36.5 c 128,-1,39
 334 45 334 45 334 58 c 2,40,-1
 334 364 l 1,41,-1
 123 131 l 1,42,-1
 170 87 l 2,43,44
 180 78 180 78 180 66.5 c 128,-1,45
 180 55 180 55 171.5 45.5 c 128,-1,46
 163 36 163 36 150 36 c 128,-1,47
 137 36 137 36 129 44 c 2,48,-1
 61 109 l 2,49,50
 51 118 51 118 50.5 129.5 c 128,-1,51
 50 141 50 141 54 145.5 c 128,-1,52
 58 150 58 150 334 452 c 1,53,-1
 334 618 l 1,54,-1
 321 618 l 2,55,56
 240 618 240 618 186 643 c 0,57,58
 122 672 122 672 113 728 c 0,59,60
 112 734 112 734 113 740 c 0,61,62
 113 764 113 764 128.5 789 c 128,-1,63
 144 814 144 814 188 835.5 c 128,-1,64
 232 857 232 857 329 857 c 0,0,1
EndSplineSet
EndChar

StartChar: D54
Encoding: 78011 78011 120
Width: 527
VWidth: -40
Flags: W
LayerCount: 2
Fore
SplineSet
145 325 m 0,0,1
 179 325 179 325 179 294 c 2,2,-1
 179 288 l 1,3,4
 178 287 178 287 117 54 c 1,5,-1
 446 54 l 2,6,7
 459 54 459 54 468 45 c 128,-1,8
 477 36 477 36 477 23.5 c 128,-1,9
 477 11 477 11 468 2 c 128,-1,10
 459 -7 459 -7 446 -7 c 2,11,-1
 80 -7 l 2,12,13
 67 -7 67 -7 58 2 c 0,14,15
 50 11 50 11 50 17 c 2,16,17
 50 17 50 17 50 22 c 128,-1,18
 50 27 50 27 86.5 169 c 128,-1,19
 123 311 123 311 134 322 c 0,20,21
 137 325 137 325 145 325 c 0,0,1
EndSplineSet
EndChar

StartChar: D55
Encoding: 78013 78013 121
Width: 740
VWidth: -34
Flags: W
LayerCount: 2
Fore
SplineSet
265 55 m 0,0,1
 265 28 265 28 236 26 c 0,2,3
 223 26 223 26 216 33 c 2,4,-1
 59 171 l 2,5,6
 49 180 49 180 50 192.5 c 128,-1,7
 51 205 51 205 58 213 c 2,8,-1
 468 649 l 1,9,-1
 350 791 l 2,10,11
 343 798 343 798 344 811 c 128,-1,12
 345 824 345 824 352.5 832 c 128,-1,13
 360 840 360 840 369 840 c 2,14,-1
 373 840 l 2,15,16
 387 840 387 840 395 829 c 2,17,-1
 509 693 l 1,18,-1
 639 830 l 2,19,20
 647 839 647 839 659.5 839.5 c 128,-1,21
 672 840 672 840 681 831.5 c 128,-1,22
 690 823 690 823 690 811.5 c 128,-1,23
 690 800 690 800 682 790 c 1,24,-1
 123 195 l 1,25,-1
 255 79 l 2,26,27
 265 70 265 70 265 55 c 0,0,1
EndSplineSet
EndChar

StartChar: D56
Encoding: 78014 78014 122
Width: 633
VWidth: -37
Flags: W
LayerCount: 2
Fore
SplineSet
81 600 m 128,-1,1
 94 600 94 600 102.5 591.5 c 128,-1,2
 111 583 111 583 111 570 c 2,3,-1
 111 122 l 1,4,-1
 135 146 l 1,5,-1
 138 148 l 1,6,7
 189 193 189 193 231.5 193 c 128,-1,8
 274 193 274 193 317 165.5 c 128,-1,9
 360 138 360 138 420 77 c 0,10,11
 421 77 421 77 444 52 c 1,12,-1
 444 71 l 1,13,14
 485 81 485 81 513 114 c 128,-1,15
 541 147 541 147 553.5 147 c 128,-1,16
 566 147 566 147 574.5 138.5 c 128,-1,17
 583 130 583 130 583.5 118 c 128,-1,18
 584 106 584 106 562 82 c 0,19,20
 500 11 500 11 435 11 c 0,21,22
 401 11 401 11 345 66 c 0,23,24
 314 97 314 97 284.5 115 c 128,-1,25
 255 133 255 133 233 133 c 0,26,27
 198 133 198 133 132 56 c 0,28,29
 94 12 94 12 76 12 c 0,30,31
 68 12 68 12 59 20.5 c 128,-1,32
 50 29 50 29 50 41 c 2,33,-1
 50 570 l 2,34,35
 50 583 50 583 59 591.5 c 128,-1,0
 68 600 68 600 81 600 c 128,-1,1
EndSplineSet
EndChar

StartChar: D57
Encoding: 78015 78015 123
Width: 469
VWidth: -35
Flags: W
LayerCount: 2
Fore
SplineSet
360 462 m 1,0,-1
 151 264 l 1,1,-1
 151 263 l 1,2,-1
 147 259 l 1,3,4
 108 228 108 228 110 199 c 0,5,6
 111 190 111 190 122 180 c 0,7,8
 123 180 123 180 360 91 c 1,9,-1
 360 462 l 1,0,-1
390 774 m 128,-1,11
 403 774 403 774 411 766 c 128,-1,12
 419 758 419 758 419 745 c 2,13,-1
 419 54 l 1,14,15
 412 29 412 29 393 25 c 1,16,17
 393 26 393 26 386.5 24 c 128,-1,18
 380 22 380 22 377 22 c 2,19,-1
 374 22 l 1,20,-1
 96 126 l 1,21,22
 68 142 68 142 56 175 c 0,23,24
 50 190 50 190 50 203 c 0,25,26
 50 263 50 263 111 307 c 1,27,-1
 111 306 l 1,28,-1
 360 543 l 1,29,-1
 360 745 l 2,30,31
 360 758 360 758 368.5 766 c 128,-1,10
 377 774 377 774 390 774 c 128,-1,11
EndSplineSet
EndChar

StartChar: D6
Encoding: 77947 77947 124
Width: 936
VWidth: -39
Flags: W
LayerCount: 2
Fore
SplineSet
201 274 m 0,0,1
 140 274 140 274 114 216 c 0,2,3
 99 184 99 184 80 184 c 2,4,-1
 79 184 l 2,5,6
 75 184 75 184 68 187 c 0,7,8
 49 194 49 194 49 213 c 0,9,10
 49 217 49 217 55 232 c 0,11,12
 72 275 72 275 111.5 304 c 128,-1,13
 151 333 151 333 191 333 c 0,14,15
 274 333 274 333 322 273 c 0,16,17
 350 237 350 237 350 193 c 0,18,19
 350 132 350 132 288 80 c 2,20,-1
 257 54 l 1,21,-1
 857 54 l 2,22,23
 870 54 870 54 878.5 45.5 c 128,-1,24
 887 37 887 37 886.5 24.5 c 128,-1,25
 886 12 886 12 878.5 3.5 c 128,-1,26
 871 -5 871 -5 857 -5 c 2,27,-1
 112 -5 l 2,28,29
 99 -5 99 -5 91 3.5 c 128,-1,30
 83 12 83 12 83 24.5 c 128,-1,31
 83 37 83 37 89.5 43.5 c 128,-1,32
 96 50 96 50 130 59 c 0,33,34
 244 88 244 88 280 148 c 0,35,36
 293 170 293 170 293 191 c 128,-1,37
 293 212 293 212 276 235 c 0,38,39
 247 274 247 274 201 274 c 0,0,1
EndSplineSet
EndChar

StartChar: D60
Encoding: 78018 78018 125
Width: 400
VWidth: -32
Flags: W
LayerCount: 2
Fore
SplineSet
50 828 m 0,0,1
 50 904 50 904 91.5 964 c 128,-1,2
 133 1024 133 1024 196.5 1024 c 128,-1,3
 260 1024 260 1024 303 962.5 c 128,-1,4
 346 901 346 901 350 793 c 1,5,-1
 350 67 l 2,6,7
 350 54 350 54 341.5 46 c 128,-1,8
 333 38 333 38 320.5 38 c 128,-1,9
 308 38 308 38 299.5 46.5 c 128,-1,10
 291 55 291 55 291 67 c 2,11,-1
 291 791 l 1,12,-1
 290 792 l 1,13,14
 287 879 287 879 255 926 c 0,15,16
 231 963 231 963 198 963 c 128,-1,17
 165 963 165 963 141 931 c 0,18,19
 109 887 109 887 109 826 c 0,20,21
 109 794 109 794 100.5 785.5 c 128,-1,22
 92 777 92 777 79.5 777 c 128,-1,23
 67 777 67 777 58 786 c 0,24,25
 50 795 50 795 50 828 c 0,0,1
EndSplineSet
EndChar

StartChar: E1
Encoding: 78034 78034 126
Width: 678
VWidth: -38
Flags: W
LayerCount: 2
Fore
SplineSet
412 497 m 0,0,1
 419 497 419 497 429 492 c 0,2,3
 456 479 456 479 471.5 452 c 128,-1,4
 487 425 487 425 487.5 409 c 128,-1,5
 488 393 488 393 485 381 c 0,6,7
 468 309 468 309 309 258 c 0,8,9
 196 221 196 221 139 171 c 0,10,11
 99 138 99 138 114 117 c 0,12,13
 132 92 132 92 203 74 c 0,14,15
 243 65 243 65 264 65 c 2,16,17
 264 65 264 65 291 65 c 0,18,19
 369 65 369 65 409 84 c 0,20,21
 431 94 431 94 455.5 117.5 c 128,-1,22
 480 141 480 141 491 148.5 c 128,-1,23
 502 156 502 156 512.5 156 c 128,-1,24
 523 156 523 156 531 148 c 2,25,-1
 619 60 l 2,26,27
 628 51 628 51 628 38.5 c 128,-1,28
 628 26 628 26 619 17.5 c 128,-1,29
 610 9 610 9 597.5 9 c 128,-1,30
 585 9 585 9 576 17 c 2,31,-1
 509 86 l 1,32,33
 478 59 478 59 464.5 49 c 0,34,35
 452 39 452 39 420 26 c 0,36,37
 369 5 369 5 304.5 5 c 128,-1,38
 240 5 240 5 186 18 c 0,39,40
 100 39 100 39 67 84 c 0,41,42
 23 144 23 144 96 209.5 c 128,-1,43
 169 275 169 275 307 320 c 0,44,45
 380 344 380 344 401.5 362 c 128,-1,46
 423 380 423 380 425.5 390.5 c 128,-1,47
 428 401 428 401 428 408 c 0,48,49
 428 426 428 426 404 438 c 0,50,51
 381 448 381 448 381 468 c 0,52,53
 381 475 381 475 384 481 c 0,54,55
 392 497 392 497 412 497 c 0,0,1
EndSplineSet
EndChar

StartChar: E15
Encoding: 78050 78050 127
Width: 1156
VWidth: -37
Flags: W
LayerCount: 2
Fore
SplineSet
588 306 m 2,0,1
 588 306 588 306 590 306 c 128,-1,2
 592 306 592 306 658 302 c 128,-1,3
 724 298 724 298 730.5 298 c 128,-1,4
 737 298 737 298 779 301 c 1,5,6
 860 357 860 357 888 393 c 1,7,-1
 897 404 l 1,8,-1
 884 413 l 2,9,10
 880 416 880 416 870 420 c 0,11,12
 830 435 830 435 821 515 c 1,13,-1
 821 518 l 2,14,15
 821 529 821 529 828.5 538.5 c 128,-1,16
 836 548 836 548 847 548 c 2,17,-1
 850 548 l 2,18,19
 862 548 862 548 870.5 540.5 c 128,-1,20
 879 533 879 533 880 522 c 0,21,22
 884 462 884 462 937 447 c 0,23,24
 958 441 958 441 1007 436 c 0,25,26
 1091 427 1091 427 1103 411 c 0,27,28
 1107 405 1107 405 1107 392 c 128,-1,29
 1107 379 1107 379 1097 371.5 c 128,-1,30
 1087 364 1087 364 1078.5 364 c 128,-1,31
 1070 364 1070 364 1058.5 367.5 c 128,-1,32
 1047 371 1047 371 955 384 c 1,33,34
 940 358 940 358 926 342 c 0,35,36
 907 319 907 319 880.5 300 c 128,-1,37
 854 281 854 281 806 247 c 0,38,39
 797 242 797 242 791 242 c 2,40,-1
 782 242 l 2,41,42
 775 242 775 242 771 241 c 2,43,-1
 755 238 l 1,44,-1
 789 145 l 1,45,-1
 874 145 l 2,46,47
 887 145 887 145 895 136 c 128,-1,48
 903 127 903 127 903 114.5 c 128,-1,49
 903 102 903 102 895 93 c 128,-1,50
 887 84 887 84 874 84 c 2,51,-1
 768 84 l 2,52,53
 745 84 745 84 741 102 c 1,54,-1
 703 203 l 1,55,56
 705 209 705 209 707 213 c 1,57,-1
 729 234 l 1,58,59
 690 238 690 238 664 242 c 0,60,61
 622 248 622 248 593 247 c 0,62,63
 508 247 508 247 438 206 c 0,64,65
 431 202 431 202 427 200 c 1,66,-1
 428 200 l 1,67,68
 413 190 413 190 396 177 c 1,69,-1
 407 165 l 2,70,71
 413 159 413 159 464 143 c 1,72,-1
 592 143 l 2,73,74
 605 143 605 143 613 134 c 128,-1,75
 621 125 621 125 621 112.5 c 128,-1,76
 621 100 621 100 612.5 91 c 128,-1,77
 604 82 604 82 592 82 c 2,78,-1
 458 82 l 2,79,80
 456 82 456 82 446 85 c 0,81,82
 378 103 378 103 356 130 c 2,83,-1
 348 140 l 1,84,-1
 337 133 l 1,85,86
 222 56 222 56 109 16 c 0,87,88
 86 7 86 7 78 7 c 0,89,90
 60 7 60 7 53 25 c 0,91,92
 47 42 47 42 53 52 c 128,-1,93
 59 62 59 62 110 80 c 0,94,95
 286 142 286 142 377 233 c 0,96,97
 392 248 392 248 411 260 c 0,98,99
 485 306 485 306 588 306 c 2,0,1
EndSplineSet
EndChar

StartChar: E9
Encoding: 78043 78043 128
Width: 348
VWidth: -38
Flags: W
LayerCount: 2
Fore
SplineSet
50 393.5 m 128,-1,1
 50 407 50 407 65 423 c 0,2,3
 98 456 98 456 153 456 c 128,-1,4
 208 456 208 456 248 429 c 0,5,6
 297 397 297 397 298 345 c 1,7,-1
 298 343 l 2,8,9
 298 287 298 287 247 240 c 2,10,11
 247 240 247 240 223 217.5 c 128,-1,12
 199 195 199 195 190 187 c 128,-1,13
 181 179 181 179 176 173 c 1,14,-1
 120 173 l 1,15,-1
 173 147 l 2,16,17
 176 145 176 145 187 135 c 2,18,-1
 285 55 l 2,19,20
 295 46 295 46 295 34 c 128,-1,21
 295 22 295 22 285.5 12.5 c 128,-1,22
 276 3 276 3 264 3 c 128,-1,23
 252 3 252 3 236.5 16 c 128,-1,24
 221 29 221 29 189 55 c 128,-1,25
 157 81 157 81 151.5 86.5 c 128,-1,26
 146 92 146 92 138 98 c 0,27,28
 116 115 116 115 113.5 120 c 128,-1,29
 111 125 111 125 106 136 c 128,-1,30
 101 147 101 147 101 159 c 0,31,32
 101 182 101 182 128 212 c 0,33,34
 139 224 139 224 162 244.5 c 128,-1,35
 185 265 185 265 195 274 c 0,36,37
 237 312 237 312 237.5 338 c 128,-1,38
 238 364 238 364 216 379.5 c 128,-1,39
 194 395 194 395 158.5 395 c 128,-1,40
 123 395 123 395 107.5 379 c 128,-1,41
 92 363 92 363 79 363 c 128,-1,42
 66 363 66 363 58 371.5 c 128,-1,0
 50 380 50 380 50 393.5 c 128,-1,1
EndSplineSet
EndChar

StartChar: F12
Encoding: 78090 78090 129
Width: 832
VWidth: -33
Flags: W
LayerCount: 2
Fore
SplineSet
50 872 m 0,0,1
 50 891 50 891 71 898 c 1,2,-1
 80 898 l 2,3,4
 93 898 93 898 99 892 c 128,-1,5
 105 886 105 886 114 850.5 c 128,-1,6
 123 815 123 815 150.5 780.5 c 128,-1,7
 178 746 178 746 213 746 c 128,-1,8
 248 746 248 746 261 780 c 0,9,10
 266 793 266 793 272 799 c 1,11,-1
 272 894 l 2,12,13
 272 907 272 907 281 915 c 128,-1,14
 290 923 290 923 302.5 923 c 128,-1,15
 315 923 315 923 324 915 c 128,-1,16
 333 907 333 907 333 894 c 2,17,-1
 333 815 l 1,18,19
 395 809 395 809 443 809 c 0,20,21
 653 809 653 809 710 923 c 0,22,23
 710 924 710 924 715 933.5 c 128,-1,24
 720 943 720 943 720 945 c 0,25,26
 726 968 726 968 750 968 c 0,27,28
 771 968 771 968 776.5 958.5 c 0,29,30
 782 950 782 950 782 942 c 0,31,32
 782 926 782 926 773.5 916.5 c 128,-1,33
 765 907 765 907 756 907.5 c 128,-1,34
 747 908 747 908 744 910 c 1,35,-1
 734 883 l 1,36,37
 743 880 743 880 754 880 c 2,38,-1
 756 880 l 1,39,40
 670 747 670 747 442 747 c 2,41,42
 442 747 442 747 417 747 c 128,-1,43
 392 747 392 747 332 752 c 1,44,-1
 332 725 l 2,45,46
 332 615 332 615 329 65 c 0,47,48
 329 52 329 52 320 43.5 c 128,-1,49
 311 35 311 35 298 35 c 2,50,-1
 297 35 l 2,51,52
 284 35 284 35 276 43.5 c 128,-1,53
 268 52 268 52 268 65 c 2,54,-1
 272 713 l 1,55,-1
 251 703 l 2,56,57
 220 689 220 689 205 689 c 0,58,59
 147 689 147 689 106 743 c 0,60,61
 70 788 70 788 53 857 c 0,62,63
 50 867 50 867 50 872 c 0,0,1
EndSplineSet
EndChar

StartChar: F13
Encoding: 78091 78091 130
Width: 804
VWidth: -39
Flags: W
LayerCount: 2
Fore
SplineSet
94 357 m 0,0,1
 50 357 50 357 50 386 c 0,2,3
 50 399 50 399 58.5 407.5 c 128,-1,4
 67 416 67 416 80 416 c 2,5,-1
 97 416 l 1,6,-1
 131 416 l 1,7,8
 172 414 172 414 181 412 c 0,9,10
 216 402 216 402 231.5 393 c 128,-1,11
 247 384 247 384 257.5 366 c 128,-1,12
 268 348 268 348 268 329.5 c 128,-1,13
 268 311 268 311 234 259 c 1,14,15
 231 237 231 237 231 219 c 0,16,17
 231 164 231 164 257 135 c 0,18,19
 291 96 291 96 402 65 c 1,20,21
 513 95 513 95 546 133 c 0,22,23
 572 162 572 162 573 217 c 0,24,25
 573 238 573 238 570 259 c 1,26,27
 536 311 536 311 536 329 c 0,28,29
 535 383 535 383 602 405 c 0,30,31
 625 414 625 414 642 414 c 0,32,33
 655 416 655 416 683 416 c 2,34,-1
 705 416 l 1,35,-1
 724 416 l 2,36,37
 737 416 737 416 745.5 407.5 c 128,-1,38
 754 399 754 399 754 386.5 c 128,-1,39
 754 374 754 374 745.5 365.5 c 128,-1,40
 737 357 737 357 686.5 357 c 128,-1,41
 636 357 636 357 599 336 c 1,42,-1
 599 327 l 2,43,44
 599 310 599 310 613.5 291 c 128,-1,45
 628 272 628 272 630 256.5 c 128,-1,46
 632 241 632 241 632 226 c 0,47,48
 632 145 632 145 590 94.5 c 128,-1,49
 548 44 548 44 432 11 c 1,50,51
 424 -1 424 -1 408 1 c 1,52,53
 408 0 408 0 396 0 c 0,54,55
 381 -1 381 -1 373 11 c 1,56,57
 257 45 257 45 214.5 95 c 128,-1,58
 172 145 172 145 172 221 c 0,59,60
 172 242 172 242 174 257.5 c 128,-1,61
 176 273 176 273 185 284 c 0,62,63
 206 310 206 310 206 327 c 2,64,-1
 206 336 l 1,65,66
 189 346 189 346 152.5 351.5 c 128,-1,67
 116 357 116 357 94 357 c 0,0,1
EndSplineSet
EndChar

StartChar: F27
Encoding: 78107 78107 131
Width: 565
VWidth: -40
Flags: W
LayerCount: 2
Fore
SplineSet
225 256 m 1,0,1
 148 79 148 79 111 11 c 1,2,-1
 121 4 l 1,3,-1
 148 -14 l 1,4,5
 250 -84 250 -84 250 -114 c 0,6,7
 250 -122 250 -122 242 -131 c 128,-1,8
 234 -140 234 -140 221.5 -139.5 c 128,-1,9
 209 -139 209 -139 177.5 -110.5 c 128,-1,10
 146 -82 146 -82 111.5 -60.5 c 0,11,12
 76 -38 76 -38 66 -28 c 0,13,14
 50 -12 50 -12 50 2.5 c 128,-1,15
 50 17 50 17 54.5 27 c 128,-1,16
 59 37 59 37 85 91 c 0,17,18
 112 144 112 144 132 188 c 0,19,20
 162 252 162 252 171 280 c 0,21,22
 183 313 183 313 191.5 366.5 c 128,-1,23
 200 420 200 420 211 429 c 0,24,25
 216 434 216 434 227 434 c 2,26,-1
 228 434 l 2,27,28
 240 434 240 434 249 424.5 c 128,-1,29
 258 415 258 415 258 404 c 2,30,-1
 258 402 l 1,31,32
 257 390 257 390 257 377 c 0,33,34
 257 299 257 299 291 259 c 0,35,36
 314 231 314 231 345 229 c 1,37,38
 345 229 345 229 347.5 229 c 128,-1,39
 350 229 350 229 354 230 c 0,40,41
 402 237 402 237 428.5 274.5 c 128,-1,42
 455 312 455 312 455 362 c 0,43,44
 455 377 455 377 452 396 c 1,45,-1
 452 402 l 2,46,47
 452 428 452 428 474 432 c 1,48,-1
 481 432 l 2,49,50
 515 432 515 432 515 365.5 c 128,-1,51
 515 299 515 299 481 246 c 0,52,53
 431 169 431 169 349 169 c 0,54,55
 325 169 325 169 296.5 180.5 c 128,-1,56
 268 192 268 192 248 216 c 0,57,58
 242 223 242 223 225 256 c 1,0,1
EndSplineSet
EndChar

StartChar: F30
Encoding: 78110 78110 132
Width: 576
VWidth: -39
Flags: W
LayerCount: 2
Fore
SplineSet
361 227 m 1,0,-1
 126 148 l 1,1,-1
 178 68 l 1,2,-1
 361 227 l 1,0,-1
488 330 m 2,3,4
 493 332 493 332 501.5 332 c 128,-1,5
 510 332 510 332 518 324 c 128,-1,6
 526 316 526 316 526 303 c 128,-1,7
 526 290 526 290 516 281 c 2,8,-1
 191 2 l 2,9,10
 184 -5 184 -5 169 -5 c 128,-1,11
 154 -5 154 -5 147 7 c 1,12,-1
 147 8 l 1,13,-1
 54 147 l 2,14,15
 50 153 50 153 50 163.5 c 128,-1,16
 50 174 50 174 55.5 182 c 128,-1,17
 61 190 61 190 68 192 c 2,18,-1
 488 330 l 2,3,4
EndSplineSet
EndChar

StartChar: F31
Encoding: 78111 78111 133
Width: 743
VWidth: -37
Flags: W
LayerCount: 2
Fore
SplineSet
167 521 m 0,0,1
 208 506 208 506 216 462 c 0,2,3
 220 436 220 436 219.5 429.5 c 128,-1,4
 219 423 219 423 213 405 c 2,5,6
 213 405 213 405 206 385.5 c 128,-1,7
 199 366 199 366 188 345 c 0,8,9
 166 286 166 286 166 263 c 128,-1,10
 166 240 166 240 172 226.5 c 128,-1,11
 178 213 178 213 196 203.5 c 128,-1,12
 214 194 214 194 224 194 c 0,13,14
 260 194 260 194 303 244 c 0,15,16
 366 319 366 319 370 406 c 0,17,18
 371 458 371 458 399 458 c 0,19,20
 411 458 411 458 420 449.5 c 128,-1,21
 429 441 429 441 429 427 c 0,22,23
 429 316 429 316 462 256 c 0,24,25
 487 209 487 209 523 209 c 128,-1,26
 559 209 559 209 592.5 266 c 128,-1,27
 626 323 626 323 629 399 c 0,28,29
 630 441 630 441 642 452 c 0,30,31
 648 458 648 458 659.5 458 c 128,-1,32
 671 458 671 458 679.5 449.5 c 128,-1,33
 688 441 688 441 689 430 c 1,34,-1
 688 429 l 1,35,-1
 693 37 l 2,36,37
 693 24 693 24 685 15.5 c 128,-1,38
 677 7 677 7 664 7 c 128,-1,39
 651 7 651 7 643 15.5 c 128,-1,40
 635 24 635 24 635 37 c 2,41,-1
 632 217 l 1,42,-1
 608 192 l 1,43,44
 565 150 565 150 528.5 150 c 128,-1,45
 492 150 492 150 462 170 c 0,46,47
 420 197 420 197 405 242 c 1,48,49
 405 242 405 242 401 252 c 2,50,-1
 391 273 l 1,51,-1
 377 255 l 2,52,53
 373 250 373 250 364 230 c 0,54,55
 339 175 339 175 279 149 c 0,56,57
 250 136 250 136 226 136 c 0,58,59
 168 136 168 136 131 184 c 0,60,61
 106 217 106 217 106 255.5 c 128,-1,62
 106 294 106 294 129 362 c 1,63,64
 158 420 158 420 158 451 c 1,65,-1
 136 440 l 1,66,-1
 132 449 l 1,67,-1
 145 463 l 1,68,-1
 146 463 l 1,69,-1
 149 463 l 1,70,71
 141 466 141 466 126 466 c 128,-1,72
 111 466 111 466 86 462 c 1,73,-1
 80 462 l 2,74,75
 68 462 68 462 59 469 c 0,76,77
 51 476 51 476 50 485 c 1,78,-1
 50 491 l 2,79,80
 50 527 50 527 125 527 c 0,81,82
 151 526 151 526 167 521 c 0,0,1
EndSplineSet
EndChar

StartChar: XA
Encoding: 78113 78113 134
Width: 954
VWidth: -40
Flags: W
LayerCount: 2
Fore
SplineSet
50 233.5 m 128,-1,1
 50 246 50 246 58 255 c 0,2,3
 67 264 67 264 73.5 263.5 c 128,-1,4
 80 263 80 263 759 261 c 0,5,6
 772 261 772 261 780.5 253 c 128,-1,7
 789 245 789 245 789 230 c 128,-1,8
 789 215 789 215 757 194.5 c 128,-1,9
 725 174 725 174 725 144 c 0,10,11
 725 127 725 127 736 115 c 0,12,13
 762 86 762 86 802 103 c 0,14,15
 830 114 830 114 845 133 c 128,-1,16
 860 152 860 152 876 152 c 1,17,18
 876 152 876 152 882 151.5 c 128,-1,19
 888 151 888 151 896 143 c 128,-1,20
 904 135 904 135 904 122 c 2,21,-1
 904 20 l 2,22,23
 904 7 904 7 896 -1 c 128,-1,24
 888 -9 888 -9 875 -9 c 128,-1,25
 862 -9 862 -9 853.5 -1 c 128,-1,26
 845 7 845 7 845 20 c 2,27,-1
 845 40 l 1,28,-1
 845 60 l 1,29,-1
 826 53 l 2,30,31
 799 43 799 43 763.5 43 c 128,-1,32
 728 43 728 43 696.5 71.5 c 128,-1,33
 665 100 665 100 665 140 c 0,34,35
 665 158 665 158 669.5 166 c 128,-1,36
 674 174 674 174 688 202 c 1,37,-1
 80 204 l 2,38,39
 67 204 67 204 58.5 212.5 c 128,-1,0
 50 221 50 221 50 233.5 c 128,-1,1
EndSplineSet
EndChar

StartChar: F34
Encoding: 78115 78115 135
Width: 718
VWidth: -37
Flags: W
LayerCount: 2
Fore
SplineSet
111 79 m 1,0,1
 129 71 129 71 133 71 c 2,2,-1
 146 71 l 1,3,-1
 146 85 l 1,4,-1
 146 93 l 1,5,-1
 146 112 l 1,6,-1
 129 107 l 1,7,-1
 122 105 l 2,8,9
 121 105 121 105 111 102 c 1,10,-1
 111 91 l 1,11,-1
 111 87 l 1,12,-1
 111 79 l 1,0,1
176.5 608 m 128,-1,14
 189 608 189 608 198 599.5 c 128,-1,15
 207 591 207 591 207 578 c 2,16,-1
 207 173 l 1,17,-1
 638 173 l 2,18,19
 651 173 651 173 659.5 164.5 c 128,-1,20
 668 156 668 156 668 143.5 c 128,-1,21
 668 131 668 131 659.5 122.5 c 128,-1,22
 651 114 651 114 638 114 c 2,23,-1
 207 114 l 1,24,-1
 207 99 l 1,25,-1
 207 77 l 1,26,-1
 207 75 l 1,27,28
 204 41 204 41 182 26 c 128,-1,29
 160 11 160 11 134.5 11 c 0,30,31
 109 12 109 12 85 26 c 0,32,33
 50 47 50 47 50 89 c 0,34,35
 50 155 50 155 135 168 c 1,36,-1
 146 170 l 1,37,-1
 146 578 l 2,38,39
 146 591 146 591 155 599.5 c 128,-1,13
 164 608 164 608 176.5 608 c 128,-1,14
EndSplineSet
EndChar

StartChar: F35
Encoding: 78116 78116 136
Width: 718
VWidth: -37
Flags: W
LayerCount: 2
Fore
SplineSet
111 79 m 1,0,1
 129 71 129 71 133 71 c 2,2,-1
 146 71 l 1,3,-1
 146 85 l 1,4,-1
 146 93 l 1,5,-1
 146 112 l 1,6,-1
 129 107 l 1,7,-1
 122 105 l 2,8,9
 121 105 121 105 111 102 c 1,10,-1
 111 91 l 1,11,-1
 111 87 l 1,12,-1
 111 79 l 1,0,1
176.5 608 m 128,-1,14
 189 608 189 608 198 599.5 c 128,-1,15
 207 591 207 591 207 578 c 2,16,-1
 207 173 l 1,17,-1
 638 173 l 2,18,19
 651 173 651 173 659.5 164.5 c 128,-1,20
 668 156 668 156 668 143.5 c 128,-1,21
 668 131 668 131 659.5 122.5 c 128,-1,22
 651 114 651 114 638 114 c 2,23,-1
 207 114 l 1,24,-1
 207 99 l 1,25,-1
 207 77 l 1,26,-1
 207 75 l 1,27,28
 204 41 204 41 182 26 c 128,-1,29
 160 11 160 11 134.5 11 c 0,30,31
 109 12 109 12 85 26 c 0,32,33
 50 47 50 47 50 89 c 0,34,35
 50 155 50 155 135 168 c 1,36,-1
 146 170 l 1,37,-1
 146 578 l 2,38,39
 146 591 146 591 155 599.5 c 128,-1,13
 164 608 164 608 176.5 608 c 128,-1,14
EndSplineSet
EndChar

StartChar: F36
Encoding: 78117 78117 137
Width: 680
VWidth: -36
Flags: W
LayerCount: 2
Fore
SplineSet
448 193 m 0,0,1
 448 222 448 222 411 222 c 128,-1,2
 374 222 374 222 344.5 207.5 c 128,-1,3
 315 193 315 193 304.5 193 c 128,-1,4
 294 193 294 193 285.5 202 c 128,-1,5
 277 211 277 211 277 217 c 2,6,7
 277 217 277 217 277 614 c 1,8,-1
 79 614 l 2,9,10
 66 614 66 614 58 622.5 c 128,-1,11
 50 631 50 631 50 644 c 128,-1,12
 50 657 50 657 58 665 c 128,-1,13
 66 673 66 673 79 673 c 2,14,-1
 552 673 l 2,15,16
 565 673 565 673 573 665 c 128,-1,17
 581 657 581 657 581 644 c 128,-1,18
 581 631 581 631 572.5 622.5 c 128,-1,19
 564 614 564 614 552 614 c 2,20,-1
 336 614 l 1,21,-1
 336 266 l 1,22,-1
 355 271 l 2,23,24
 387 280 387 280 412 280 c 0,25,26
 469 280 469 280 495 234 c 0,27,28
 507 211 507 211 507 188 c 0,29,30
 507 146 507 146 465 100 c 0,31,32
 465 99 465 99 445 75 c 1,33,-1
 601 75 l 2,34,35
 614 75 614 75 622 67 c 128,-1,36
 630 59 630 59 630 46 c 128,-1,37
 630 33 630 33 621.5 25 c 128,-1,38
 613 17 613 17 601 17 c 2,39,-1
 244 17 l 1,40,41
 233 19 233 19 224 28 c 1,42,-1
 223 28 l 1,43,44
 218 37 218 37 218 44 c 2,45,-1
 218 52 l 2,46,47
 218 56 218 56 223.5 63 c 128,-1,48
 229 70 229 70 233.5 71.5 c 128,-1,49
 238 73 238 73 241 75 c 1,50,-1
 244 75 l 1,51,-1
 248 75 l 2,52,53
 340 75 340 75 400 117 c 0,54,55
 448 151 448 151 448 193 c 0,0,1
EndSplineSet
EndChar

StartChar: F4
Encoding: 78082 78082 138
Width: 1004
VWidth: -36
Flags: W
LayerCount: 2
Fore
SplineSet
346 701 m 2,0,-1
 348 701 l 2,1,2
 359 701 359 701 368 692 c 0,3,4
 378 683 378 683 378 670 c 128,-1,5
 378 657 378 657 371 651 c 1,6,-1
 144 389 l 1,7,-1
 428 389 l 1,8,-1
 432 389 l 2,9,10
 448 388 448 388 456 380 c 128,-1,11
 464 372 464 372 464 360 c 128,-1,12
 464 348 464 348 454 339 c 2,13,-1
 172 78 l 1,14,-1
 924 78 l 2,15,16
 938 78 938 78 946 69 c 128,-1,17
 954 60 954 60 954 47.5 c 128,-1,18
 954 35 954 35 946 26 c 128,-1,19
 938 17 938 17 924 17 c 2,20,-1
 95 17 l 2,21,22
 82 17 82 17 74 26 c 128,-1,23
 66 35 66 35 66 48 c 128,-1,24
 66 61 66 61 76 70 c 2,25,-1
 357 329 l 1,26,-1
 80 329 l 2,27,28
 67 329 67 329 58.5 337.5 c 128,-1,29
 50 346 50 346 50 358 c 128,-1,30
 50 370 50 370 54 375 c 0,31,32
 58 379 58 379 144 481 c 0,33,34
 332 701 332 701 346 701 c 2,0,-1
EndSplineSet
EndChar

StartChar: F40
Encoding: 78123 78123 139
Width: 743
VWidth: -37
Flags: W
LayerCount: 2
Fore
SplineSet
167 521 m 0,0,1
 208 506 208 506 216 462 c 0,2,3
 220 436 220 436 219.5 429.5 c 128,-1,4
 219 423 219 423 213 405 c 2,5,6
 213 405 213 405 206 385.5 c 128,-1,7
 199 366 199 366 188 345 c 0,8,9
 166 286 166 286 166 263 c 128,-1,10
 166 240 166 240 172 226.5 c 128,-1,11
 178 213 178 213 196 203.5 c 128,-1,12
 214 194 214 194 224 194 c 0,13,14
 260 194 260 194 303 244 c 0,15,16
 366 319 366 319 370 406 c 0,17,18
 371 458 371 458 399 458 c 0,19,20
 411 458 411 458 420 449.5 c 128,-1,21
 429 441 429 441 429 427 c 0,22,23
 429 316 429 316 462 256 c 0,24,25
 487 209 487 209 523 209 c 128,-1,26
 559 209 559 209 592.5 266 c 128,-1,27
 626 323 626 323 629 399 c 0,28,29
 630 441 630 441 642 452 c 0,30,31
 648 458 648 458 659.5 458 c 128,-1,32
 671 458 671 458 679.5 449.5 c 128,-1,33
 688 441 688 441 689 430 c 1,34,-1
 688 429 l 1,35,-1
 693 37 l 2,36,37
 693 24 693 24 685 15.5 c 128,-1,38
 677 7 677 7 664 7 c 128,-1,39
 651 7 651 7 643 15.5 c 128,-1,40
 635 24 635 24 635 37 c 2,41,-1
 632 217 l 1,42,-1
 608 192 l 1,43,44
 565 150 565 150 528.5 150 c 128,-1,45
 492 150 492 150 462 170 c 0,46,47
 420 197 420 197 405 242 c 1,48,49
 405 242 405 242 401 252 c 2,50,-1
 391 273 l 1,51,-1
 377 255 l 2,52,53
 373 250 373 250 364 230 c 0,54,55
 339 175 339 175 279 149 c 0,56,57
 250 136 250 136 226 136 c 0,58,59
 168 136 168 136 131 184 c 0,60,61
 106 217 106 217 106 255.5 c 128,-1,62
 106 294 106 294 129 362 c 1,63,64
 158 420 158 420 158 451 c 1,65,-1
 136 440 l 1,66,-1
 132 449 l 1,67,-1
 145 463 l 1,68,-1
 146 463 l 1,69,-1
 149 463 l 1,70,71
 141 466 141 466 126 466 c 128,-1,72
 111 466 111 466 86 462 c 1,73,-1
 80 462 l 2,74,75
 68 462 68 462 59 469 c 0,76,77
 51 476 51 476 50 485 c 1,78,-1
 50 491 l 2,79,80
 50 527 50 527 125 527 c 0,81,82
 151 526 151 526 167 521 c 0,0,1
EndSplineSet
EndChar

StartChar: F51
Encoding: 78137 78137 140
Width: 511
VWidth: -38
Flags: W
LayerCount: 2
Fore
SplineSet
401 348 m 0,0,1
 401 378 401 378 378.5 395 c 128,-1,2
 356 412 356 412 338 412 c 0,3,4
 275 412 275 412 265 371 c 0,5,6
 263 364 263 364 263 356 c 0,7,8
 263 322 263 322 296 262 c 1,9,-1
 304 249 l 1,10,11
 304 250 304 250 312 255 c 2,12,13
 312 255 312 255 330 265 c 0,14,15
 402 305 402 305 401 348 c 0,0,1
405.5 451 m 128,-1,17
 437 429 437 429 449 403 c 0,18,19
 461 376 461 376 461 362 c 0,20,21
 461 286 461 286 387 232 c 0,22,23
 354 207 354 207 274 163 c 0,24,25
 126 81 126 81 109 25 c 0,26,27
 102 3 102 3 81 3 c 2,28,29
 81 3 81 3 77 3 c 128,-1,30
 73 3 73 3 71 5 c 1,31,-1
 70 5 l 1,32,33
 50 11 50 11 50 40 c 1,34,35
 75 116 75 116 162 169 c 0,36,37
 227 208 227 208 239 212 c 2,38,-1
 255 218 l 1,39,-1
 247 232 l 2,40,41
 204 307 204 307 203 358 c 0,42,43
 203 408 203 408 240 441 c 0,44,45
 275 473 275 473 324.5 473 c 128,-1,16
 374 473 374 473 405.5 451 c 128,-1,17
EndSplineSet
EndChar

StartChar: A
Encoding: 78143 78143 141
Width: 841
VWidth: -37
Flags: W
LayerCount: 2
Fore
SplineSet
116 118 m 0,0,1
 116 68 116 68 143 68 c 0,2,3
 157 68 157 68 182.5 80 c 128,-1,4
 208 92 208 92 235 114 c 1,5,-1
 236 116 l 1,6,-1
 237 117 l 1,7,-1
 238 119 l 1,8,-1
 250 138 l 1,9,10
 175 150 175 150 161 150 c 128,-1,11
 147 150 147 150 143 149 c 2,12,-1
 129 145 l 1,13,-1
 125 144 l 1,14,15
 118 134 118 134 117 131 c 128,-1,16
 116 128 116 128 116 118 c 0,0,1
294 192 m 1,17,18
 358 288 358 288 358 355 c 0,19,20
 358 374 358 374 354 394 c 0,21,22
 339 459 339 459 300 486 c 0,23,24
 275 503 275 503 234 502.5 c 128,-1,25
 193 502 193 502 153.5 466.5 c 128,-1,26
 114 431 114 431 111 401 c 0,27,28
 109 386 109 386 100 377 c 128,-1,29
 91 368 91 368 80 368 c 2,30,-1
 76 368 l 1,31,32
 65 369 65 369 57.5 378.5 c 128,-1,33
 50 388 50 388 50 399 c 2,34,-1
 50 403 l 1,35,36
 58 464 58 464 104 506 c 0,37,38
 166 562 166 562 247 562 c 0,39,40
 297 562 297 562 336 534 c 0,41,42
 394 493 394 493 412 408 c 0,43,44
 418 380 418 380 418 355 c 0,45,46
 418 275 418 275 360 183 c 2,47,-1
 350 167 l 1,48,49
 540 102 540 102 581 86 c 128,-1,50
 622 70 622 70 640 70 c 0,51,52
 695 70 695 70 720 110 c 0,53,54
 734 132 734 132 734 155 c 0,55,56
 734 202 734 202 686 240 c 0,57,58
 663 258 663 258 663 269.5 c 128,-1,59
 663 281 663 281 671 291 c 0,60,61
 690 314 690 314 726 285 c 0,62,63
 772 246 772 246 786 186 c 0,64,65
 802 126 802 126 772 79 c 0,66,67
 728 9 728 9 639 9 c 0,68,69
 605 10 605 10 521.5 44.5 c 128,-1,70
 438 79 438 79 311 119 c 1,71,72
 299 105 299 105 288.5 89 c 128,-1,73
 278 73 278 73 258 56 c 0,74,75
 204 9 204 9 149 9 c 2,76,77
 149 9 149 9 147 9 c 0,78,79
 98 9 98 9 77.5 41 c 0,80,81
 57 72 57 72 57 116 c 0,82,83
 57 210 57 210 167 211 c 0,84,85
 210 211 210 211 269 197 c 0,86,87
 281 191 281 191 286 192 c 1,88,-1
 294 192 l 1,17,18
EndSplineSet
EndChar

StartChar: G11
Encoding: 78156 78156 142
Width: 856
VWidth: -40
Flags: W
LayerCount: 2
Fore
SplineSet
295 303 m 0,0,1
 311 303 311 303 326 301 c 1,2,-1
 327 301 l 1,3,4
 338 299 338 299 353 288 c 0,5,6
 435 228 435 228 479 228 c 0,7,8
 508 229 508 229 519.5 253 c 128,-1,9
 531 277 531 277 548 277 c 2,10,11
 548 277 548 277 552.5 277 c 128,-1,12
 557 277 557 277 561 273 c 1,13,14
 579 264 579 264 579 243 c 0,15,16
 579 238 579 238 578 235 c 1,17,-1
 577 234 l 1,18,-1
 576 233 l 1,19,20
 544 169 544 169 479 168 c 0,21,22
 448 168 448 168 418 181 c 0,23,24
 384 196 384 196 353.5 216 c 128,-1,25
 323 236 323 236 321 237 c 1,26,-1
 318 241 l 1,27,28
 302 243 302 243 288 243 c 0,29,30
 240 242 240 242 202 222 c 0,31,32
 132 184 132 184 114 140 c 0,33,34
 100 110 100 110 132 87 c 0,35,36
 178 52 178 52 547 52 c 0,37,38
 635 52 635 52 776 54 c 1,39,-1
 777 54 l 2,40,41
 790 54 790 54 798 46 c 128,-1,42
 806 38 806 38 806 25 c 2,43,-1
 806 24 l 2,44,45
 806 11 806 11 798 2.5 c 128,-1,46
 790 -6 790 -6 777 -6 c 0,47,48
 636 -7 636 -7 575 -7 c 0,49,50
 158 -7 158 -7 82 52 c 0,51,52
 51 75 51 75 50 120 c 0,53,54
 50 147 50 147 61 171 c 0,55,56
 85 228 85 228 156.5 265.5 c 128,-1,57
 228 303 228 303 295 303 c 0,0,1
EndSplineSet
EndChar

StartChar: G14
Encoding: 78160 78160 143
Width: 416
VWidth: -35
Flags: W
LayerCount: 2
Fore
SplineSet
121 766 m 1,0,1
 121 766 121 766 113 613 c 1,2,3
 113 562 113 562 130 540 c 0,4,5
 148 520 148 520 191 520 c 128,-1,6
 234 520 234 520 307 534 c 1,7,-1
 307 763 l 2,8,9
 307 776 307 776 315.5 784 c 128,-1,10
 324 792 324 792 336.5 792 c 128,-1,11
 349 792 349 792 357.5 783.5 c 128,-1,12
 366 775 366 775 366 763 c 2,13,-1
 366 53 l 2,14,15
 366 40 366 40 357.5 32 c 128,-1,16
 349 24 349 24 336.5 24 c 128,-1,17
 324 24 324 24 315.5 32 c 128,-1,18
 307 40 307 40 307 53 c 2,19,-1
 307 473 l 1,20,-1
 289 470 l 1,21,22
 237 460 237 460 201.5 460 c 128,-1,23
 166 460 166 460 139 468.5 c 0,24,25
 112 476 112 476 90 498 c 0,26,27
 50 538 50 538 50 622 c 0,28,29
 50 656 50 656 56 705 c 128,-1,30
 62 754 62 754 62 767 c 128,-1,31
 62 780 62 780 71 788 c 128,-1,32
 80 796 80 796 91 796 c 2,33,-1
 92 796 l 2,34,35
 104 796 104 796 112.5 787 c 128,-1,36
 121 778 121 778 121 767 c 2,37,-1
 121 766 l 1,0,1
EndSplineSet
EndChar

StartChar: G21
Encoding: 78168 78168 144
Width: 804
VWidth: -36
Flags: W
LayerCount: 2
Fore
SplineSet
363 275 m 2,0,-1
 364 275 l 2,1,2
 378 275 378 275 385.5 265.5 c 128,-1,3
 393 256 393 256 393 243.5 c 128,-1,4
 393 231 393 231 384 223 c 2,5,-1
 223 74 l 2,6,7
 223 73 223 73 724 73 c 0,8,9
 737 73 737 73 745.5 64.5 c 128,-1,10
 754 56 754 56 754 43.5 c 128,-1,11
 754 31 754 31 745.5 22.5 c 128,-1,12
 737 14 737 14 724 14 c 2,13,-1
 146 14 l 2,14,15
 133 14 133 14 125 22.5 c 128,-1,16
 117 31 117 31 117 44 c 128,-1,17
 117 57 117 57 126 65 c 2,18,-1
 344 266 l 1,19,20
 352 275 352 275 363 275 c 2,0,-1
160 551 m 0,21,22
 151 538 151 538 148.5 526 c 128,-1,23
 146 514 146 514 150 490 c 1,24,25
 150 481 150 481 144 473 c 0,26,27
 135 461 135 461 123 461 c 0,28,29
 99 461 99 461 90 487 c 0,30,31
 86 500 86 500 86 514 c 0,32,33
 86 549 86 549 110 583 c 0,34,35
 147 638 147 638 206 638 c 2,36,-1
 214 638 l 1,37,-1
 215 638 l 1,38,39
 277 631 277 631 306 590.5 c 128,-1,40
 335 550 335 550 336 491 c 0,41,42
 336 398 336 398 227 294 c 0,43,44
 98 171 98 171 74 171 c 0,45,46
 68 171 68 171 59 180.5 c 128,-1,47
 50 190 50 190 50 202 c 128,-1,48
 50 214 50 214 110 268 c 0,49,50
 192 342 192 342 217 369 c 0,51,52
 271 429 271 429 278 490 c 1,53,54
 275 533 275 533 260 552 c 128,-1,55
 245 571 245 571 209 577 c 1,56,-1
 208 577 l 2,57,58
 179 577 179 577 160 551 c 0,21,22
EndSplineSet
EndChar

StartChar: G25
Encoding: 78172 78172 145
Width: 848
VWidth: -39
Flags: W
LayerCount: 2
Fore
SplineSet
723 61 m 1,0,1
 698 120 698 120 683.5 143 c 128,-1,2
 669 166 669 166 567 265 c 1,3,-1
 554 277 l 1,4,5
 523 228 523 228 508 211 c 0,6,7
 474 172 474 172 378 169 c 0,8,9
 308 166 308 166 236 142 c 128,-1,10
 164 118 164 118 132 90 c 1,11,-1
 102 90 l 1,12,-1
 126 67 l 1,13,-1
 127 66 l 2,14,15
 127 65 127 65 131 61 c 1,16,-1
 723 61 l 1,0,1
764 -88 m 0,17,18
 743 -88 743 -88 737 -79 c 128,-1,19
 731 -70 731 -70 731 -66.5 c 128,-1,20
 731 -63 731 -63 735 -37 c 1,21,-1
 733 -13 l 1,22,23
 733 -13 733 -13 733 2 c 1,24,-1
 137 2 l 2,25,26
 66 2 66 2 53 47 c 0,27,28
 50 57 50 57 50 69 c 0,29,30
 50 80 50 80 59 98 c 0,31,32
 94 166 94 166 265 205 c 1,33,-1
 276 207 l 1,34,-1
 276 308 l 2,35,36
 276 321 276 321 285 329 c 128,-1,37
 294 337 294 337 306.5 337 c 128,-1,38
 319 337 319 337 328 329 c 128,-1,39
 337 321 337 321 337 308 c 2,40,-1
 337 218 l 1,41,-1
 351 220 l 2,42,43
 362 221 362 221 380 224.5 c 128,-1,44
 398 228 398 228 409 228 c 0,45,46
 444 230 444 230 472 261 c 0,47,48
 486 276 486 276 502.5 302.5 c 128,-1,49
 519 329 519 329 521 332 c 0,50,51
 534 353 534 353 548 355 c 1,52,-1
 551 355 l 2,53,54
 564 355 564 355 631 292.5 c 128,-1,55
 698 230 698 230 748 153 c 128,-1,56
 798 76 798 76 798 -6 c 128,-1,57
 798 -88 798 -88 764 -88 c 0,17,18
139 380 m 2,58,-1
 159 392 l 1,59,60
 203 421 203 421 214 430 c 2,61,-1
 300 492 l 2,62,63
 308 498 308 498 317 498 c 2,64,-1
 323 498 l 1,65,66
 334 496 334 496 342 485 c 0,67,68
 347 477 347 477 347 470 c 0,69,70
 347 453 347 453 312 427 c 0,71,72
 295 414 295 414 255 386.5 c 0,73,74
 215 358 215 358 182 336 c 0,75,76
 137 306 137 306 126 306 c 0,77,78
 105 306 105 306 97 325 c 0,79,80
 94 333 94 333 94 340 c 128,-1,81
 94 347 94 347 97 352 c 128,-1,82
 100 357 100 357 139 380 c 2,58,-1
EndSplineSet
EndChar

StartChar: G28
Encoding: 78176 78176 146
Width: 548
VWidth: -38
Flags: W
LayerCount: 2
Fore
SplineSet
50 37 m 1,0,1
 55 66 55 66 83 66 c 0,2,3
 102 65 102 65 119 65 c 0,4,5
 241 65 241 65 320 118 c 0,6,7
 378 157 378 157 424 250 c 1,8,-1
 156 250 l 2,9,10
 143 250 143 250 134.5 259 c 128,-1,11
 126 268 126 268 126 278.5 c 128,-1,12
 126 289 126 289 136 300 c 2,13,-1
 312 483 l 2,14,15
 322 493 322 493 333 493 c 128,-1,16
 344 493 344 493 353.5 484.5 c 128,-1,17
 363 476 363 476 362.5 464 c 128,-1,18
 362 452 362 452 354 442 c 1,19,-1
 227 310 l 1,20,21
 251 311 251 311 468 311 c 0,22,23
 481 311 481 311 489.5 302 c 128,-1,24
 498 293 498 293 498 284 c 128,-1,25
 498 275 498 275 495 264 c 0,26,27
 467 146 467 146 361 76 c 128,-1,28
 255 6 255 6 115 5 c 0,29,30
 96 5 96 5 80.5 6 c 128,-1,31
 65 7 65 7 57.5 16 c 128,-1,32
 50 25 50 25 50 37 c 1,0,1
EndSplineSet
EndChar

StartChar: G36
Encoding: 78184 78184 147
Width: 856
VWidth: -40
Flags: W
LayerCount: 2
Fore
SplineSet
295 303 m 0,0,1
 311 303 311 303 326 301 c 1,2,-1
 327 301 l 1,3,4
 338 299 338 299 353 288 c 0,5,6
 435 228 435 228 479 228 c 0,7,8
 508 229 508 229 519.5 253 c 128,-1,9
 531 277 531 277 548 277 c 2,10,11
 548 277 548 277 552.5 277 c 128,-1,12
 557 277 557 277 561 273 c 1,13,14
 579 264 579 264 579 243 c 0,15,16
 579 238 579 238 578 235 c 1,17,-1
 577 234 l 1,18,-1
 576 233 l 1,19,20
 544 169 544 169 479 168 c 0,21,22
 448 168 448 168 418 181 c 0,23,24
 384 196 384 196 353.5 216 c 128,-1,25
 323 236 323 236 321 237 c 1,26,-1
 318 241 l 1,27,28
 302 243 302 243 288 243 c 0,29,30
 240 242 240 242 202 222 c 0,31,32
 132 184 132 184 114 140 c 0,33,34
 100 110 100 110 132 87 c 0,35,36
 178 52 178 52 547 52 c 0,37,38
 635 52 635 52 776 54 c 1,39,-1
 777 54 l 2,40,41
 790 54 790 54 798 46 c 128,-1,42
 806 38 806 38 806 25 c 2,43,-1
 806 24 l 2,44,45
 806 11 806 11 798 2.5 c 128,-1,46
 790 -6 790 -6 777 -6 c 0,47,48
 636 -7 636 -7 575 -7 c 0,49,50
 158 -7 158 -7 82 52 c 0,51,52
 51 75 51 75 50 120 c 0,53,54
 50 147 50 147 61 171 c 0,55,56
 85 228 85 228 156.5 265.5 c 128,-1,57
 228 303 228 303 295 303 c 0,0,1
EndSplineSet
EndChar

StartChar: G37
Encoding: 78186 78186 148
Width: 856
VWidth: -40
Flags: W
LayerCount: 2
Fore
SplineSet
295 303 m 0,0,1
 311 303 311 303 326 301 c 1,2,-1
 327 301 l 1,3,4
 338 299 338 299 353 288 c 0,5,6
 435 228 435 228 479 228 c 0,7,8
 508 229 508 229 519.5 253 c 128,-1,9
 531 277 531 277 548 277 c 2,10,11
 548 277 548 277 552.5 277 c 128,-1,12
 557 277 557 277 561 273 c 1,13,14
 579 264 579 264 579 243 c 0,15,16
 579 238 579 238 578 235 c 1,17,-1
 577 234 l 1,18,-1
 576 233 l 1,19,20
 544 169 544 169 479 168 c 0,21,22
 448 168 448 168 418 181 c 0,23,24
 384 196 384 196 353.5 216 c 128,-1,25
 323 236 323 236 321 237 c 1,26,-1
 318 241 l 1,27,28
 302 243 302 243 288 243 c 0,29,30
 240 242 240 242 202 222 c 0,31,32
 132 184 132 184 114 140 c 0,33,34
 100 110 100 110 132 87 c 0,35,36
 178 52 178 52 547 52 c 0,37,38
 635 52 635 52 776 54 c 1,39,-1
 777 54 l 2,40,41
 790 54 790 54 798 46 c 128,-1,42
 806 38 806 38 806 25 c 2,43,-1
 806 24 l 2,44,45
 806 11 806 11 798 2.5 c 128,-1,46
 790 -6 790 -6 777 -6 c 0,47,48
 636 -7 636 -7 575 -7 c 0,49,50
 158 -7 158 -7 82 52 c 0,51,52
 51 75 51 75 50 120 c 0,53,54
 50 147 50 147 61 171 c 0,55,56
 85 228 85 228 156.5 265.5 c 128,-1,57
 228 303 228 303 295 303 c 0,0,1
EndSplineSet
EndChar

StartChar: bA
Encoding: 78188 78188 149
Width: 687
VWidth: -41
Flags: W
LayerCount: 2
Fore
SplineSet
269 342 m 0,0,1
 269 417 269 417 320.5 468.5 c 128,-1,2
 372 520 372 520 435.5 520 c 128,-1,3
 499 520 499 520 549 485.5 c 128,-1,4
 599 451 599 451 618 408 c 128,-1,5
 637 365 637 365 637 328 c 0,6,7
 637 229 637 229 533 96 c 0,8,9
 464 9 464 9 234 -222 c 0,10,11
 143 -313 143 -313 117.5 -340.5 c 128,-1,12
 92 -368 92 -368 80 -368.5 c 128,-1,13
 68 -369 68 -369 59 -360.5 c 128,-1,14
 50 -352 50 -352 50 -339.5 c 128,-1,15
 50 -327 50 -327 75.5 -299 c 128,-1,16
 101 -271 101 -271 188 -183 c 0,17,18
 419 48 419 48 498 148.5 c 128,-1,19
 577 249 577 249 577 330 c 0,20,21
 577 358 577 358 565 383 c 128,-1,22
 553 408 553 408 513 438 c 0,23,24
 476 461 476 461 443 461 c 0,25,26
 398 461 398 461 362.5 424.5 c 128,-1,27
 327 388 327 388 326.5 346.5 c 128,-1,28
 326 305 326 305 349 272 c 0,29,30
 360 256 360 256 360 242.5 c 128,-1,31
 360 229 360 229 349.5 223 c 128,-1,32
 339 217 339 217 325.5 217 c 128,-1,33
 312 217 312 217 290.5 252 c 128,-1,34
 269 287 269 287 269 342 c 0,0,1
EndSplineSet
EndChar

StartChar: G39
Encoding: 78189 78189 150
Width: 678
VWidth: -35
Flags: W
LayerCount: 2
Fore
SplineSet
384 351 m 1,0,1
 358 353 358 353 358 382 c 0,2,3
 358 396 358 396 380 415 c 0,4,5
 424 454 424 454 425 509 c 1,6,7
 425 509 425 509 425 521 c 0,8,9
 421 583 421 583 374 622 c 0,10,11
 339 651 339 651 299 651 c 0,12,13
 209 651 209 651 142 535 c 0,14,15
 135 522 135 522 122 522 c 0,16,17
 87 523 87 523 87 550 c 0,18,19
 87 558 87 558 103 585 c 0,20,21
 176 711 176 711 293 711 c 0,22,23
 363 711 363 711 417 665 c 0,24,25
 482 610 482 610 485 524 c 1,26,-1
 485 523 l 1,27,-1
 485 519 l 2,28,29
 485 475 485 475 457 426 c 2,30,-1
 446 407 l 1,31,-1
 467 405 l 2,32,33
 562 395 562 395 602 347 c 0,34,35
 628 316 628 316 628 271.5 c 128,-1,36
 628 227 628 227 596 180 c 0,37,38
 538 94 538 94 408 50 c 0,39,40
 314 18 314 18 245.5 18 c 128,-1,41
 177 18 177 18 120.5 24.5 c 128,-1,42
 64 31 64 31 57 39 c 128,-1,43
 50 47 50 47 50 59 c 2,44,-1
 50 64 l 1,45,46
 52 75 52 75 61 82 c 128,-1,47
 70 89 70 89 81 89 c 1,48,49
 158 78 158 78 204 78 c 0,50,51
 301 79 301 79 401.5 113.5 c 128,-1,52
 502 148 502 148 549 216 c 0,53,54
 569 246 569 246 569 270.5 c 128,-1,55
 569 295 569 295 553.5 313 c 0,56,57
 538 332 538 332 501 342 c 0,58,59
 445 358 445 358 385 351 c 1,60,-1
 384 351 l 1,0,1
EndSplineSet
EndChar

StartChar: w
Encoding: 78193 78193 151
Width: 708
VWidth: -36
Flags: W
LayerCount: 2
Fore
SplineSet
240 655 m 2,0,1
 253 655 253 655 261.5 646.5 c 128,-1,2
 270 638 270 638 270 631.5 c 128,-1,3
 270 625 270 625 268 395 c 1,4,-1
 467 613 l 2,5,6
 476 623 476 623 487.5 622.5 c 128,-1,7
 499 622 499 622 509 613.5 c 128,-1,8
 519 605 519 605 519 593.5 c 128,-1,9
 519 582 519 582 510 573 c 2,10,-1
 316 359 l 1,11,-1
 354 364 l 1,12,13
 401 369 401 369 442 369 c 0,14,15
 548 369 548 369 613 317 c 0,16,17
 658 279 658 279 658 236 c 0,18,19
 657 147 657 147 523 88 c 0,20,21
 368 20 368 20 82 14 c 1,22,-1
 81 14 l 2,23,24
 69 14 69 14 59.5 23 c 128,-1,25
 50 32 50 32 50 44 c 2,26,-1
 50 45 l 2,27,28
 50 57 50 57 58 66 c 0,29,30
 67 75 67 75 79 75 c 0,31,32
 361 82 361 82 499 141 c 0,33,34
 554 164 554 164 576 188 c 128,-1,35
 598 212 598 212 598 232 c 128,-1,36
 598 252 598 252 572 272 c 0,37,38
 523 310 523 310 430 310.5 c 128,-1,39
 337 311 337 311 247 280 c 0,40,41
 243 279 243 279 236 279 c 128,-1,42
 229 279 229 279 219 286 c 128,-1,43
 209 293 209 293 209 308 c 2,44,45
 209 308 209 308 208.5 341.5 c 128,-1,46
 208 375 208 375 208 431 c 0,47,48
 209 638 209 638 224 652 c 0,49,50
 227 655 227 655 239 655 c 2,51,-1
 240 655 l 2,0,1
EndSplineSet
EndChar

StartChar: G47
Encoding: 78199 78199 152
Width: 619
VWidth: -38
Flags: W
LayerCount: 2
Fore
SplineSet
160 507 m 128,-1,1
 173 507 173 507 181.5 498 c 0,2,3
 190 488 190 488 190 482 c 2,4,5
 190 482 190 482 190 148 c 1,6,-1
 539 148 l 2,7,8
 552 148 552 148 560.5 139.5 c 128,-1,9
 569 131 569 131 569 118.5 c 128,-1,10
 569 106 569 106 560.5 97.5 c 128,-1,11
 552 89 552 89 539 89 c 2,12,-1
 190 89 l 1,13,-1
 190 75 l 1,14,-1
 190 68 l 1,15,16
 189 65 189 65 189 61 c 0,17,18
 186 34 186 34 166.5 20 c 128,-1,19
 147 6 147 6 127 5 c 1,20,21
 127 5 127 5 114.5 5.5 c 128,-1,22
 102 6 102 6 82 17 c 0,23,24
 50 34 50 34 50 74 c 0,25,26
 50 129 50 129 119 144 c 1,27,-1
 130 146 l 1,28,-1
 130 476 l 2,29,30
 130 489 130 489 138 498 c 0,31,0
 147 507 147 507 160 507 c 128,-1,1
EndSplineSet
EndChar

StartChar: G7
Encoding: 78150 78150 153
Width: 364
VWidth: -33
Flags: W
LayerCount: 2
Fore
SplineSet
283 917 m 2,0,1
 295 917 295 917 304.5 908 c 128,-1,2
 314 899 314 899 314 888 c 2,3,-1
 314 886 l 2,4,5
 314 874 314 874 305 866 c 0,6,7
 296 858 296 858 262 855 c 0,8,9
 202 852 202 852 163 826 c 0,10,11
 110 790 110 790 110 723 c 2,12,-1
 110 61 l 2,13,14
 110 48 110 48 102 40 c 0,15,16
 94 32 94 32 81 31.5 c 128,-1,17
 68 31 68 31 59 40 c 128,-1,18
 50 49 50 49 50 61 c 2,19,-1
 50 723 l 2,20,21
 50 822 50 822 132 875 c 0,22,23
 193 915 193 915 282 917 c 1,24,-1
 283 917 l 2,0,1
EndSplineSet
EndChar

StartChar: H2
Encoding: 78208 78208 154
Width: 680
VWidth: -37
Flags: W
LayerCount: 2
Fore
SplineSet
362 368 m 2,0,-1
 384 368 l 1,1,-1
 374 388 l 2,2,3
 373 392 373 392 372 396 c 0,4,5
 367 420 367 420 339 420 c 0,6,7
 305 420 305 420 282 394 c 1,8,-1
 259 372 l 1,9,10
 338 368 338 368 362 368 c 2,0,-1
84 297 m 0,11,12
 54 297 54 297 54 327 c 0,13,14
 54 347 54 347 70 354 c 2,15,-1
 185 409 l 1,16,-1
 162 423 l 1,17,18
 115 449 115 449 91 459 c 0,19,20
 50 476 50 476 50 498 c 0,21,22
 50 502 50 502 52 507 c 0,23,24
 58 523 58 523 78 525 c 1,25,-1
 79 525 l 2,26,27
 86 525 86 525 147 500.5 c 128,-1,28
 208 476 208 476 245 447 c 1,29,-1
 253 440 l 1,30,-1
 276 457 l 1,31,32
 302 481 302 481 338 481 c 128,-1,33
 374 481 374 481 403 456.5 c 128,-1,34
 432 432 432 432 441 375 c 0,35,36
 441 374 441 374 443 362 c 1,37,-1
 455 362 l 1,38,-1
 459 362 l 1,39,40
 592 351 592 351 624 296 c 0,41,42
 630 285 630 285 630 271.5 c 128,-1,43
 630 258 630 258 620 252 c 128,-1,44
 610 246 610 246 596.5 246 c 128,-1,45
 583 246 583 246 575 263 c 0,46,47
 562 281 562 281 540 289 c 0,48,49
 502 302 502 302 277 311 c 1,50,-1
 282 292 l 2,51,52
 291 256 291 256 291 207 c 128,-1,53
 291 158 291 158 271 91 c 0,54,55
 270 91 270 91 266 74 c 1,56,-1
 285 74 l 1,57,-1
 326 72 l 1,58,59
 367 74 367 74 367 108 c 1,60,61
 367 108 367 108 362 140 c 1,62,63
 362 148 362 148 369 157 c 128,-1,64
 376 166 376 166 391 166 c 0,65,66
 426 166 426 166 426 105 c 0,67,68
 426 42 426 42 362 17 c 0,69,70
 334 7 334 7 298.5 7 c 128,-1,71
 263 7 263 7 235 13.5 c 128,-1,72
 207 20 207 20 203 27 c 128,-1,73
 199 34 199 34 199 43 c 0,74,75
 200 52 200 52 214 96 c 0,76,77
 238 171 238 171 238 219.5 c 128,-1,78
 238 268 238 268 209 333 c 1,79,-1
 209 354 l 1,80,-1
 97 300 l 2,81,82
 92 297 92 297 84 297 c 0,11,12
EndSplineSet
EndChar

StartChar: H6
Encoding: 78212 78212 155
Width: 494
VWidth: -33
Flags: W
LayerCount: 2
Fore
SplineSet
353 863 m 1,0,-1
 353 855 l 1,1,2
 352 817 352 817 320 765 c 1,3,-1
 313 753 l 1,4,-1
 324 745 l 1,5,6
 366 718 366 718 392 662 c 0,7,8
 433 574 433 574 442 358 c 0,9,10
 444 297 444 297 444 174.5 c 128,-1,11
 444 52 444 52 430 39 c 0,12,13
 426 36 426 36 413.5 36 c 128,-1,14
 401 36 401 36 392 44 c 128,-1,15
 383 52 383 52 383 65 c 2,16,-1
 384 191 l 1,17,18
 384 390 384 390 371 492.5 c 128,-1,19
 358 595 358 595 331.5 651.5 c 128,-1,20
 305 708 305 708 267 708 c 0,21,22
 253 708 253 708 244.5 716.5 c 128,-1,23
 236 725 236 725 236 737.5 c 128,-1,24
 236 750 236 750 257 772 c 0,25,26
 294 809 294 809 294 849 c 128,-1,27
 294 889 294 889 252 912 c 0,28,29
 228 925 228 925 200 925 c 2,30,31
 200 925 200 925 192 925 c 128,-1,32
 184 925 184 925 171 922 c 0,33,34
 127 910 127 910 108 864 c 1,35,-1
 107 863 l 1,36,37
 100 843 100 843 81 843 c 0,38,39
 64 843 64 843 57 853.5 c 128,-1,40
 50 864 50 864 50 871 c 128,-1,41
 50 878 50 878 54 889 c 0,42,43
 82 959 82 959 155 980 c 0,44,45
 174 985 174 985 192 985 c 0,46,47
 238 985 238 985 279 963 c 0,48,49
 346 929 346 929 353 863 c 1,0,-1
EndSplineSet
EndChar

StartChar: H6a
Encoding: 78213 78213 156
Width: 1100
VWidth: -38
Flags: W
LayerCount: 2
Fore
SplineSet
50 192 m 2,0,1
 50 205 50 205 59 213.5 c 128,-1,2
 68 222 68 222 82.5 222 c 128,-1,3
 97 222 97 222 106 207 c 2,4,-1
 187 75 l 1,5,6
 187 76 187 76 195 76 c 0,7,8
 377 79 377 79 589.5 173 c 128,-1,9
 802 267 802 267 961 392 c 0,10,11
 1009 430 1009 430 1017 430 c 2,12,-1
 1019 430 l 2,13,14
 1035 430 1035 430 1042.5 420 c 128,-1,15
 1050 410 1050 410 1050 400 c 0,16,17
 1050 386 1050 386 985 335 c 0,18,19
 823 206 823 206 622 119 c 0,20,21
 381 14 381 14 183 13 c 1,22,23
 183 13 183 13 168 12.5 c 128,-1,24
 153 12 153 12 146 26 c 2,25,-1
 111 89 l 1,26,-1
 111 35 l 2,27,28
 111 22 111 22 102 13.5 c 128,-1,29
 93 5 93 5 80.5 5 c 128,-1,30
 68 5 68 5 59 14 c 128,-1,31
 50 23 50 23 50 35 c 2,32,-1
 50 192 l 2,0,1
411 499 m 2,33,34
 422 499 422 499 436 482 c 0,35,36
 466 447 466 447 501.5 447 c 128,-1,37
 537 447 537 447 594 477 c 0,38,39
 622 491 622 491 634 491 c 128,-1,40
 646 491 646 491 655 482 c 128,-1,41
 664 473 664 473 664 461.5 c 128,-1,42
 664 450 664 450 651 439 c 2,43,-1
 360 178 l 2,44,45
 350 170 350 170 339 170 c 128,-1,46
 328 170 328 170 319.5 179.5 c 128,-1,47
 311 189 311 189 311 201 c 128,-1,48
 311 213 311 213 320 222 c 2,49,-1
 509 390 l 1,50,-1
 480 395 l 2,51,52
 427 405 427 405 393 443 c 0,53,54
 379 459 379 459 379 471 c 128,-1,55
 379 483 379 483 387 491 c 0,56,57
 396 499 396 499 410 499 c 2,58,-1
 411 499 l 2,33,34
EndSplineSet
EndChar

StartChar: H8
Encoding: 78215 78215 157
Width: 388
VWidth: -40
Flags: W
LayerCount: 2
Fore
SplineSet
109 82 m 0,0,1
 109 52 109 52 137 52 c 0,2,3
 142 52 142 52 156 57 c 0,4,5
 205 76 205 76 237 116 c 0,6,7
 280 170 280 170 280 218 c 0,8,9
 280 250 280 250 251 250 c 0,10,11
 238 251 238 251 222 245 c 0,12,13
 184 230 184 230 152 190 c 0,14,15
 110 136 110 136 109 82 c 0,0,1
84 10 m 0,16,17
 50 36 50 36 50 96 c 128,-1,18
 50 156 50 156 98.5 218.5 c 128,-1,19
 147 281 147 281 203 301 c 0,20,21
 227 310 227 310 238 310 c 2,22,23
 238 310 238 310 260 310 c 128,-1,24
 282 310 282 310 304 293 c 0,25,26
 338 268 338 268 338 207 c 128,-1,27
 338 146 338 146 290 84 c 0,28,29
 220 -7 220 -7 141 -7 c 2,30,31
 141 -7 141 -7 138 -7 c 0,32,33
 107 -7 107 -7 84 10 c 0,16,17
EndSplineSet
EndChar

StartChar: I14
Encoding: 78233 78233 158
Width: 1022
VWidth: -35
Flags: W
LayerCount: 2
Fore
SplineSet
724 550 m 1,0,-1
 725 559 l 1,1,2
 730 637 730 637 770 678 c 0,3,4
 821 730 821 730 903 730 c 0,5,6
 951 730 951 730 966 711 c 0,7,8
 972 704 972 704 972 696 c 0,9,10
 972 677 972 677 958 668 c 0,11,12
 952 664 952 664 944.5 664 c 128,-1,13
 937 664 937 664 927.5 667.5 c 128,-1,14
 918 671 918 671 904 671 c 0,15,16
 849 671 849 671 818 640 c 128,-1,17
 787 609 787 609 784 555 c 1,18,-1
 784 534 l 2,19,20
 784 469 784 469 820 376 c 0,21,22
 856 282 856 282 856 218 c 0,23,24
 856 86 856 86 769 39 c 0,25,26
 734 20 734 20 691 19 c 1,27,28
 691 19 691 19 683 19 c 0,29,30
 584 24 584 24 524 117 c 0,31,32
 477 188 477 188 477 276 c 0,33,34
 477 319 477 319 488 370 c 128,-1,35
 499 421 499 421 499 469.5 c 128,-1,36
 499 518 499 518 475.5 554 c 128,-1,37
 452 590 452 590 412 590 c 0,38,39
 401 590 401 590 390 588 c 0,40,41
 326 574 326 574 289 507 c 0,42,43
 262 457 262 457 262 408.5 c 128,-1,44
 262 360 262 360 276.5 299.5 c 128,-1,45
 291 239 291 239 291 183 c 2,46,47
 291 183 291 183 291 162 c 0,48,49
 291 99 291 99 250 58 c 0,50,51
 213 23 213 23 162.5 23 c 128,-1,52
 112 23 112 23 68 47 c 1,53,-1
 67 47 l 1,54,55
 50 55 50 55 50 74 c 0,56,57
 50 81 50 81 53 87 c 0,58,59
 60 103 60 103 82 103 c 2,60,61
 82 103 82 103 86 103 c 128,-1,62
 90 103 90 103 92 102 c 0,63,64
 134 85 134 85 157.5 85 c 128,-1,65
 181 85 181 85 190 87 c 0,66,67
 234 100 234 100 234 183 c 0,68,69
 233 232 233 232 218.5 292 c 128,-1,70
 204 352 204 352 204 411.5 c 128,-1,71
 204 471 204 471 239 536 c 0,72,73
 289 628 289 628 376 646 c 0,74,75
 393 649 393 649 413.5 649 c 128,-1,76
 434 649 434 649 467.5 636.5 c 128,-1,77
 501 624 501 624 530.5 581.5 c 128,-1,78
 560 539 560 539 560 476.5 c 128,-1,79
 560 414 560 414 546 355 c 0,80,81
 537 307 537 307 537 268 c 0,82,83
 537 194 537 194 574 144 c 0,84,85
 594 116 594 116 623.5 99 c 128,-1,86
 653 82 653 82 684 80 c 1,87,88
 684 80 684 80 697 80 c 0,89,90
 755 80 755 80 781 136 c 0,91,92
 797 169 797 169 796.5 220.5 c 128,-1,93
 796 272 796 272 760 368 c 128,-1,94
 724 464 724 464 724 550 c 1,0,-1
EndSplineSet
EndChar

StartChar: I3
Encoding: 78218 78218 159
Width: 822
VWidth: -33
Flags: W
LayerCount: 2
Fore
SplineSet
419 127 m 0,0,1
 419 98 419 98 388 98 c 0,2,3
 367 98 367 98 360 116 c 2,4,-1
 314 227 l 1,5,-1
 101 40 l 2,6,7
 92 33 92 33 79.5 33 c 128,-1,8
 67 33 67 33 58 42 c 0,9,10
 50 51 50 51 50 63 c 128,-1,11
 50 75 50 75 62 85 c 2,12,-1
 690 639 l 1,13,-1
 506 743 l 1,14,15
 491 750 491 750 491 768 c 128,-1,16
 491 786 491 786 503 794 c 2,17,-1
 714 935 l 1,18,19
 722 939 722 939 729 939 c 2,20,-1
 730 939 l 2,21,22
 747 939 747 939 753.5 928.5 c 128,-1,23
 760 918 760 918 760 905 c 128,-1,24
 760 892 760 892 748 885 c 1,25,-1
 747 885 l 1,26,-1
 578 771 l 1,27,-1
 757 669 l 1,28,29
 772 663 772 663 772 646.5 c 128,-1,30
 772 630 772 630 761 621 c 2,31,-1
 516 405 l 2,32,33
 516 404 516 404 548 328.5 c 128,-1,34
 580 253 580 253 580 248 c 0,35,36
 580 229 580 229 563 222 c 0,37,38
 556 219 556 219 548 219 c 0,39,40
 529 219 529 219 522 237 c 2,41,-1
 467 363 l 1,42,-1
 361 268 l 1,43,-1
 416 140 l 2,44,45
 419 133 419 133 419 127 c 0,0,1
EndSplineSet
EndChar

StartChar: I5
Encoding: 78220 78220 160
Width: 953
VWidth: -37
Flags: W
LayerCount: 2
Fore
SplineSet
651 566 m 1,0,1
 721 562 721 562 725.5 562 c 128,-1,2
 730 562 730 562 837 576 c 1,3,-1
 841 576 l 2,4,5
 853 576 853 576 861 569 c 128,-1,6
 869 562 869 562 871 552 c 1,7,-1
 871 547 l 2,8,9
 871 522 871 522 835 516 c 2,10,11
 835 516 835 516 795.5 510.5 c 128,-1,12
 756 505 756 505 722.5 505 c 128,-1,13
 689 505 689 505 666 508 c 1,14,15
 656 475 656 475 646 447 c 1,16,17
 663 417 663 417 627 333 c 0,18,19
 609 290 609 290 587 254 c 1,20,-1
 613 255 l 1,21,-1
 650 255 l 2,22,23
 662 255 662 255 671.5 247 c 128,-1,24
 681 239 681 239 681 227 c 2,25,-1
 681 225 l 2,26,27
 681 213 681 213 671.5 204.5 c 128,-1,28
 662 196 662 196 650 195 c 1,29,-1
 645 195 l 2,30,31
 626 195 626 195 532 192 c 1,32,-1
 530 192 l 2,33,34
 516 192 516 192 508 200 c 0,35,36
 496 212 496 212 504 239 c 0,37,38
 510 252 510 252 533.5 284.5 c 128,-1,39
 557 317 557 317 561 324 c 128,-1,40
 565 331 565 331 566 337.5 c 128,-1,41
 567 344 567 344 568 346 c 2,42,-1
 607 405 l 1,43,-1
 549 365 l 2,44,45
 544 362 544 362 538 356 c 1,46,-1
 537 356 l 1,47,48
 471 332 471 332 336 327 c 1,49,-1
 322 327 l 1,50,-1
 322 313 l 1,51,-1
 322 312 l 2,52,53
 322 310 322 310 320 305 c 2,54,-1
 308 264 l 1,55,-1
 304 247 l 1,56,-1
 322 247 l 1,57,-1
 366 247 l 2,58,59
 379 247 379 247 388 238 c 128,-1,60
 397 229 397 229 397 216.5 c 128,-1,61
 397 204 397 204 388 195 c 128,-1,62
 379 186 379 186 366 186 c 2,63,-1
 261 186 l 2,64,65
 248 186 248 186 239 195 c 0,66,67
 231 204 231 204 232 223 c 1,68,-1
 232 225 l 1,69,-1
 262 320 l 1,70,71
 174 313 174 313 160 309 c 1,72,73
 112 278 112 278 112 238 c 128,-1,74
 112 198 112 198 154 162 c 0,75,76
 250 79 250 79 420 69 c 1,77,78
 420 69 420 69 444 69 c 0,79,80
 521 69 521 69 615 99 c 0,81,82
 746 140 746 140 832 206 c 0,83,84
 863 229 863 229 876 229 c 128,-1,85
 889 229 889 229 896 219 c 128,-1,86
 903 209 903 209 903.5 196.5 c 128,-1,87
 904 184 904 184 860 151 c 0,88,89
 774 86 774 86 651.5 47.5 c 128,-1,90
 529 9 529 9 426 9 c 2,91,-1
 415 9 l 1,92,93
 313 13 313 13 225 48 c 0,94,95
 98 98 98 98 61 187 c 0,96,97
 50 213 50 213 50 238 c 0,98,99
 50 312 50 312 131 361 c 0,100,101
 164 378 164 378 217.5 382 c 128,-1,102
 271 386 271 386 362 388 c 128,-1,103
 453 390 453 390 513 410 c 1,104,-1
 514 411 l 1,105,106
 613 456 613 456 615 528 c 0,107,108
 616 549 616 549 625.5 557.5 c 128,-1,109
 635 566 635 566 646 566 c 2,110,-1
 651 566 l 1,0,1
EndSplineSet
EndChar

StartChar: I6
Encoding: 78222 78222 161
Width: 976
VWidth: -39
Flags: W
LayerCount: 2
Fore
SplineSet
120 62 m 0,0,1
 208 84 208 84 238 129 c 0,2,3
 249 146 249 146 249 162 c 128,-1,4
 249 178 249 178 230.5 201 c 128,-1,5
 212 224 212 224 184 224 c 0,6,7
 131 224 131 224 111 178 c 0,8,9
 100 151 100 151 80 151 c 2,10,-1
 79 151 l 1,11,-1
 79 152 l 1,12,13
 75 152 75 152 69 155 c 0,14,15
 50 163 50 163 50 179 c 0,16,17
 50 184 50 184 55 198 c 0,18,19
 69 234 69 234 103.5 258.5 c 128,-1,20
 138 283 138 283 180 283 c 2,21,22
 180 283 180 283 183 283 c 0,23,24
 243 283 243 283 280 237 c 0,25,26
 308 204 308 204 308 168 c 0,27,28
 308 114 308 114 277 90 c 0,29,30
 270 85 270 85 266 80 c 2,31,-1
 249 57 l 1,32,-1
 461 57 l 1,33,-1
 672 360 l 2,34,35
 680 370 680 370 696 372 c 1,36,-1
 697 372 l 2,37,38
 726 372 726 372 726 344 c 0,39,40
 726 334 726 334 723.5 331 c 128,-1,41
 721 328 721 328 533 58 c 0,42,43
 533 57 533 57 897 57 c 0,44,45
 910 57 910 57 918 48.5 c 128,-1,46
 926 40 926 40 926 27 c 128,-1,47
 926 14 926 14 917.5 6 c 128,-1,48
 909 -2 909 -2 897 -2 c 2,49,-1
 107 -2 l 2,50,51
 94 -2 94 -2 85.5 6 c 128,-1,52
 77 14 77 14 77 26 c 128,-1,53
 77 38 77 38 81.5 45.5 c 128,-1,54
 86 53 86 53 120 62 c 0,0,1
EndSplineSet
EndChar

StartChar: I8
Encoding: 78224 78224 162
Width: 494
VWidth: -34
Flags: W
LayerCount: 2
Fore
SplineSet
138 175 m 2,0,-1
 140 175 l 2,1,2
 155 175 155 175 178 148 c 0,3,4
 219 104 219 104 258 97 c 0,5,6
 269 95 269 95 299.5 95 c 128,-1,7
 330 95 330 95 369.5 105.5 c 0,8,9
 408 116 408 116 416 116 c 0,10,11
 444 114 444 114 444 84 c 0,12,13
 444 74 444 74 440 68 c 0,14,15
 434 60 434 60 387.5 47.5 c 128,-1,16
 341 35 341 35 301.5 35 c 128,-1,17
 262 35 262 35 245 39 c 0,18,19
 205 47 205 47 156 89 c 1,20,-1
 144 100 l 1,21,-1
 106 40 l 1,22,23
 97 28 97 28 84 28 c 128,-1,24
 71 28 71 28 60.5 35 c 128,-1,25
 50 42 50 42 50 54.5 c 128,-1,26
 50 67 50 67 56 74 c 1,27,-1
 116 163 l 2,28,29
 124 175 124 175 138 175 c 2,0,-1
211 855 m 2,30,31
 229 855 229 855 238 843 c 1,32,-1
 259 792 l 1,33,-1
 286 727 l 2,34,35
 297 701 297 701 304.5 659 c 128,-1,36
 312 617 312 617 312 520 c 0,37,38
 312 291 312 291 357 200 c 0,39,40
 364 187 364 187 364 179.5 c 128,-1,41
 364 172 364 172 356.5 162 c 128,-1,42
 349 152 349 152 336.5 152 c 128,-1,43
 324 152 324 152 316.5 158.5 c 128,-1,44
 309 165 309 165 297 203 c 0,45,46
 259 330 259 330 256 534 c 1,47,-1
 228 536 l 1,48,49
 192 263 192 263 170 248 c 0,50,51
 166 245 166 245 160.5 244.5 c 128,-1,52
 155 244 155 244 147.5 244.5 c 128,-1,53
 140 245 140 245 132 254 c 0,54,55
 124 262 124 262 124 268 c 128,-1,56
 124 274 124 274 130 301 c 0,57,58
 159 434 159 434 171 555.5 c 128,-1,59
 183 677 183 677 183 733.5 c 128,-1,60
 183 790 183 790 181 824 c 1,61,-1
 181 826 l 2,62,63
 181 837 181 837 189 846 c 128,-1,64
 197 855 197 855 207 855 c 2,65,-1
 209 855 l 1,66,-1
 211 855 l 2,30,31
EndSplineSet
EndChar

StartChar: K1
Encoding: 78235 78235 163
Width: 626
VWidth: -35
Flags: W
LayerCount: 2
Fore
SplineSet
280 596 m 1,0,-1
 346 406 l 1,1,-1
 493 559 l 1,2,3
 536 619 536 619 506 658 c 0,4,5
 480 689 480 689 418 698 c 0,6,7
 403 700 403 700 395 700 c 2,8,9
 395 700 395 700 383 700 c 0,10,11
 340 700 340 700 308.5 679.5 c 128,-1,12
 277 659 277 659 277 624 c 0,13,14
 277 612 277 612 280 596 c 1,0,-1
223 580 m 1,15,16
 218 590 218 590 218 617 c 128,-1,17
 218 644 218 644 232 676.5 c 0,18,19
 246 708 246 708 278 730 c 0,20,21
 321 758 321 758 376 759 c 2,22,23
 376 759 376 759 387.5 759 c 128,-1,24
 399 759 399 759 423 756 c 0,25,26
 520 742 520 742 557 687 c 0,27,28
 576 659 576 659 576 615 c 128,-1,29
 576 571 576 571 543 526 c 0,30,31
 540 522 540 522 538 519 c 2,32,-1
 369 344 l 1,33,-1
 469 61 l 2,34,35
 470 58 470 58 470 50 c 0,36,37
 470 30 470 30 451 23 c 0,38,39
 446 21 446 21 438 21 c 0,40,41
 420 21 420 21 413 42 c 2,42,-1
 323 295 l 1,43,-1
 101 67 l 2,44,45
 92 57 92 57 81 57 c 0,46,47
 70 58 70 58 60 66 c 0,48,49
 43 80 43 80 59 108 c 1,50,-1
 300 358 l 1,51,-1
 223 580 l 1,15,16
EndSplineSet
EndChar

StartChar: L1
Encoding: 78243 78243 164
Width: 543
VWidth: -36
Flags: W
LayerCount: 2
Fore
SplineSet
352 636 m 1,0,1
 352 665 352 665 385 665 c 0,2,3
 398 666 398 666 404 660 c 0,4,5
 416 648 416 648 415 622 c 0,6,7
 415 515 415 515 313 497 c 2,8,-1
 301 495 l 1,9,-1
 301 81 l 1,10,-1
 318 84 l 1,11,12
 400 97 400 97 437 133 c 0,13,14
 452 148 452 148 464.5 148 c 128,-1,15
 477 148 477 148 485 139 c 128,-1,16
 493 130 493 130 493 117.5 c 128,-1,17
 493 105 493 105 472 83 c 0,18,19
 405 15 405 15 272 15 c 128,-1,20
 139 15 139 15 71 82 c 0,21,22
 50 103 50 103 50 116.5 c 128,-1,23
 50 130 50 130 58 139 c 128,-1,24
 66 148 66 148 79 148 c 128,-1,25
 92 148 92 148 107 133 c 0,26,27
 143 97 143 97 226 84 c 0,28,29
 227 84 227 84 243 81 c 1,30,-1
 243 494 l 1,31,-1
 230 496 l 2,32,33
 183 504 183 504 160 524.5 c 128,-1,34
 137 545 137 545 128.5 570.5 c 128,-1,35
 120 596 120 596 120 609 c 0,36,37
 120 645 120 645 134 659 c 0,38,39
 141 665 141 665 156 665 c 1,40,41
 172 659 172 659 177 654.5 c 128,-1,42
 182 650 182 650 182 643 c 128,-1,43
 182 636 182 636 180.5 617 c 128,-1,44
 179 598 179 598 182 591 c 128,-1,45
 185 584 185 584 195 575 c 0,46,47
 221 550 221 550 264 550 c 2,48,49
 264 550 264 550 271 550 c 0,50,51
 313 550 313 550 340 574 c 0,52,53
 356 587 356 587 356 601.5 c 128,-1,54
 356 616 356 616 352 636 c 1,0,1
EndSplineSet
EndChar

